<svg xmlns="http://www.w3.org/2000/svg" xmlns:xlink="http://www.w3.org/1999/xlink" viewBox="0 0 2000 2000"><defs><style>.cls-1{fill:none;}.cls-2{isolation:isolate;}.cls-3{fill:url(#radial-gradient);}.cls-4{opacity:0.1;mix-blend-mode:lighten;}.cls-5{clip-path:url(#clip-path);}.cls-6{clip-path:url(#clip-path-2);}.cls-7,.cls-8{fill:#cdcdcd;}.cls-8{stroke:#000;stroke-miterlimit:10;stroke-width:0.1px;}</style><radialGradient id="radial-gradient" cx="1423.68" cy="827.8" fx="1383.5501302236157" fy="-404.49547660952385" r="2602.72" gradientTransform="translate(-46.8 -530.35) scale(1.03 1.51)" gradientUnits="userSpaceOnUse"><stop offset="0" stop-color="#3fd6ff"/><stop offset="1" stop-color="#6b22c6"/></radialGradient><clipPath id="clip-path"><rect class="cls-1" width="2000" height="2000"/></clipPath><clipPath id="clip-path-2"><rect class="cls-1" x="-840" y="-375.12" width="3819.37" height="2590.52"/></clipPath></defs><title>Artboard 52</title><g class="cls-2"><g id="Layer_2" data-name="Layer 2"><rect class="cls-3" x="-0.5" y="0.5" width="2000" height="2000"/><g class="cls-4"><g class="cls-5"><g class="cls-6"><path class="cls-7" d="M2494,1658.24l-30-92.3a96.59,96.59,0,0,0-35.09-48.3l-78.51-57a96.59,96.59,0,0,0-56.77-18.45h-97a96.59,96.59,0,0,0-56.78,18.44l-78.51,57a96.59,96.59,0,0,0-35.09,48.29l-30,92.29a96.59,96.59,0,0,0,0,59.7l30,92.3a97.18,97.18,0,0,0,35.09,48.3l78.51,57a96.59,96.59,0,0,0,56.77,18.45h97a96.59,96.59,0,0,0,56.78-18.44l78.51-57a97.16,97.16,0,0,0,35.09-48.29l30-92.29A96.59,96.59,0,0,0,2494,1658.24Z"/><path class="cls-7" d="M858.12,1518.94c-.38-.4-.8-.76-1.18-1.16s-.75-.8-1.16-1.18c-43.63-46.66-118.15-62.44-180.77-62.82-62.62.38-137.14,16.16-180.77,62.82-.4.38-.76.8-1.16,1.18s-.8.76-1.18,1.16c-46.66,43.63-62.44,118.15-62.82,180.77.38,62.62,16.16,137.14,62.82,180.77.38.4.8.76,1.18,1.16s.75.8,1.16,1.18c43.63,46.66,118.15,62.44,180.77,62.82,62.62-.38,137.14-16.16,180.77-62.82.4-.38.76-.8,1.16-1.18s.8-.76,1.18-1.16c46.66-43.63,62.44-118.15,62.82-180.77C920.56,1637.09,904.78,1562.57,858.12,1518.94Z"/><path class="cls-7" d="M1732.31,1740l-.08-.16,0-.1,0-.1a545.24,545.24,0,0,0-151.51-182.43l-.26-.2-.09-.07-.09-.07-.14-.1c-16.38-12.11-42-20.54-70.19-23.14s-54.92,1-73.24,9.91l-.17.09-.1,0-.1,0a547.16,547.16,0,0,0-180.92,149.58l-1.67,2.14-.11.14-.11.15-.66.91c-13.22,18.13-21.8,42.89-24.17,69.72s1.73,52.71,11.56,72.88l.08.16,0,.1,0,.1.63,1.23a539,539,0,0,0,151,181.3l.13.1.07.06.07.05.14.1c16.39,12.12,42,20.55,70.21,23.15s54.93-1,73.24-9.92l.17-.08.11-.05.11-.05.16-.08a550.53,550.53,0,0,0,181.28-150.18l1.13-1.45.09-.11.08-.11.14-.19c13.44-18.19,22.21-43.06,24.69-70S1742.21,1760.34,1732.31,1740Z"/><path class="cls-8" d="M133.48,1601.29l-96.88-83.18a129.85,129.85,0,0,0-60.52-29.06,129.85,129.85,0,0,0-66.93,5.09l-120.48,42.31a130,130,0,0,0-84.48,98.39l-23.6,125.49a130,130,0,0,0,43,122.36l96.88,83.18A129.85,129.85,0,0,0-119,1994.92a129.85,129.85,0,0,0,66.93-5.09l120.48-42.31a130,130,0,0,0,84.48-98.39l23.6-125.49A130,130,0,0,0,133.48,1601.29Z"/><path class="cls-7" d="M2494,363l-30-92.3a96.59,96.59,0,0,0-35.09-48.3l-78.51-57a96.59,96.59,0,0,0-56.77-18.45h-97a96.59,96.59,0,0,0-56.78,18.44l-78.51,57a96.59,96.59,0,0,0-35.09,48.29l-30,92.29a96.59,96.59,0,0,0,0,59.7l30,92.3a97.18,97.18,0,0,0,35.09,48.3l78.51,57a96.59,96.59,0,0,0,56.77,18.45h97a96.59,96.59,0,0,0,56.78-18.44l78.51-57A97.16,97.16,0,0,0,2464,515l30-92.29A96.59,96.59,0,0,0,2494,363Z"/><path class="cls-7" d="M584.35,1010.61l-30-92.3A96.59,96.59,0,0,0,519.28,870l-78.51-57A96.59,96.59,0,0,0,384,794.52h-97A96.59,96.59,0,0,0,230.17,813l-78.51,57a96.59,96.59,0,0,0-35.09,48.29l-30,92.29a96.59,96.59,0,0,0,0,59.7l30,92.3a97.18,97.18,0,0,0,35.09,48.3l78.51,57a96.59,96.59,0,0,0,56.77,18.45h97a96.59,96.59,0,0,0,56.78-18.44l78.51-57a97.16,97.16,0,0,0,35.09-48.29l30-92.29A96.59,96.59,0,0,0,584.35,1010.61Z"/><path class="cls-7" d="M1203.9,866a66.92,66.92,0,0,0-88.82-32.67L831.81,964.25a66.92,66.92,0,0,0-32.67,88.82l78.32,169.47a221.48,221.48,0,0,0,125.41,115.71c58.36,21.47,148.67,33.91,182.18,18.42h0c33.51-15.48,82.56-92.33,104-150.69h0a221.49,221.49,0,0,0-6.86-170.49Z"/><path class="cls-7" d="M858.12,223.68c-.38-.4-.8-.76-1.18-1.16s-.75-.8-1.16-1.18C812.15,174.67,737.63,158.9,675,158.51c-62.62.38-137.14,16.16-180.77,62.82-.4.38-.76.8-1.16,1.18s-.8.76-1.18,1.16c-46.66,43.63-62.44,118.15-62.82,180.77.38,62.62,16.16,137.14,62.82,180.77.38.4.8.76,1.18,1.16s.75.8,1.16,1.18C537.87,634.22,612.39,650,675,650.38c62.62-.38,137.14-16.16,180.77-62.82.4-.38.76-.8,1.16-1.18s.8-.76,1.18-1.16c46.66-43.63,62.44-118.15,62.82-180.77C920.56,341.83,904.78,267.31,858.12,223.68Z"/><path class="cls-8" d="M2043.17,953.66l-96.88-83.18a129.68,129.68,0,0,0-127.45-24l-120.48,42.31a130,130,0,0,0-84.48,98.39l-23.6,125.49a130,130,0,0,0,43,122.36l96.88,83.18a129.68,129.68,0,0,0,127.45,24l120.48-42.31a130,130,0,0,0,84.48-98.39l23.6-125.49A130,130,0,0,0,2043.17,953.66Z"/><path class="cls-7" d="M1732.31,444.76l-.08-.16,0-.1,0-.1A545.24,545.24,0,0,0,1580.63,262l-.26-.2-.09-.07-.09-.07-.14-.1c-16.38-12.11-42-20.54-70.19-23.14s-54.92,1-73.24,9.91l-.17.09-.1,0-.1,0a547.16,547.16,0,0,0-180.92,149.58l-1.67,2.14-.11.14-.11.15-.66.91c-13.22,18.13-21.8,42.89-24.17,69.72s1.73,52.71,11.56,72.88l.08.16,0,.1,0,.1.63,1.23a539,539,0,0,0,151,181.3l.13.1.07.06.07.05.14.1c16.39,12.12,42,20.55,70.21,23.15s54.93-1,73.24-9.92l.17-.08.11-.05.11-.05.16-.08A550.53,550.53,0,0,0,1717.68,590l1.13-1.45.09-.11.08-.11.14-.19c13.44-18.19,22.21-43.06,24.69-70S1742.21,465.08,1732.31,444.76Z"/><path class="cls-8" d="M133.48,306,36.61,222.85a129.85,129.85,0,0,0-60.52-29.06,129.85,129.85,0,0,0-66.93,5.09l-120.48,42.31a130,130,0,0,0-84.48,98.39l-23.6,125.49a130,130,0,0,0,43,122.36l96.88,83.18A129.85,129.85,0,0,0-119,699.66a129.85,129.85,0,0,0,66.93-5.09L68.37,652.26a130,130,0,0,0,84.48-98.39l23.6-125.49A130,130,0,0,0,133.48,306Z"/><path class="cls-7" d="M1203.9-429.25A66.48,66.48,0,0,0,1166.25-464a66.48,66.48,0,0,0-51.18,2.06L831.81-331a66.48,66.48,0,0,0-34.73,37.64,66.47,66.47,0,0,0,2.06,51.17L877.45-72.73A221.48,221.48,0,0,0,1002.86,43C1061.22,64.45,1151.54,76.89,1185,61.4h0c33.51-15.48,82.56-92.33,104-150.69h0a221.49,221.49,0,0,0-6.86-170.49Z"/><path class="cls-8" d="M2043.17-341.6l-96.88-83.18a129.85,129.85,0,0,0-60.52-29.06,129.85,129.85,0,0,0-66.93,5.09l-120.48,42.31a130,130,0,0,0-84.48,98.39l-23.6,125.49a130,130,0,0,0,43,122.36L1730.13,23A129.85,129.85,0,0,0,1790.65,52a129.85,129.85,0,0,0,66.93-5.09L1978.05,4.63a130,130,0,0,0,84.48-98.39l23.6-125.49A130,130,0,0,0,2043.17-341.6Z"/></g></g></g></g></g></svg>