<svg width="104px" height="104px" viewBox="-1 -1 104 104" version="1.1" xmlns="http://www.w3.org/2000/svg" xmlns:xlink="http://www.w3.org/1999/xlink">
    <!-- Generator: Sketch 42 (36781) - http://www.bohemiancoding.com/sketch -->
    <desc>Created with Sketch.</desc>
    <defs></defs>
    <g id="logo" stroke="none" stroke-width="1" fill="none" fill-rule="evenodd">
        <path d="M11.9672,91.3998 L11.2002,84.1128 L6.8062,83.6678 L1.0802,102.0488 L19.6442,96.4818 L19.7682,96.3648 L19.3512,92.2498 L11.9672,91.3998 Z M99.9362,16.1818 C103.4862,12.6428 103.4862,6.8918 99.9362,3.3468 C96.3972,-0.1972 90.6482,-0.1972 87.1092,3.3468 L82.1732,8.2908 L95.0112,21.1218 L99.9362,16.1818 Z M96.8032,71.3318 C101.8732,76.3778 103.2722,83.6578 101.0862,89.9798 L100.1182,89.5628 L90.1772,79.6108 L79.6152,90.1708 L89.5552,100.1118 L89.9732,101.0758 C83.6612,103.2668 76.3702,101.8578 71.3312,96.8158 C66.6782,92.1548 65.1112,85.5958 66.6212,79.6438 L51.5522,64.5758 L24.2192,91.9078 L23.8022,87.7938 L16.4202,86.9358 L15.6542,79.6438 L11.2582,79.2038 L38.7192,51.7438 L22.4282,35.4548 C16.4892,36.9538 9.9182,35.3988 5.2752,30.7468 C0.2142,25.6978 -1.1948,18.4118 1.0032,12.1018 L1.9602,12.5168 L11.9012,22.4608 L22.4612,11.9018 L12.5202,1.9588 L12.1042,1.0008 C18.4152,-1.1922 25.7072,0.2138 30.7452,5.2538 C35.4892,9.9938 37.0232,16.7058 35.3772,22.7408 L51.5512,38.9118 L77.3152,13.1478 L90.1982,25.9298 L64.3852,51.7428 L79.3442,66.6998 C85.3732,65.0608 92.0802,66.5878 96.8032,71.3318 L96.8032,71.3318 Z" id="Fill-1" fill-opacity="0.3" fill="#000000" style="mix-blend-mode: multiply;"></path>
        <path d="M6.686,72.2992 L6.816,75.7032 L8.357,75.6442 C9.725,75.5922 10.386,74.9882 10.342,73.8362 C10.322,73.2962 10.123,72.8902 9.746,72.6152 C9.369,72.3412 8.832,72.2172 8.138,72.2432 L6.686,72.2992 Z M6.563,69.0952 L7.882,69.0452 C8.51,69.0212 8.992,68.8732 9.326,68.6012 C9.66,68.3292 9.817,67.9392 9.797,67.4282 C9.762,66.5192 9.057,66.0912 7.682,66.1442 L6.452,66.1912 L6.563,69.0952 Z M1.946,63.0432 L7.6,62.8272 C9.802,62.7422 11.45,63.0072 12.543,63.6202 C13.636,64.2342 14.209,65.2322 14.262,66.6132 C14.297,67.5232 14.094,68.3072 13.653,68.9682 C13.212,69.6292 12.615,70.0672 11.86,70.2802 L11.865,70.3912 C12.879,70.6182 13.624,71.0342 14.099,71.6382 C14.574,72.2412 14.831,73.0382 14.869,74.0282 C14.924,75.5002 14.416,76.6802 13.344,77.5682 C12.272,78.4572 10.782,78.9382 8.874,79.0112 L2.567,79.2522 L1.946,63.0432 Z" id="Fill-4" fill="#FFFFFF"></path>
        <path d="M31.5561,62.1381 L31.7851,71.8991 C31.8341,74.0211 31.2721,75.6781 30.0981,76.8711 C28.9231,78.0641 27.2041,78.6871 24.9421,78.7401 C22.7311,78.7911 21.0191,78.2661 19.8061,77.1621 C18.5921,76.0591 17.9611,74.4461 17.9111,72.3241 L17.6801,62.4631 L22.0841,62.3601 L22.3071,71.8761 C22.3331,73.0231 22.5681,73.8501 23.0081,74.3571 C23.4501,74.8651 24.0871,75.1091 24.9231,75.0891 C25.8181,75.0681 26.4601,74.7961 26.8521,74.2731 C27.2431,73.7491 27.4241,72.9041 27.3971,71.7351 L27.1751,62.2411 L31.5561,62.1381 Z" id="Fill-6" fill="#FFFFFF"></path>
        <polygon id="Fill-8" fill="#FFFFFF" points="35.6381 78.3158 35.4451 62.0968 39.8491 62.0448 40.0421 78.2628"></polygon>
        <polygon id="Fill-10" fill="#FFFFFF" points="43.852 78.224 43.815 62.003 48.197 61.993 48.226 74.674 54.473 74.66 54.481 78.199"></polygon>
        <path d="M66.6772,70.0102 C66.6942,68.5242 66.4122,67.4182 65.8322,66.6952 C65.2522,65.9702 64.3642,65.6022 63.1652,65.5882 L61.8892,65.5742 L61.7882,74.6602 L62.7652,74.6712 C64.0962,74.6862 65.0762,74.3102 65.7062,73.5442 C66.3362,72.7792 66.6592,71.6002 66.6772,70.0102 M71.2282,69.9062 C71.1982,72.6132 70.4292,74.6902 68.9232,76.1382 C67.4162,77.5852 65.3132,78.2942 62.6142,78.2642 L57.3662,78.2052 L57.5462,61.9872 L63.1602,62.0492 C65.7632,62.0772 67.7662,62.7662 69.1672,64.1132 C70.5692,65.4602 71.2562,67.3912 71.2282,69.9062" id="Fill-12" fill="#FFFFFF"></path>
        <polygon id="Fill-14" fill="#FFFFFF" points="83.9565 78.6684 74.3295 78.4344 74.7255 62.2184 84.3525 62.4524 84.2665 65.9684 79.0195 65.8404 78.9575 68.3924 83.8155 68.5104 83.7295 72.0254 78.8725 71.9074 78.7975 74.9694 84.0435 75.0974"></polygon>
        <path d="M91.8071,69.7309 L92.6271,69.7609 C94.1581,69.8189 94.9481,69.1699 94.9981,67.8179 C95.0391,66.7019 94.3101,66.1159 92.8101,66.0599 L91.9451,66.0279 L91.8071,69.7309 Z M91.6851,73.0239 L91.4651,78.9219 L87.0861,78.7589 L87.6891,62.5499 L92.9991,62.7479 C97.4051,62.9119 99.5481,64.5889 99.4291,67.7829 C99.3601,69.6609 98.3891,71.0789 96.5181,72.0379 L100.9781,79.2759 L96.0111,79.0909 L92.7931,73.0649 L91.6851,73.0239 Z" id="Fill-16" fill="#FFFFFF"></path>
        <path d="M17.7934,48.0492 L17.8894,51.4532 L19.4314,51.4092 C20.7994,51.3712 21.4664,50.7752 21.4344,49.6212 C21.4184,49.0822 21.2244,48.6732 20.8494,48.3952 C20.4754,48.1172 19.9404,47.9872 19.2454,48.0072 L17.7934,48.0492 Z M17.7024,44.8442 L19.0224,44.8062 C19.6494,44.7882 20.1334,44.6462 20.4694,44.3772 C20.8064,44.1092 20.9664,43.7192 20.9524,43.2082 C20.9264,42.2992 20.2264,41.8642 18.8514,41.9032 L17.6194,41.9382 L17.7024,44.8442 Z M13.1454,38.7462 L18.8014,38.5862 C21.0044,38.5242 22.6494,38.8042 23.7364,39.4282 C24.8234,40.0522 25.3864,41.0562 25.4254,42.4382 C25.4514,43.3482 25.2404,44.1302 24.7924,44.7872 C24.3454,45.4442 23.7434,45.8752 22.9864,46.0812 L22.9904,46.1922 C24.0034,46.4302 24.7444,46.8532 25.2124,47.4612 C25.6814,48.0702 25.9304,48.8682 25.9574,49.8602 C25.9994,51.3312 25.4804,52.5052 24.3974,53.3832 C23.3164,54.2612 21.8224,54.7272 19.9154,54.7812 L13.6054,54.9602 L13.1454,38.7462 Z" id="Fill-18" fill="#FFFFFF"></path>
        <path d="M37.3452,47.7934 L36.6102,45.1414 C36.4392,44.5514 36.2302,43.7884 35.9842,42.8524 C35.7382,41.9164 35.5752,41.2454 35.4952,40.8404 C35.4342,41.2184 35.3122,41.8414 35.1272,42.7094 C34.9442,43.5764 34.5322,45.2874 33.8952,47.8414 L37.3452,47.7934 Z M39.1462,54.4034 L38.3052,51.3754 L33.0352,51.4484 L32.2562,54.4994 L27.4422,54.5654 L32.5082,38.2074 L38.3542,38.1264 L43.9382,54.3374 L39.1462,54.4034 Z" id="Fill-20" fill="#FFFFFF"></path>
        <path d="M55.2016,46.0473 C55.2036,44.5613 54.9106,43.4583 54.3226,42.7403 C53.7356,42.0233 52.8436,41.6623 51.6446,41.6613 L50.3686,41.6603 L50.3586,50.7463 L51.3356,50.7473 C52.6676,50.7493 53.6436,50.3633 54.2656,49.5913 C54.8886,48.8193 55.1996,47.6383 55.2016,46.0473 M59.7506,45.8973 C59.7476,48.6043 59.0006,50.6893 57.5086,52.1523 C56.0156,53.6153 53.9206,54.3453 51.2216,54.3423 L45.9726,54.3373 L45.9896,38.1163 L51.6036,38.1223 C54.2076,38.1253 56.2176,38.7923 57.6326,40.1253 C59.0476,41.4583 59.7536,43.3823 59.7506,45.8973" id="Fill-22" fill="#FFFFFF"></path>
        <path d="M69.5961,44.9916 L76.5961,45.1046 L76.4551,53.8456 C74.5431,54.4666 72.4501,54.7586 70.1711,54.7206 C67.6721,54.6806 65.7511,53.9256 64.4101,52.4536 C63.0701,50.9816 62.4201,48.9036 62.4641,46.2196 C62.5061,43.6006 63.2851,41.5756 64.8031,40.1426 C66.3211,38.7106 68.4251,38.0156 71.1171,38.0586 C72.1381,38.0756 73.1001,38.1866 74.0021,38.3936 C74.9061,38.6006 75.6911,38.8576 76.3591,39.1646 L74.9171,42.5816 C73.7581,41.9856 72.4801,41.6766 71.0811,41.6536 C69.8021,41.6336 68.8061,42.0326 68.0941,42.8536 C67.3821,43.6746 67.0131,44.8576 66.9891,46.4036 C66.9631,47.9196 67.2611,49.0806 67.8801,49.8856 C68.5001,50.6906 69.4051,51.1026 70.5961,51.1226 C71.2461,51.1326 71.8471,51.0796 72.3961,50.9626 L72.4371,48.4226 L69.5411,48.3756 L69.5961,44.9916 Z" id="Fill-24" fill="#FFFFFF"></path>
        <polygon id="Fill-26" fill="#FFFFFF" points="89.6635 54.9828 80.0375 54.6988 80.5165 38.4848 90.1425 38.7688 90.0385 42.2848 84.7925 42.1298 84.7175 44.6808 89.5745 44.8238 89.4715 48.3388 84.6135 48.1958 84.5225 51.2568 89.7685 51.4118"></polygon>
        <polygon id="Fill-28" fill="#FFFFFF" points="15.9409 27.853 15.9149 26.837 28.5029 26.513 28.5279 27.529"></polygon>
        <polygon id="Fill-30" fill="#FFFFFF" points="40.2924 30.5278 34.8454 30.5948 34.7244 20.8248 40.1704 20.7568 40.1834 21.7658 35.8724 21.8198 35.9114 24.9668 39.9614 24.9178 39.9744 25.9198 35.9244 25.9698 35.9694 29.5648 40.2794 29.5108"></polygon>
        <path d="M48.351,27.8774 C48.356,28.7364 48.047,29.4094 47.426,29.8944 C46.805,30.3784 45.96,30.6234 44.891,30.6294 C43.732,30.6354 42.84,30.4904 42.215,30.1954 L42.209,29.1004 C42.611,29.2674 43.048,29.3984 43.521,29.4934 C43.994,29.5894 44.462,29.6364 44.925,29.6334 C45.683,29.6294 46.252,29.4824 46.634,29.1924 C47.016,28.9034 47.205,28.5024 47.203,27.9904 C47.201,27.6514 47.131,27.3744 46.995,27.1594 C46.857,26.9434 46.628,26.7454 46.309,26.5654 C45.99,26.3844 45.504,26.1794 44.852,25.9504 C43.942,25.6304 43.29,25.2484 42.898,24.8054 C42.505,24.3614 42.308,23.7814 42.304,23.0644 C42.299,22.3114 42.58,21.7104 43.143,21.2624 C43.706,20.8134 44.454,20.5864 45.385,20.5814 C46.356,20.5764 47.25,20.7494 48.068,21.1024 L47.719,22.0924 C46.911,21.7584 46.125,21.5934 45.364,21.5974 C44.762,21.6014 44.292,21.7324 43.955,21.9924 C43.619,22.2524 43.451,22.6124 43.454,23.0714 C43.455,23.4094 43.519,23.6874 43.645,23.9024 C43.771,24.1174 43.983,24.3144 44.28,24.4934 C44.577,24.6724 45.032,24.8694 45.643,25.0844 C46.669,25.4444 47.376,25.8324 47.764,26.2494 C48.152,26.6664 48.348,27.2084 48.351,27.8774" id="Fill-32" fill="#FFFFFF"></path>
        <path d="M54.9604,21.5864 C53.8864,21.5844 53.0384,21.9404 52.4154,22.6534 C51.7924,23.3674 51.4794,24.3464 51.4774,25.5894 C51.4744,26.8684 51.7724,27.8574 52.3694,28.5554 C52.9674,29.2544 53.8204,29.6054 54.9304,29.6074 C55.6114,29.6074 56.3904,29.4874 57.2634,29.2434 L57.2614,30.2394 C56.5834,30.4924 55.7474,30.6174 54.7544,30.6154 C53.3144,30.6124 52.2054,30.1734 51.4254,29.2984 C50.6454,28.4244 50.2574,27.1824 50.2604,25.5734 C50.2624,24.5664 50.4524,23.6854 50.8304,22.9284 C51.2084,22.1714 51.7534,21.5894 52.4654,21.1804 C53.1764,20.7724 54.0134,20.5684 54.9764,20.5704 C56.0004,20.5724 56.8964,20.7624 57.6614,21.1384 L57.1784,22.1124 C56.4394,21.7634 55.6994,21.5884 54.9604,21.5864" id="Fill-34" fill="#FFFFFF"></path>
        <path d="M60.5307,25.6108 C60.5157,26.9338 60.7867,27.9408 61.3427,28.6308 C61.8987,29.3208 62.7147,29.6718 63.7877,29.6828 C64.8707,29.6948 65.6917,29.3638 66.2517,28.6878 C66.8117,28.0118 67.0987,27.0098 67.1137,25.6828 C67.1287,24.3688 66.8637,23.3688 66.3207,22.6828 C65.7777,21.9978 64.9677,21.6488 63.8887,21.6368 C62.8067,21.6258 61.9797,21.9588 61.4087,22.6358 C60.8377,23.3138 60.5457,24.3048 60.5307,25.6108 M68.3167,25.6958 C68.2997,27.2598 67.8897,28.4848 67.0897,29.3718 C66.2887,30.2588 65.1847,30.6948 63.7767,30.6788 C62.3377,30.6638 61.2317,30.2118 60.4607,29.3228 C59.6877,28.4338 59.3097,27.1878 59.3277,25.5848 C59.3447,23.9938 59.7507,22.7648 60.5447,21.8978 C61.3387,21.0308 62.4577,20.6058 63.9007,20.6218 C65.3037,20.6368 66.3947,21.0938 67.1747,21.9938 C67.9527,22.8938 68.3337,24.1278 68.3167,25.6958" id="Fill-36" fill="#FFFFFF"></path>
        <polygon id="Fill-38" fill="#FFFFFF" points="74.0678 27.5258 74.0938 26.5098 86.6818 26.8348 86.6558 27.8498"></polygon>
    </g>
</svg>
