<svg xmlns="http://www.w3.org/2000/svg" viewBox="0 0 81.3 81.3"><defs><style>.cls-1{fill:#c3cfdf;}</style></defs><title>Asset 1</title><g id="Layer_2" data-name="Layer 2"><g id="Layer_1-2" data-name="Layer 1"><path class="cls-1" d="M29.7,64.7A4.71,4.71,0,0,0,31.1,68l6.2,5.6a25.36,25.36,0,0,0,18.2,7.7,25.74,25.74,0,0,0,18.2-44l-5.9-5.9A4.67,4.67,0,1,0,61.2,38l5.9,5.9A16.5,16.5,0,0,1,55.4,72.1a16.49,16.49,0,0,1-11.7-4.8l-5.9-5.9a4.59,4.59,0,0,0-6.6,0A4.27,4.27,0,0,0,29.7,64.7Z"/><path class="cls-1" d="M43.3,20a4.59,4.59,0,0,0,6.6,0,4.59,4.59,0,0,0,0-6.5L44,7.6A25.26,25.26,0,0,0,25.8,0,25.67,25.67,0,0,0,7.6,43.9l5.9,5.9a4.53,4.53,0,0,0,6.6,0,4.59,4.59,0,0,0,0-6.6l-5.9-5.9A16.32,16.32,0,0,1,9.4,25.6,16.39,16.39,0,0,1,25.9,9.1a16.49,16.49,0,0,1,11.7,4.8Z"/><path class="cls-1" d="M25.9,30.6a4.71,4.71,0,0,0,1.4,3.3L47.2,53.7a4.53,4.53,0,0,0,6.6,0,4.59,4.59,0,0,0,0-6.5L33.9,27.4a4.59,4.59,0,0,0-6.6,0,5.48,5.48,0,0,0-1.4,3.2Z"/></g></g></svg>