<svg xmlns="http://www.w3.org/2000/svg" xmlns:xlink="http://www.w3.org/1999/xlink" version="1.1" x="0px" y="0px" viewBox="0 0 100 100" enable-background="new 0 0 100 100" xml:space="preserve"><g><path d="M40.169,32.555c4.213,0,7.631-4.885,7.631-9.099s-3.42-7.63-7.631-7.63c-4.216,0-7.631,3.417-7.631,7.63   C32.539,27.67,35.951,32.555,40.169,32.555z"></path><path d="M55.102,37.858c-0.051-0.213-0.098-0.43-0.197-0.624c-0.085-0.164-0.202-0.289-0.312-0.431   c-0.129-0.168-0.249-0.333-0.406-0.479c-0.15-0.123-0.32-0.203-0.488-0.293c-0.151-0.084-0.264-0.202-0.428-0.263   c-0.277-0.097-6.353-2.275-11.929-2.563l-0.772,1.537h-0.017l2.027,15.825l-2.414,4.217l-2.412-4.217l2.028-15.826h-0.02   l-0.77-1.537c-5.577,0.289-11.653,2.467-11.923,2.564c-0.168,0.063-0.296,0.187-0.449,0.271c-0.158,0.095-0.32,0.165-0.465,0.28   c-0.168,0.15-0.291,0.327-0.422,0.499c-0.1,0.135-0.222,0.255-0.297,0.411c-0.105,0.202-0.155,0.422-0.208,0.643   c-0.036,0.137-0.115,0.255-0.128,0.402l-2.413,21.726c-0.185,1.657,1.008,3.146,2.664,3.329c0.113,0.013,0.229,0.022,0.339,0.022   c1.517,0,2.817-1.147,2.994-2.69l2.2-19.791c0.256-0.073,0.535-0.158,0.835-0.244v20.599l-2.4,29.866   c-0.16,1.989,1.323,3.74,3.318,3.899c0.099,0.008,0.196,0.01,0.296,0.01c1.862,0,3.449-1.437,3.604-3.327l2.173-26.991   c0.441,0.199,0.937,0.311,1.457,0.311c0.521,0,1.02-0.111,1.461-0.311L43.8,91.673C43.955,93.562,45.538,95,47.405,95   c0.099,0,0.196-0.002,0.296-0.01c1.993-0.159,3.476-1.91,3.319-3.899l-2.4-29.866V40.628c0.299,0.086,0.578,0.168,0.835,0.244   l2.199,19.791c0.173,1.544,1.478,2.689,2.997,2.689c0.107,0,0.225-0.007,0.338-0.021c1.653-0.186,2.847-1.674,2.664-3.33   l-2.416-21.725C55.227,38.125,55.146,38.004,55.102,37.858z"></path><path d="M74.444,5H53.699c-1.587,0-2.891,1.304-2.891,2.891v11.942c0,1.589,1.301,2.89,2.891,2.89h1.418l-4.024,6.096l11.449-6.096   h11.902c1.588,0,2.889-1.301,2.889-2.89V7.888C77.333,6.3,76.032,5,74.444,5z M58.704,15.826c-0.906,0-1.643-0.736-1.643-1.642   c0-0.907,0.736-1.642,1.643-1.642c0.908,0,1.642,0.735,1.642,1.642C60.346,15.089,59.612,15.826,58.704,15.826z M64.07,15.826   c-0.908,0-1.642-0.736-1.642-1.642c0-0.907,0.733-1.642,1.642-1.642c0.905,0,1.642,0.735,1.642,1.642   C65.712,15.089,64.976,15.826,64.07,15.826z M69.432,15.826c-0.905,0-1.642-0.736-1.642-1.642c0-0.907,0.736-1.642,1.642-1.642   c0.908,0,1.642,0.735,1.642,1.642C71.073,15.089,70.34,15.826,69.432,15.826z"></path></g></svg>