<svg xmlns="http://www.w3.org/2000/svg" xmlns:xlink="http://www.w3.org/1999/xlink" version="1.1" x="0px" y="0px" viewBox="0 0 213.064 245.443" style="enable-background:new 0 0 213.064 245.443;" xml:space="preserve"><g><path d="M54.402,199.828h12.009c1.104,0,2-0.895,2-2v-43.955c0-1.104-0.896-2-2-2H51.725c1.899,9.172,3.389,20.352,3.404,32.922   C55.13,189.846,54.881,194.859,54.402,199.828z"></path><path d="M21.973,151.873H2c-1.105,0-2,0.896-2,2v43.955c0,1.105,0.896,2,2,2h23.233c0.59-4.952,0.894-9.967,0.895-15.031   C26.146,171.56,24.084,160.115,21.973,151.873z"></path><path d="M149.839,238.837c2.198,4.117,6.482,6.604,11.016,6.605c1.441,0,2.907-0.251,4.339-0.781   c2.841-1.053,5.07-3.028,6.477-5.461C164.931,239.405,157.564,239.346,149.839,238.837z"></path><path d="M187.267,94.451c-4.676-16.946-11.669-26.902-20.703-38.871c-11.278-1.833-17.548,1.557-19.711,3.25   c-2.233,1.748-15.172,14.065-16.15,40.099c-2.256,2.592-4.806,5.043-7.725,7.225c-5.866,4.369-13.147,7.782-22.679,9.3   c3.055,1.992,4.918,5.587,4.499,9.458c-0.291,2.663-1.607,4.977-3.523,6.582c12.551-1.732,22.858-6.299,30.956-12.29   c0.325,1.835,0.684,3.698,1.122,5.626c10,44-4.834,51.832-4.834,108.834c0.763,0.12,1.525,0.234,2.286,0.345   c36.367,5.296,69.777,0.005,77.413-1.37c1.065-0.192,1.635-0.309,1.635-0.309s10.166-47.825-5.679-109.647   C202.633,128.615,191.924,111.334,187.267,94.451z M173.82,148.905c-1.747,3.243-5.121,5.257-8.809,5.257   c-1.643,0-3.282-0.411-4.735-1.194c-4.854-2.62-6.677-8.697-4.063-13.552c5.704-10.607,8.483-20.476,8.496-30.164   c-0.002-8.447-2.199-16.405-6.534-23.648c-3.254-5.443-6.657-8.507-6.689-8.538c-1.999-1.708-3.23-4.132-3.438-6.795   c-0.209-2.664,0.635-5.247,2.37-7.276c1.904-2.224,4.676-3.5,7.604-3.5c2.381,0,4.688,0.854,6.498,2.402   c1.3,1.134,5.812,5.331,10.349,12.667c4.492,7.248,9.847,19.152,9.838,34.689C184.724,122.148,181.061,135.488,173.82,148.905z"></path><ellipse transform="matrix(0.2268 -0.9739 0.9739 0.2268 11.6674 79.5729)" cx="55.95" cy="32.438" rx="22.493" ry="22.495"></ellipse><path d="M25.626,77.412l-0.007-0.03l-0.024-0.113c-0.547-2.615-0.04-5.286,1.426-7.519c1.465-2.235,3.711-3.765,6.326-4.307   c0.675-0.141,1.363-0.211,2.047-0.211c4.696,0,8.808,3.341,9.776,7.944l0.025,0.1c0.064,0.271,0.154,0.603,0.28,1.047   c0.257,0.882,0.709,2.31,1.399,4.051c1.263,3.203,3.556,8.074,7.32,13.112c0.506,0.668,1.029,1.312,1.556,1.95   c-1.705-10.245-4.204-20.991-6.688-27.282c-1.602-4.712-4.733-8.434-9.148-9.534c-8.537-2.129-20.912,2.508-25.947,17.15   c-6.805,20.174-8.268,33.305-5.682,55.52c1.85,9.517,6.461,13.983,11.814,16.023c0.763,0.29,1.541,0.529,2.327,0.729   c2.547,8.388,5.723,22.193,5.7,38.756c-0.002,13.219-1.978,28.172-7.766,43.801c-2.394,6.473,0.908,13.666,7.382,16.063   c1.431,0.531,2.897,0.781,4.34,0.781c5.08,0,9.857-3.119,11.726-8.162c6.954-18.783,9.321-36.777,9.319-52.482   c-0.031-25.05-5.913-44.316-9.091-52.939c-0.286-2.14-0.462-4.324-0.544-6.535c-0.182-4.878,0.099-9.887,0.63-14.846   c-2.444-2.533-4.42-4.945-5.961-7.035C29.339,91.58,26.335,80.519,25.626,77.412z"></path><path d="M163.219,63.418c-3.357-2.874-8.408-2.479-11.28,0.877c-2.872,3.357-2.479,8.407,0.879,11.281l-0.002-0.002   c0.38,0.338,3.792,3.512,7.077,9.003c3.473,5.808,6.813,14.058,6.816,24.677c-0.011,8.6-2.167,18.896-8.733,31.112   c-2.097,3.891-0.643,8.742,3.248,10.839c1.207,0.65,2.507,0.959,3.788,0.959c2.847,0,5.604-1.524,7.049-4.208   c7.689-14.25,10.661-27.347,10.647-38.702c0.005-14.517-4.78-25.953-9.54-33.638C168.398,67.908,163.658,63.801,163.219,63.418z"></path><path d="M159.098,5.568c-8.015-5.534-16.69-7.256-28.122-3.738c-13.322,4.099-15.553,15.922-15.925,20.051   C121.675,17.637,138.75,7.884,159.098,5.568z"></path><path d="M51.745,123.483c0.851-1.403,1.67-2.836,2.474-4.284c-1.946-1.398-3.736-2.824-5.378-4.249   C49.901,117.718,50.874,120.563,51.745,123.483z"></path><path d="M102.809,124.695c0.477-4.394-2.695-8.342-7.087-8.818c-22.992-2.587-35.51-13.14-43.128-23.193   c-3.761-5.033-6.155-9.966-7.577-13.571c-0.713-1.799-1.181-3.268-1.462-4.239c-0.141-0.487-0.235-0.85-0.288-1.067   c-0.028-0.109-0.045-0.181-0.052-0.218l-0.001,0c-0.907-4.318-5.14-7.088-9.459-6.188c-4.326,0.901-7.103,5.138-6.201,9.462h-0.002   c0.167,0.705,2.643,12.517,12.221,25.392c9.489,12.869,26.709,26.613,54.217,29.526c0.293,0.032,0.584,0.048,0.872,0.048   C98.894,131.828,102.362,128.792,102.809,124.695z"></path><path d="M138.121,29.075c9.499,3.277,19.459,8.13,24.605,15.004c11.609,15.514,20.748,27.059,26.25,47   c3.71,13.45,11.646,27.09,15.333,28.468c1.779,0.665,2.569-1.522,1.417-7.968c-3.545-19.805-5.334-56.479-22.75-79.751   c-7.382-9.862-13.762-18.001-20.395-23.584c-19.65,1.395-36.946,10.604-44.569,15.314c-0.89,0.548-1.631,1.025-2.243,1.427   c-1.374,3.901-1.695,8.226-0.688,12.553c2.818,12.1,14.91,19.625,27.01,16.807c6.451-1.502,11.601-5.642,14.577-11.012   c-5.206-4.98-12.193-9.321-18.924-12.811L138.121,29.075z"></path></g></svg>