<svg xmlns:dc="http://purl.org/dc/elements/1.1/" xmlns:cc="http://creativecommons.org/ns#" xmlns:rdf="http://www.w3.org/1999/02/22-rdf-syntax-ns#" xmlns:svg="http://www.w3.org/2000/svg" xmlns="http://www.w3.org/2000/svg" xmlns:sodipodi="http://sodipodi.sourceforge.net/DTD/sodipodi-0.dtd" xmlns:inkscape="http://www.inkscape.org/namespaces/inkscape" version="1.1" x="0px" y="0px" viewBox="0 0 100 100"><g transform="translate(0,-952.36218)"><path style="font-size:medium;font-style:normal;font-variant:normal;font-weight:normal;font-stretch:normal;text-indent:0;text-align:start;text-decoration:none;line-height:normal;letter-spacing:normal;word-spacing:normal;text-transform:none;direction:ltr;block-progression:tb;writing-mode:lr-tb;text-anchor:start;baseline-shift:baseline;opacity:1;color:#000000;fill:#000000;fill-opacity:1;stroke:none;stroke-width:8.94736958000000020;marker:none;visibility:visible;display:inline;overflow:visible;enable-background:accumulate;font-family:Sans;-inkscape-font-specification:Sans" d="M 50 14 C 46.70998 14 44 16.70998 44 20 C 44 22.590258 45.679863 24.824515 48 25.65625 L 48 29.125 C 41.848294 29.706156 36.485298 32.944232 33.03125 37.6875 L 29.9375 35.8125 C 29.973906 35.54762 30 35.274168 30 35 C 30 31.70998 27.290019 29 24 29 C 20.70998 29 18 31.70998 18 35 C 18 38.29002 20.70998 41 24 41 C 25.58174 41 27.016838 40.359826 28.09375 39.34375 L 31 41.09375 C 29.723645 43.80212 29 46.814012 29 50 C 29 53.175978 29.731177 56.17317 31 58.875 L 28.0625 60.625 C 26.98904 59.626822 25.565923 59 24 59 C 20.70998 59 18 61.71 18 65 C 18 68.29 20.70998 71 24 71 C 27.290019 71 30 68.29 30 65 C 30 64.714718 29.976864 64.431421 29.9375 64.15625 L 33.03125 62.28125 C 36.484699 67.035443 41.839602 70.293023 48 70.875 L 48 74.34375 C 45.679863 75.17549 44 77.409758 44 80 C 44 83.29 46.70998 86 50 86 C 53.290019 86 56 83.29 56 80 C 56 77.409758 54.320137 75.17549 52 74.34375 L 52 70.875 C 58.160399 70.293023 63.515301 67.035443 66.96875 62.28125 L 70.0625 64.15625 C 70.023136 64.431421 70 64.714718 70 65 C 70 68.29 72.709981 71 76 71 C 79.29002 71 82 68.29 82 65 C 82 61.71 79.29002 59 76 59 C 74.434077 59 73.01096 59.626822 71.9375 60.625 L 69 58.875 C 70.268823 56.17317 71 53.175978 71 50 C 71 46.814012 70.276355 43.80212 69 41.09375 L 71.90625 39.34375 C 72.983162 40.359826 74.41826 41 76 41 C 79.29002 41 82 38.29002 82 35 C 82 31.70998 79.29002 29 76 29 C 72.709981 29 70 31.70998 70 35 C 70 35.274168 70.026094 35.54762 70.0625 35.8125 L 66.96875 37.6875 C 63.514702 32.944232 58.151706 29.706156 52 29.125 L 52 25.65625 C 54.320137 24.824515 56 22.590258 56 20 C 56 16.70998 53.290019 14 50 14 z M 50 18 C 51.12826 18 52 18.87174 52 20 C 52 21.12826 51.12826 22 50 22 C 48.87174 22 48 21.12826 48 20 C 48 18.87174 48.87174 18 50 18 z M 24 33 C 25.12826 33 26 33.87174 26 35 C 26 36.12826 25.12826 37 24 37 C 22.87174 37 22 36.12826 22 35 C 22 33.87174 22.87174 33 24 33 z M 76 33 C 77.12826 33 78 33.87174 78 35 C 78 36.12826 77.12826 37 76 37 C 74.87174 37 74 36.12826 74 35 C 74 33.87174 74.87174 33 76 33 z M 42.90625 34.5625 C 42.526629 35.138014 42.16383 35.734841 41.84375 36.375 C 40.266811 39.528877 39.29107 43.552768 39.0625 48 L 33.125 48 C 33.822618 41.991941 37.629878 36.981903 42.90625 34.5625 z M 57.09375 34.5625 C 62.370123 36.981903 66.177382 41.991941 66.875 48 L 60.9375 48 C 60.70893 43.552768 59.733189 39.528877 58.15625 36.375 C 57.83617 35.734841 57.473371 35.138014 57.09375 34.5625 z M 48 34.8125 L 48 48 L 43.0625 48 C 43.296715 44.101237 44.198508 40.634234 45.4375 38.15625 C 46.24014 36.550969 47.132037 35.476771 48 34.8125 z M 52 34.8125 C 52.867963 35.476771 53.75986 36.550969 54.5625 38.15625 C 55.801492 40.634234 56.703285 44.101237 56.9375 48 L 52 48 L 52 34.8125 z M 33.125 52 L 39.0625 52 C 39.29107 56.447232 40.266811 60.47114 41.84375 63.625 C 42.16383 64.265156 42.526629 64.861987 42.90625 65.4375 C 37.629878 63.018094 33.822618 58.008033 33.125 52 z M 43.0625 52 L 48 52 L 48 65.1875 C 47.132037 64.523216 46.24014 63.449031 45.4375 61.84375 C 44.198508 59.365766 43.296715 55.898723 43.0625 52 z M 52 52 L 56.9375 52 C 56.703285 55.898723 55.801492 59.365766 54.5625 61.84375 C 53.75986 63.449031 52.867963 64.523216 52 65.1875 L 52 52 z M 60.9375 52 L 66.875 52 C 66.177382 58.008033 62.370123 63.018094 57.09375 65.4375 C 57.473371 64.861987 57.83617 64.265156 58.15625 63.625 C 59.733189 60.47114 60.70893 56.447232 60.9375 52 z M 24 63 C 25.12826 63 26 63.8717 26 65 C 26 66.1283 25.12826 67 24 67 C 22.87174 67 22 66.1283 22 65 C 22 63.8717 22.87174 63 24 63 z M 76 63 C 77.12826 63 78 63.8717 78 65 C 78 66.1283 77.12826 67 76 67 C 74.87174 67 74 66.1283 74 65 C 74 63.8717 74.87174 63 76 63 z M 50 78 C 51.12826 78 52 78.8717 52 80 C 52 81.1283 51.12826 82 50 82 C 48.87174 82 48 81.1283 48 80 C 48 78.8717 48.87174 78 50 78 z " transform="translate(0,952.36218)"></path></g></svg>