<svg xmlns="http://www.w3.org/2000/svg" xmlns:xlink="http://www.w3.org/1999/xlink" version="1.1" x="0px" y="0px" viewBox="0 0 100 100" enable-background="new 0 0 100 100" xml:space="preserve"><g><path d="M50.657,48.582c6.103,0,11.063,4.955,11.063,11.062c0,6.109-4.958,11.046-11.063,11.046   c-6.096,0-11.045-4.938-11.045-11.046S44.561,48.582,50.657,48.582z"></path><path d="M50.647,30.692c-16.199,0-29.379,13.196-29.379,29.417c0,1.118,0.906,2.022,2.024,2.022c1.118,0,2.023-0.904,2.023-2.022   c0-2.753,0.454-5.399,1.269-7.886l6.766,2.555c0.119,0.043,0.239,0.065,0.358,0.065c0.409,0,0.795-0.249,0.947-0.653   c0.198-0.524-0.067-1.107-0.589-1.305l-6.787-2.562c1.571-3.749,4.02-7.037,7.083-9.621l4.322,5.562   c0.2,0.257,0.499,0.392,0.798,0.392c0.218,0,0.437-0.07,0.621-0.214c0.441-0.342,0.522-0.979,0.178-1.419l-4.316-5.552   c3.828-2.739,8.441-4.424,13.433-4.67v6.747c0,0.56,0.452,1.012,1.012,1.012c0.559,0,1.012-0.453,1.012-1.012v-6.77   c5.213,0.158,10.028,1.889,13.995,4.743l-4.354,5.51c-0.347,0.439-0.271,1.075,0.166,1.423c0.187,0.146,0.407,0.218,0.628,0.218   c0.299,0,0.596-0.132,0.794-0.384l4.371-5.527c2.64,2.238,4.804,5.009,6.353,8.142l-6.391,2.958   c-0.508,0.235-0.728,0.836-0.494,1.344c0.172,0.369,0.538,0.587,0.919,0.587c0.142,0,0.286-0.03,0.424-0.094l6.373-2.95   c1.159,2.898,1.814,6.054,1.814,9.36c0,1.118,0.904,2.022,2.023,2.022c1.118,0,2.022-0.904,2.022-2.022   C80.065,43.888,66.868,30.692,50.647,30.692z"></path><path d="M34.576,99.025l0.002-10.47h2.672v10.47h26.816v-10.47h2.665l0.006,10.47h9.076v-13.71c0-7.458-5.345-11.685-12.65-11.685   H38.157c-7.312,0-12.648,4.227-12.648,11.685v13.71H34.576z"></path></g><g><path d="M47.339,9.188c1.077,0,1.949,0.874,1.949,1.947c0,1.078-0.872,1.947-1.949,1.947c-1.071,0-1.94-0.869-1.94-1.947   C45.398,10.062,46.268,9.188,47.339,9.188z"></path><path d="M53.005,9.188c1.079,0,1.948,0.874,1.948,1.947c0,1.078-0.869,1.947-1.948,1.947c-1.073,0-1.94-0.869-1.94-1.947   C51.064,10.062,51.932,9.188,53.005,9.188z"></path><path d="M81.242,21.022c1.074,0,1.947,0.871,1.947,1.944c0,1.077-0.873,1.947-1.947,1.947c-1.073,0-1.945-0.87-1.945-1.947   C79.297,21.894,80.169,21.022,81.242,21.022z"></path><path d="M86.906,21.022c1.076,0,1.948,0.871,1.948,1.944c0,1.077-0.872,1.947-1.948,1.947c-1.074,0-1.942-0.87-1.942-1.947   C84.964,21.894,85.832,21.022,86.906,21.022z"></path><path d="M13.913,21.022c1.073,0,1.946,0.871,1.946,1.944c0,1.077-0.873,1.947-1.946,1.947c-1.075,0-1.947-0.87-1.947-1.947   C11.966,21.894,12.837,21.022,13.913,21.022z"></path><path d="M19.574,21.022c1.075,0,1.947,0.871,1.947,1.944c0,1.077-0.872,1.947-1.947,1.947s-1.945-0.87-1.945-1.947   C17.629,21.894,18.499,21.022,19.574,21.022z"></path><path d="M84.072,39.202c-6.876,0-12.471-5.597-12.471-12.474c0-6.878,5.595-12.475,12.471-12.475   c6.879,0,12.476,5.597,12.476,12.475C96.548,33.605,90.951,39.202,84.072,39.202L84.072,39.202z M84.072,17.222   c-5.239,0-9.502,4.265-9.502,9.506s4.263,9.505,9.502,9.505c5.243,0,9.507-4.264,9.507-9.505S89.315,17.222,84.072,17.222   L84.072,17.222z"></path><path d="M84.074,33.048c-3.484,0-6.32-2.836-6.32-6.32h2.15c0,2.298,1.871,4.17,4.17,4.17c2.302,0,4.173-1.872,4.173-4.17h2.15   C90.397,30.212,87.562,33.048,84.074,33.048L84.074,33.048z"></path><path d="M16.742,39.202c-6.877,0-12.472-5.597-12.472-12.474c0-6.878,5.595-12.475,12.472-12.475   c6.879,0,12.476,5.597,12.476,12.475C29.218,33.605,23.622,39.202,16.742,39.202L16.742,39.202z M16.742,17.222   c-5.241,0-9.504,4.265-9.504,9.506s4.263,9.505,9.504,9.505c5.243,0,9.508-4.264,9.508-9.505S21.985,17.222,16.742,17.222   L16.742,17.222z"></path><path d="M23.064,32.127h-2.15c0-1.65-1.872-2.994-4.17-2.994c-2.261,0-4.172,1.371-4.172,2.994h-2.15   c0-2.836,2.836-5.145,6.322-5.145C20.228,26.982,23.064,29.291,23.064,32.127L23.064,32.127z"></path><path d="M50.171,26.475c-6.875,0-12.47-5.597-12.47-12.476c0-6.877,5.595-12.472,12.47-12.472c6.879,0,12.478,5.595,12.478,12.472   C62.648,20.878,57.05,26.475,50.171,26.475L50.171,26.475z M50.171,4.495c-5.239,0-9.502,4.263-9.502,9.504   c0,5.243,4.263,9.508,9.502,9.508c5.243,0,9.51-4.265,9.51-9.508C59.681,8.758,55.414,4.495,50.171,4.495L50.171,4.495z"></path><polygon points="53.368,18.645 47.181,18.645 47.181,16.494 53.368,16.494 53.368,18.645  "></polygon></g></svg>