<svg xmlns="http://www.w3.org/2000/svg" xmlns:xlink="http://www.w3.org/1999/xlink" version="1.1" x="0px" y="0px" viewBox="0 0 181.288 226.183" style="enable-background:new 0 0 181.288 226.183;" xml:space="preserve"><g><ellipse transform="matrix(0.2268 -0.9739 0.9739 0.2268 48.1736 105.6796)" cx="90.644" cy="22.5" rx="22.495" ry="22.495"></ellipse><path d="M177.993,39.547c-3.573-2.599-8.577-1.81-11.173,1.764c-6.234,8.565-12.126,13.695-17.316,16.68   c-5.204,2.975-9.717,3.917-13.819,3.934c-5.598,0.013-10.593-1.938-14.213-4.004c-1.802-1.025-3.232-2.058-4.168-2.799   c-0.467-0.369-0.81-0.665-1.017-0.847c-0.103-0.092-0.171-0.153-0.2-0.184c-0.005-0.004-0.008-0.007-0.011-0.01   c-0.005-0.005-0.008-0.008-0.01-0.009h-0.001c-1.211-1.173-2.699-1.883-4.248-2.14c-0.595-0.146-1.213-0.233-1.854-0.233H71.326   c-0.641,0-1.259,0.087-1.854,0.233c-1.548,0.257-3.036,0.967-4.247,2.14h0c-0.003,0.001-0.01,0.009-0.022,0.021   c-0.004,0.004-0.009,0.008-0.014,0.013c0,0,0,0,0,0.001l0.001,0.001c0,0-0.001,0-0.001,0.001v-0.002   c-0.133,0.124-0.634,0.58-1.48,1.231c-3.015,2.364-10.007,6.65-18.106,6.586c-4.102-0.017-8.615-0.959-13.819-3.934   c-5.187-2.984-11.082-8.114-17.313-16.68c-2.599-3.573-7.603-4.362-11.174-1.764c-3.573,2.599-4.364,7.603-1.763,11.176   c7.253,9.976,14.74,16.8,22.27,21.134c7.483,4.324,14.994,6.067,21.713,6.067c0.029,0,0.057,0,0.086,0   c7.078-0.01,13.172-1.816,17.998-3.997v34.954v18.939v86c0,6.829,5.535,12.363,12.363,12.363c6.828,0,12.363-5.534,12.363-12.363   v-78.272h4.637v78.272c0,6.829,5.535,12.363,12.363,12.363c6.828,0,12.363-5.534,12.363-12.363v-86V108.88V73.927   c4.826,2.18,10.918,3.986,17.996,3.996c0.028,0,0.058,0,0.086,0c6.72,0.001,14.23-1.743,21.713-6.067   c7.53-4.334,15.018-11.158,22.274-21.136C182.355,47.147,181.566,42.145,177.993,39.547z"></path></g></svg>