<svg xmlns="http://www.w3.org/2000/svg" xmlns:xlink="http://www.w3.org/1999/xlink" xmlns:a="http://ns.adobe.com/AdobeSVGViewerExtensions/3.0/" version="1.1" x="0px" y="0px" viewBox="-11.8 -7.1 100 100" enable-background="new -11.8 -7.1 100 100" xml:space="preserve"><path d="M11.6,42.2c0-11.1,8.6-20.3,20.2-22.6v-1.8C13.8,19.8,0,30.2,0,42.8c0,12.5,13.8,22.9,31.8,25v-2.9  C20.3,62.5,11.6,53.3,11.6,42.2z"></path><path d="M76.4,42.8c0-13.1-15-23.9-34.2-25.2l0,1.8c12,2,21,11.4,21,22.8c0,11.3-8.9,20.6-20.8,22.7l0,3  C61.5,66.5,76.4,55.8,76.4,42.8z"></path><path d="M42.2,19.5l0-1.8l-0.1-9.8c0,0-0.6-3.1,3.3-3.1h12L57.3,0h-41v4.5h13.4c0,0,2.2,0.7,2,3.1l0,10.2v1.8l0,45.2v2.9l0,6.9  c0,0,0.7,5.4-3.2,5.8H16.4v4.5h41v-4.3l-11,0c0,0-4.1,0.8-3.9-6l0-6.7l0-3L42.2,19.5z"></path></svg>