<svg xmlns="http://www.w3.org/2000/svg" data-name="Layer 1" viewBox="0 0 100 100" x="0px" y="0px"><title>Artboard 1</title><path d="M31.12,87.91A44.23,44.23,0,0,0,61,76.37a2.57,2.57,0,0,0-.49-4.1A54.4,54.4,0,0,0,45.9,66.74a.21.21,0,0,1-.16-.21v-3a23.21,23.21,0,0,0,3.88-7.69c2-2,2.89-5.11,3.36-6.8.78-2.74,1.56-6.71-.59-9.55l-.09-.12c1-5,2.32-16.75-6.62-22.71a5.51,5.51,0,0,0,1.58-4,.53.53,0,0,0-.19-.37.56.56,0,0,0-.4-.12c-.11,0-11.3,1.27-16.68.16s-11.6,3.05-12.85,7.35a8.11,8.11,0,0,0-5.3,3c-2.44,3-3.19,7.8-2.22,14.23.06.83.17,1.64.31,2.48l-.1.12C7.7,42.29,8.48,46.27,9.26,49c.48,1.69,1.36,4.82,3.36,6.79a23.31,23.31,0,0,0,3.89,7.75v3a.21.21,0,0,1-.16.21A54.41,54.41,0,0,0,1.76,72.26a2.57,2.57,0,0,0-.49,4.1A44.23,44.23,0,0,0,31.12,87.91Zm0-10.37a14.67,14.67,0,0,1-12-6,5.73,5.73,0,0,0,2.62-3.11,18.62,18.62,0,0,0,4,2,16.18,16.18,0,0,0,10.79,0,19,19,0,0,0,4-2,5.72,5.72,0,0,0,2.63,3.15A14.67,14.67,0,0,1,31.12,77.54ZM14.05,47.65c-1-3.48-.57-4.74-.23-5.18a1.14,1.14,0,0,1,1-.42H15a.53.53,0,0,0,.56-.49c0-.08.62-7.57,5.06-10.27,2.22-1.35,5.07-1.3,8.47.15,7,3,12.14,2.78,15.29,2.08,3.6,2.65,2.56,6.9,2.32,7.72l0,.1a.53.53,0,0,0,.08.5.53.53,0,0,0,.47.2,1.27,1.27,0,0,1,1.19.41c.33.44.75,1.7-.23,5.18-1.26,4.46-2.29,4.88-2.57,4.9a.52.52,0,0,0-.48.45c-.73,4.75-4.51,10.65-10.31,12.74a11.12,11.12,0,0,1-7.44,0c-6-2.13-9.56-8.1-10.28-12.76a.53.53,0,0,0-.48-.45C16.34,52.53,15.31,52.1,14.05,47.65Zm85.48-6.71A19.29,19.29,0,0,1,80.26,61H63.37A2.39,2.39,0,0,1,61,58.58V41.69a19.29,19.29,0,0,1,38.56-.75Z"></path></svg>