<svg xmlns="http://www.w3.org/2000/svg" xmlns:xlink="http://www.w3.org/1999/xlink" version="1.1" x="0px" y="0px" viewBox="0 0 64 64" style="enable-background:new 0 0 64 64;" xml:space="preserve"><path d="M16,26v10H9c-0.553,0-1,0.447-1,1v4h2v-3h6v3h2v-3h6v3h2v-4c0-0.553-0.447-1-1-1h-7V26h14h2v-2h-2V2h2V0h-2H2H0v2h2v22H0v2  h2H16z M4,2h26v22H4V2z"></path><path d="M6,50c0,3.309,2.691,6,6,6c3.309,0,6-2.691,6-6s-2.691-6-6-6C8.691,44,6,46.691,6,50z M16,50c0,2.206-1.794,4-4,4  c-2.206,0-4-1.794-4-4s1.794-4,4-4C14.206,46,16,47.794,16,50z"></path><path d="M28,50c0,3.309,2.691,6,6,6c3.309,0,6-2.691,6-6s-2.691-6-6-6C30.691,44,28,46.691,28,50z M38,50c0,2.206-1.794,4-4,4  c-2.206,0-4-1.794-4-4s1.794-4,4-4C36.206,46,38,47.794,38,50z"></path><path d="M41.707,58.293C41.519,58.105,41.266,58,41,58H27c-0.266,0-0.52,0.105-0.707,0.293L23,61.586l-3.293-3.293  C19.519,58.105,19.266,58,19,58H5c-0.266,0-0.52,0.105-0.707,0.293l-4,4C0.105,62.48,0,62.734,0,63v1h2v-0.586L5.414,60h13.172  L22,63.414V64h2v-0.586L27.414,60h13.172L44,63.414V64h2v-1c0-0.266-0.106-0.52-0.293-0.707L41.707,58.293z"></path><path d="M59,15h-1h-1v-1.021c1.246-0.939,2-2.416,2-3.979V9h1V7h-2c-0.553,0-1,0.447-1,1v2c0,1.068-0.562,2.033-1.503,2.581  C55.189,12.761,55,13.09,55,13.445v2.141l-1,1l-1-1v-2.141c0-0.356-0.19-0.685-0.497-0.864C51.561,12.033,51,11.068,51,10V6.188  C51.884,6.701,52.907,7,54,7h3c0.553,0,1-0.447,1-1c0-3.309-2.691-6-6-6h-3c-0.553,0-1,0.447-1,1c0,1.223,0.369,2.36,1,3.31V10  c0,1.564,0.754,3.04,2,3.979V15h-1h-1h-8v-5V5h-2v4h-3c-0.553,0-1,0.447-1,1v6c0,2.757,2.243,5,5,5h5v13c0,0.553,0.447,1,1,1h2v22  c0,0.553,0.447,1,1,1h7c2.757,0,5-2.243,5-5V35h2c0.553,0,1-0.447,1-1V20C64,17.243,61.757,15,59,15z M52,2  c1.86,0,3.429,1.276,3.873,3H54c-1.86,0-3.429-1.276-3.873-3H52z M59,53c0,1.654-1.346,3-3,3h-1V40h-2v16h-3V35h9V53z M62,33h-2H49  h-2V20c0-0.553-0.447-1-1-1h-6c-1.654,0-3-1.346-3-3v-5h2v4c0,1.103,0.897,2,2,2h8h1h1.586L53,18.414V30h2V18.414L56.414,17H58h1  c1.654,0,3,1.346,3,3V33z"></path><path d="M17,5c-1.549,0-2.958,0.595-4.024,1.562l-2.269-2.269C10.519,4.106,10.266,4,10,4H6v2h3.586l2.141,2.14  C11.263,8.991,11,9.965,11,11c0,3.309,2.691,6,6,6c2.967,0,5.431-2.167,5.91-5H28v-2h-5.09C22.431,7.167,19.967,5,17,5z M16,7.142  v3.444l-2.433,2.433C13.215,12.424,13,11.74,13,11C13,9.141,14.279,7.589,16,7.142z M17,15c-0.74,0-1.424-0.215-2.019-0.567  l2.726-2.726C17.894,11.519,18,11.266,18,11V7.142c1.72,0.447,3,1.999,3,3.858C21,13.206,19.206,15,17,15z"></path><rect x="6" y="16" width="5" height="2"></rect><rect x="6" y="20" width="10" height="2"></rect><rect x="18" y="20" width="2" height="2"></rect><rect x="22" y="20" width="2" height="2"></rect><rect x="26" y="20" width="2" height="2"></rect><rect x="23" y="16" width="5" height="2"></rect></svg>