<?xml version="1.0" encoding="utf-8"?>
<!-- Generator: Adobe Illustrator 21.1.0, SVG Export Plug-In . SVG Version: 6.00 Build 0)  -->
<svg version="1.1" id="Layer_1" xmlns="http://www.w3.org/2000/svg" xmlns:xlink="http://www.w3.org/1999/xlink" x="0px" y="0px"
	 viewBox="0 0 100 100" style="enable-background:new 0 0 100 100;" xml:space="preserve">
<style type="text/css">
	.st0{fill:#FFFFFF;}
</style>
<path d="M72,5C59.3,5,49,13.3,49,23.5c0,3.2,1,6.2,2.8,8.8c1.4,2.1,4.3,4.4,4.3,4.4c0.6,0.5,1.1,1.6,1.1,2.4c0,0-0.1,1.5-0.4,2.9
	c-0.9,4.3-1.9,6.3-1.9,6.3c-0.5,1,0,1.5,1,1.1c0,0,2.7-1.1,7.3-4.1c1.6-1.1,3.6-2.8,3.6-2.8c0.6-0.5,1.8-0.9,2.6-0.8
	c0,0,1.2,0.1,2.6,0.1c12.7,0,22.9-8.3,22.9-18.5C94.9,13.3,84.6,5,72,5z"/>
<path d="M56.9,82c-1.6-7.9-5.3-9.9-11.7-13c-3.2,4.1-8.2,6.8-13.9,6.8c-5.6,0-10.6-2.7-13.9-6.8c-6.3,3.1-10.1,5.1-11.7,13
	c-0.6,3.1-0.7,5-0.7,5c-0.1,4.4,3.4,8,7.8,8h36.9c4.4,0,7.9-3.6,7.7-8c0,0-0.1-2.8-0.9-5.9L56.9,82z"/>
<circle cx="31.3" cy="58.2" r="14.1"/>
<g>
	<path class="st0" d="M59.1,35.6l9-12.7l-8.1-11.7h7.8l4.3,6.1l4.2-6.1H84l-8.1,11.7l8.9,12.7H77l-5-7.2l-5.1,7.2H59.1z"/>
</g>
</svg>
