<svg xmlns="http://www.w3.org/2000/svg" data-name="Layer 1" viewBox="0 0 100 100" x="0px" y="0px"><title>Artboard 13</title><path d="M92.11,28.25a3.78,3.78,0,0,1-6.86,2.89.7.7,0,0,0-.59-.31.71.71,0,0,0-.71.71v5.94a2.74,2.74,0,0,1-2.74,2.74H75.27a.71.71,0,0,0-.71.71.7.7,0,0,0,.31.59,3.78,3.78,0,1,1-4.14,0,.7.7,0,0,0,.32-.59.71.71,0,0,0-.71-.71H64.4a2.74,2.74,0,0,1-2.74-2.74V35.87a.32.32,0,0,1,.38-.31,6.58,6.58,0,0,0,6.33-2.33,6.6,6.6,0,0,0-3.55-10.58,6.73,6.73,0,0,0-2.8-.07.3.3,0,0,1-.36-.29V20.67a2.74,2.74,0,0,1,2.74-2.74h5.94a.71.71,0,0,0,.71-.71.7.7,0,0,0-.31-.59,3.79,3.79,0,1,1,4.14,0,.7.7,0,0,0-.32.59.71.71,0,0,0,.71.71h5.94a2.74,2.74,0,0,1,2.74,2.74V26.6a.71.71,0,0,0,.71.71h0a.7.7,0,0,0,.59-.32,3.78,3.78,0,0,1,6.86,1.25ZM66,43.09H64.4a2.74,2.74,0,0,0-2.74,2.74v5.94a.71.71,0,0,1-.71.71.7.7,0,0,1-.59-.32,3.78,3.78,0,1,0,0,4.14A.7.7,0,0,1,61,56a.71.71,0,0,1,.71.71v5.94a2.74,2.74,0,0,0,2.74,2.74h5.94a.71.71,0,0,1,.71.71.7.7,0,0,1-.31.59,3.79,3.79,0,1,0,4.14,0,.7.7,0,0,1-.32-.59.71.71,0,0,1,.71-.71h5.94a2.74,2.74,0,0,0,2.74-2.74V56.7a.71.71,0,0,1,.71-.71.7.7,0,0,1,.59.32,3.78,3.78,0,1,0,0-4.14.7.7,0,0,1-.59.31.71.71,0,0,1-.71-.71V45.83a2.74,2.74,0,0,0-2.74-2.74H79.58a.3.3,0,0,0-.29.36,6.72,6.72,0,0,1-.07,2.8,6.6,6.6,0,0,1-12.9-2.78A.32.32,0,0,0,66,43.09ZM25.79,1.21a10,10,0,1,0,10,10A10,10,0,0,0,25.79,1.21ZM7.86,33.31l2.46,18.54A7.2,7.2,0,0,0,15,57.8l4.15,38.08a3.29,3.29,0,0,0,3.27,2.92H29a3.29,3.29,0,0,0,3.27-2.92l1.94-17.8,4.65-43.53a.45.45,0,0,1,.42-.4l23.57-1.52a3.61,3.61,0,0,0,3.42-3.09A3.47,3.47,0,0,0,63,25.68L36.43,24,32,23.89a.4.4,0,0,0-.32.15l-5.19,6.49a1,1,0,0,1-1.6,0L19.72,24a.41.41,0,0,0-.32-.16H16.28A8.47,8.47,0,0,0,7.86,33.31ZM75.27,90.54h5.94a2.74,2.74,0,0,0,2.74-2.74V81.87a.71.71,0,0,1,.71-.71.7.7,0,0,1,.59.32,3.78,3.78,0,1,0,0-4.14.7.7,0,0,1-.59.31.71.71,0,0,1-.71-.71V71a2.74,2.74,0,0,0-2.74-2.74H79.58a.3.3,0,0,0-.29.36,6.72,6.72,0,0,1-.07,2.8,6.6,6.6,0,0,1-12.9-2.78.32.32,0,0,0-.31-.38H64.4A2.74,2.74,0,0,0,61.67,71v5.94a.71.71,0,0,1-.71.71.7.7,0,0,1-.59-.32,3.78,3.78,0,1,0,0,4.14.7.7,0,0,1,.59-.31.71.71,0,0,1,.71.71v5.94a2.74,2.74,0,0,0,2.74,2.74h5.94a.71.71,0,0,1,.71.71.7.7,0,0,1-.31.59,3.79,3.79,0,1,0,4.14,0,.7.7,0,0,1-.32-.59A.71.71,0,0,1,75.27,90.54Z"></path></svg>