<?xml version="1.0" encoding="utf-8"?>
<!-- Generator: Adobe Illustrator 21.1.0, SVG Export Plug-In . SVG Version: 6.00 Build 0)  -->
<svg version="1.1" id="Layer_1" xmlns="http://www.w3.org/2000/svg" xmlns:xlink="http://www.w3.org/1999/xlink" x="0px" y="0px"
	 viewBox="0 0 100 100" style="enable-background:new 0 0 100 100;" xml:space="preserve">
<path d="M92.4,89.8H48.1c-1,0-1.8-0.8-1.8-1.8v-6.2c0-1,0.8-1.8,1.8-1.8h18l1.8-5.8v-7H48.1c-1,0-1.8-0.8-1.8-1.8s0.8-1.8,1.8-1.8
	h21c2.9-2,4-5.2,3-8.6c-0.8-2.6-2.6-4.7-4.7-5.3v5.3c0,0.3-0.1,0.6-0.3,0.9l-2.7,4.4c-0.3,0.5-0.9,0.8-1.5,0.8H59
	c-0.6,0-1.1-0.3-1.5-0.8l-2.8-4.3c-0.2-0.3-0.3-0.6-0.3-1V19.3c0-0.7,0.4-1.3,1-1.6v-4.3c0-1.9,2-3.2,3.9-3.2h3.2
	c2.1,0,3.7,1.5,3.7,3.2v4.3c0.6,0.3,1.1,0.9,1.1,1.6v1.5c0.3,0,0.6-0.1,0.9-0.1c4.3,0,7.8,3.5,7.8,7.8c0,2.5-1.2,4.8-3.1,6.2v6.1
	c6.3,1.7,17,8.4,18.9,19.1c0.9,5,0,9.4-2.6,12.5c0,0-0.1,0.1-0.1,0.1l1.2,7.6h1.9c1,0,1.8,0.8,1.8,1.8v6.2
	C94.1,89,93.3,89.8,92.4,89.8z M49.9,86.3h40.7v-2.8H49.9C49.9,83.6,49.9,86.3,49.9,86.3z M69.8,80.1h17.1L86.1,75
	c-1.6,0.8-3.5,1.3-5.4,1.3h-9.7L69.8,80.1z M71.4,72.8h9.2c2.5,0,4.5-0.9,6-2.7c1.9-2.3,2.6-5.7,1.8-9.6
	c-1.8-10.1-13.1-15.9-17.5-16.6c-0.8-0.1-1.5-0.9-1.5-1.7v-6c-0.7,0.1-1.4,0.1-2.1,0v10.1c3.6,0.6,6.8,3.7,8.1,7.9
	c1.1,3.7,0.6,8.8-4.1,12.2V72.8z M59.9,57.8h2l1.9-3.1v-1.8h-6v1.8L59.9,57.8z M57.9,49.4h6V34.9c-2-1.4-3.4-3.7-3.4-6.4
	s1.3-5,3.4-6.4V21h-6V49.4z M66.1,24.8c-1.3,0.7-2.1,2.1-2.1,3.7c0,2.4,1.9,4.3,4.3,4.3s4.3-1.9,4.3-4.3s-1.9-4.3-4.3-4.3
	c-0.6,0-1.1,0.1-1.6,0.3C66.5,24.7,66.3,24.7,66.1,24.8z M59,17.5h3.8v-3.8c-0.1,0-0.1,0-0.2,0h-3.2c-0.2,0-0.3,0.1-0.4,0.1
	C59,13.8,59,17.5,59,17.5z M82.4,70.8c-3,0-5.5-2.5-5.5-5.5s2.5-5.5,5.5-5.5s5.5,2.5,5.5,5.5S85.4,70.8,82.4,70.8z M82.4,63.3
	c-1.1,0-2,0.9-2,2c0,1.1,0.9,2,2,2s2-0.9,2-2C84.3,64.2,83.4,63.3,82.4,63.3z M46.1,36.7c0-10.8-8.8-20.4-20.4-20.4
	S5.3,25.9,5.3,36.7s8.8,20.4,20.4,20.4S46.1,47.5,46.1,36.7z M9.4,36.7c0-1.4,0.2-2.9,0.6-4.1h5.7c-0.2,1.2-0.2,2.7-0.2,4.1
	s0,2.9,0.2,4.1H10C9.6,39.6,9.4,38.1,9.4,36.7z M19.6,36.7c0-1.4,0-2.9,0.2-4.1h3.9v8.2h-3.9C19.6,39.6,19.6,38.1,19.6,36.7z
	 M27.8,21.6c1.2,1.4,2.4,3.7,3.3,6.9h-3.3V21.6z M23.7,28.5h-3.3c0.8-3.3,2-5.7,3.3-6.9V28.5z M23.7,44.9v6.9
	c-1.2-1.4-2.4-3.7-3.3-6.9H23.7z M27.8,44.9H31c-0.8,3.3-2,5.7-3.3,6.9V44.9z M27.8,40.8v-8.2h3.9c0.2,1.2,0.2,2.7,0.2,4.1
	s0,2.9-0.2,4.1H27.8z M35.7,32.6h5.7c0.4,1.2,0.6,2.7,0.6,4.1s-0.2,2.9-0.6,4.1h-5.7c0.2-1.2,0.2-2.7,0.2-4.1
	C35.9,35.3,35.9,33.9,35.7,32.6z M39.8,28.5h-4.7c-0.4-2.4-1.2-4.7-2.2-6.5C35.9,23.4,38.2,25.7,39.8,28.5z M18.4,22
	c-0.8,1.8-1.6,4.1-2,6.5h-4.7C13.3,25.7,15.5,23.4,18.4,22z M11.6,44.9h4.7c0.4,2.4,1.2,4.7,2.2,6.5C15.5,50,13.3,47.7,11.6,44.9z
	 M33.1,51.4c0.8-1.8,1.6-4.1,2.2-6.5H40C38.2,47.7,35.9,50,33.1,51.4z"/>
</svg>
