<svg xmlns="http://www.w3.org/2000/svg" xmlns:xlink="http://www.w3.org/1999/xlink" version="1.1" x="0px" y="0px" viewBox="0 0 100 100" enable-background="new 0 0 100 100" xml:space="preserve"><path d="M26.7773132,54.6906128c-1.9434814-2.5488281-3.1119995-5.71875-3.1119995-9.1645508  c0-8.3579102,6.7993164-15.1567383,15.1566162-15.1567383c8.3572388,0,15.1565552,6.7988281,15.1565552,15.1567383  c0,3.4458008-1.1685181,6.6157227-3.1119995,9.1645508c-2.7713623,3.6342773-7.1322632,5.9941406-12.0445557,5.9941406  C33.9095764,60.6847534,29.5486755,58.3248901,26.7773132,54.6906128z M91.7261658,35.7423706v16.1699219  c0,0.9882813-0.8013916,1.7900391-1.789978,1.7900391H79.8475037V66.585144  c1.5132446,1.9956055,1.2108154,4.8369141-0.7445068,6.4355469l-9.3999023,7.6923828l-1.020813,0.8359375  c-0.1868286,0.1533203-0.3852539,0.2807617-0.5866089,0.4003906c-0.1657104,0.090332-0.333252,0.1748047-0.5043335,0.2495117  c-0.2998657,0.1318359-0.6085205,0.2338867-0.9219971,0.3037109c-0.5720215,0.1625977-1.1530151,0.2768555-1.7427979,0.2768555  c-1.7901611,0-3.5747681-0.71875-4.8848877-2.1376953l-0.4489136-0.4853516v2.9189453  c0,2.0683594-1.6766357,3.7446289-3.744812,3.7446289H12.0234079c-2.7717285,0-4.5829468-2.90625-3.3618164-5.3945313  l10.1193838-20.6191406c1.0722046-2.6577148,3.2554932-4.7451172,5.9935303-5.6713867  c0.6135864,0.894043,1.3305054,1.7080078,2.0988159,2.46875c0.993103,0.9833984,2.1010742,1.84375,3.3099976,2.5605469  c2.5369263,1.5058594,5.4805908,2.3925781,8.6386108,2.3925781c5.8269043,0,10.9758911-2.9448242,14.0473633-7.421875  c1.9680176,0.6655273,3.6589355,1.9262695,4.8544922,3.5693359l10.4571533,11.1577148l4.7854614-3.9160156  c0.7010498-0.5737305,1.5322266-0.9389648,2.3884277-1.0878906V53.7023315h-10.088623  c-0.9885864,0-1.7900391-0.8017578-1.7900391-1.7900391V35.7423706c0-0.9887695,0.8014526-1.7900391,1.7900391-1.7900391h24.6699829  C90.9247742,33.9523315,91.7261658,34.7536011,91.7261658,35.7423706z M84.3215637,37.5123901  c-0.4208984-0.3154297-1.0166016-0.2314453-1.3300781,0.1894531l-4.6959229,6.2539063l-2.7064209,3.6044922l-0.234314-0.4887695  l-3.046936-6.3540039c-0.2265625-0.4726563-0.7929688-0.671875-1.2675781-0.4453125  c-0.4726563,0.2265625-0.671875,0.7939453-0.4453125,1.2675781l3.9580078,8.2539063  c0.1435547,0.2988281,0.4326172,0.5019531,0.7626953,0.5341797c0.0130615,0.0009766,0.026062,0.0009766,0.0391235,0.0019531  c0.0181885,0.0009766,0.036438,0.0029297,0.0546265,0.0029297c0.296875,0,0.5791016-0.1396484,0.7597656-0.3798828  l3.6782837-4.8989258l4.6635132-6.2114258C84.8264465,38.4225464,84.7414856,37.8278198,84.3215637,37.5123901z"></path></svg>