<svg xmlns="http://www.w3.org/2000/svg" xmlns:xlink="http://www.w3.org/1999/xlink" version="1.1" x="0px" y="0px" viewBox="0 0 50 50" style="enable-background:new 0 0 50 50;" xml:space="preserve"><style type="text/css">
	.st0{fill:none;stroke:#000000;stroke-width:2;stroke-miterlimit:10;}
	.st1{fill:none;stroke:#000000;stroke-width:2;stroke-miterlimit:10;stroke-dasharray:2,3;}
	.st2{fill:none;stroke:#000000;stroke-width:2;stroke-linejoin:round;stroke-miterlimit:10;}
	.st3{fill:none;stroke:#000000;stroke-width:2;stroke-miterlimit:10;stroke-dasharray:2,2;}
	.st4{fill:none;stroke:#000000;stroke-width:2;stroke-linejoin:round;stroke-miterlimit:10;stroke-dasharray:2,2;}
	.st5{fill:none;stroke:#000000;stroke-width:2;stroke-miterlimit:10;stroke-dasharray:1.7143,1.7143;}
	.st6{fill:none;stroke:#000000;stroke-width:2;stroke-linecap:round;stroke-miterlimit:10;}
	.st7{fill:none;stroke:#000000;stroke-width:2;stroke-linecap:round;stroke-linejoin:round;stroke-miterlimit:10;}
</style><g><g><polygon class="st7" points="8.5,2 11,5.9 15.5,7.1 12.6,10.7 12.8,15.3 8.5,13.7 4.2,15.3 4.4,10.7 1.5,7.1 6,5.9   "></polygon><line class="st0" x1="20.5" y1="7" x2="37.5" y2="7"></line><line class="st0" x1="20.5" y1="12" x2="48.5" y2="12"></line></g><polygon class="st7" points="8.5,18.3 11,22.2 15.5,23.4 12.6,27 12.8,31.7 8.5,30 4.2,31.7 4.4,27 1.5,23.4 6,22.2  "></polygon><line class="st0" x1="20.5" y1="23" x2="37.5" y2="23"></line><line class="st0" x1="20.5" y1="28" x2="48.5" y2="28"></line><g><polygon class="st7" points="8.5,34.7 11,38.6 15.5,39.8 12.6,43.4 12.8,48 8.5,46.4 4.2,48 4.4,43.4 1.5,39.8 6,38.6   "></polygon><line class="st0" x1="20.5" y1="40" x2="37.5" y2="40"></line><line class="st0" x1="20.5" y1="45" x2="48.5" y2="45"></line></g></g></svg>