<?xml version="1.0" encoding="utf-8"?>
<!-- Generator: Adobe Illustrator 21.1.0, SVG Export Plug-In . SVG Version: 6.00 Build 0)  -->
<svg version="1.1" id="Layer_1" xmlns="http://www.w3.org/2000/svg" xmlns:xlink="http://www.w3.org/1999/xlink" x="0px" y="0px"
	 viewBox="0 0 100 100" style="enable-background:new 0 0 100 100;" xml:space="preserve">
<style type="text/css">
	.st0{fill:#FFFFFF;}
</style>
<path d="M21.7,36.9c-1.7-6.1,0.1-7,1.7-6.9c-1.1-3.2-1.2-6.4-0.4-9.3c0.8-3.4,2.7-6.2,4.7-8.3c1.3-1.4,2.8-2.6,4.4-3.6
	c1.3-0.9,2.7-1.7,4.3-2.2l0,0c1.2-0.4,2.5-0.7,3.9-0.7C44.5,5.6,47.7,6.6,50,8c3.4,1.9,4.7,4.4,4.7,4.4s8.6,0.6,4.9,18.7
	c1.2,0.4,2,2,0.6,6.8c-1.7,5.9-3.2,6.2-4.1,5.6c-1.1,6.3-4.5,14.4-15.5,14.9C29.6,57.4,26,49.1,25,42.7C24.2,42.6,23,41.4,21.7,36.9
	z M64.1,63.9h4.2c0-0.4,0.1-0.7,0.1-1.1c-8-2.6-14-6.9-14-6.9l-5.9,18.8l-1.1,3.5l0,0l-1,3l-3.1-8.9c7.9-11-2.1-10.6-2.1-10.6
	s-10-0.4-2.1,10.6l-3.2,8.9l-1-3l-7-22.3c0,0-7.6,5.4-17,7.7c-7,1.8-7.3,9.8-7,13.8l0,0c0,0-0.1,5.5,0.8,7.8c0,0,13.6,8.9,36.5,8.9
	l0-0.5l0,0.5c6.9,0,13-0.8,18.1-2c-0.9-1.1-1.5-2.5-1.5-4.1v-18C57.8,66.7,60.6,63.9,64.1,63.9z M96.2,70.2v18
	c0,1.8-1.5,3.3-3.3,3.3H64.1c-1.8,0-3.3-1.5-3.3-3.3v-18c0-1.8,1.5-3.3,3.3-3.3h7.2v-2.8c0-1.8,1.4-3.2,3.2-3.2h7.9
	c1.8,0,3.2,1.4,3.2,3.2v2.8h7.2C94.7,66.9,96.2,68.4,96.2,70.2z M82.8,64.1c0-0.2-0.2-0.3-0.3-0.3h-7.9c-0.2,0-0.3,0.2-0.3,0.3v2.8
	h8.6L82.8,64.1L82.8,64.1z"/>
<path class="st0" d="M88.4,79.6c0-5.3-4.3-10-10-10c-5.7,0-10,4.7-10,10c0,5.3,4.3,10,10,10C84.1,89.6,88.4,84.9,88.4,79.6z
	 M70.4,79.6c0-0.7,0.1-1.4,0.3-2h2.8c-0.1,0.6-0.1,1.3-0.1,2c0,0.7,0,1.4,0.1,2h-2.8C70.5,81,70.4,80.3,70.4,79.6z M75.4,79.6
	c0-0.7,0-1.4,0.1-2h1.9v4h-1.9C75.4,81,75.4,80.3,75.4,79.6z M79.4,72.2c0.6,0.7,1.2,1.8,1.6,3.4h-1.6V72.2z M77.4,75.6h-1.6
	c0.4-1.6,1-2.8,1.6-3.4V75.6z M77.4,83.6V87c-0.6-0.7-1.2-1.8-1.6-3.4H77.4z M79.4,83.6H81c-0.4,1.6-1,2.8-1.6,3.4V83.6z M79.4,81.6
	v-4h1.9c0.1,0.6,0.1,1.3,0.1,2c0,0.7,0,1.4-0.1,2H79.4z M83.3,77.6h2.8c0.2,0.6,0.3,1.3,0.3,2c0,0.7-0.1,1.4-0.3,2h-2.8
	c0.1-0.6,0.1-1.3,0.1-2C83.4,78.9,83.4,78.2,83.3,77.6z M85.3,75.6H83c-0.2-1.2-0.6-2.3-1.1-3.2C83.4,73.1,84.5,74.2,85.3,75.6z
	 M74.8,72.4c-0.4,0.9-0.8,2-1,3.2h-2.3C72.3,74.2,73.4,73.1,74.8,72.4z M71.5,83.6h2.3c0.2,1.2,0.6,2.3,1.1,3.2
	C73.4,86.1,72.3,85,71.5,83.6z M82,86.8c0.4-0.9,0.8-2,1.1-3.2h2.3C84.5,85,83.4,86.1,82,86.8z"/>
</svg>
