<svg xmlns="http://www.w3.org/2000/svg" xmlns:xlink="http://www.w3.org/1999/xlink" version="1.1" x="0px" y="0px" viewBox="0 0 64 64" style="enable-background:new 0 0 64 64;" xml:space="preserve"><g><path d="M37.1,44.5c-0.4-0.3-0.8-0.6-1.4-0.9l-1.6-0.9c-0.4-0.2-0.9-0.5-1.4-0.7l-0.5-0.3c-0.5-0.2-1-0.5-1.4-0.7   c-0.7-0.3-1.3-0.5-1.9-0.7L28,40l-0.5,0.5c-1.4,1.4-5.1,4.8-6.8,6.3c-1.8-1.7-6-5.6-6.8-6.3L13.5,40l-0.7,0.2c0,0-0.7,0.2-1,0.4   c-0.3,0.1-0.6,0.2-1,0.4c-0.5,0.2-1,0.5-1.4,0.7L8.6,42c-0.2,0.1-0.3,0.1-0.5,0.2l-1.7,0.9c-0.8,0.4-1.4,0.9-2,1.3   c-1.3,0.9-2.6,2-3.3,3.5c-0.6,1.3-0.6,2.8-0.5,4.1l0,0.5c0,0.2,0,2.2,0,3.7c0,1.7,1.4,3.1,3.1,3.1l34.1,0c1.7,0,3.1-1.4,3.1-3.1   c0-1.6,0-3.6,0-3.8l0-0.4c0-1.3,0.1-2.8-0.5-4.2C39.7,46.4,38.3,45.3,37.1,44.5z M38.4,52l0,0.4c0,0.1,0,2.2,0,3.8   c0,0.3-0.3,0.6-0.6,0.6l-34.1,0c-0.4,0-0.6-0.3-0.6-0.6c0-3.7,0-3.8,0-3.8l0-0.5c0-1.1-0.1-2.2,0.3-3c0.4-1,1.5-1.8,2.5-2.5   c0.5-0.4,1.1-0.8,1.8-1.1l1.7-0.9c0.1-0.1,0.3-0.1,0.4-0.2l0.7-0.4c0.4-0.2,0.9-0.4,1.3-0.6c0.3-0.1,0.6-0.2,0.8-0.3   c0.1,0,0.1,0,0.2-0.1c1.8,1.7,6.8,6.4,7.1,6.6l0.8,0.8l0.8-0.8c0,0,4.8-4.5,7.1-6.6c0.3,0.1,0.7,0.3,1.1,0.4   c0.5,0.2,0.9,0.4,1.4,0.7l0.5,0.3c0.5,0.2,0.9,0.5,1.3,0.7l1.5,0.9c0.4,0.3,0.8,0.5,1.2,0.8c1,0.7,2.1,1.6,2.5,2.5   C38.5,49.8,38.5,50.9,38.4,52z"></path><path d="M10.2,25.9c0,0.3,0.1,0.6,0.1,1c0,0.1,0,0.3,0.1,0.4c0.2,1.4,0.9,2.6,2,3.2c0.7,2.5,2,4.5,3.9,5.8c0.3,0.2,0.5,0.3,0.8,0.5   c0.4,0.2,0.9,0.4,1.3,0.6c0.4,0.2,0.8,0.3,1.2,0.4c0.3,0.1,0.7,0.1,1,0.1c0.1,0,0.1,0,0.2,0c0.3,0,0.7,0,1-0.1   c0.4-0.1,0.8-0.2,1.1-0.3l0.1,0c0.5-0.2,0.9-0.4,1.4-0.6c0.3-0.2,0.5-0.3,0.8-0.5c1.1-0.7,2-1.7,2.7-2.8c0.3-0.5,0.6-1.1,0.9-1.7   c0.1-0.2,0.2-0.5,0.2-0.7c0-0.2,0.1-0.4,0.2-0.5c0.1-0.1,0.3-0.3,0.5-0.4c0.1-0.1,0.2-0.2,0.3-0.3c0.9-0.8,1.2-1.9,1.2-2.6   c0-0.1,0-0.3,0.1-0.4c0-0.3,0.1-0.6,0.1-1c0-0.3,0-0.5,0-0.7l-1.2-0.1l-1.3,0l0,0.1l0,0.1c0,0.2,0,0.3,0,0.5c0,0.2-0.1,0.5-0.1,0.7   c0,0.2-0.1,0.3-0.1,0.5c-0.1,0.7-0.2,0.9-0.4,1.1c-0.1,0.1-0.2,0.2-0.3,0.2c-0.2,0.2-0.5,0.5-0.8,0.8c-0.4,0.5-0.5,1-0.6,1.4   c0,0.1-0.1,0.3-0.1,0.4c-0.2,0.5-0.4,1-0.7,1.3c-0.5,0.8-1.2,1.5-1.9,2c-0.2,0.1-0.4,0.3-0.6,0.3c-0.3,0.1-0.6,0.3-1,0.4L22,35.2   c-0.2,0.1-0.4,0.2-0.7,0.2c-0.2,0-0.4,0.1-0.7,0.1c-0.2,0-0.4,0-0.6,0c-0.2,0-0.4-0.1-0.7-0.2l-0.1-0.1c-0.4-0.1-0.7-0.3-1-0.4   c-0.2-0.1-0.4-0.2-0.6-0.4c-1.5-1-2.4-2.5-3-4.5c-0.2-0.7-0.6-1-0.8-1.3l-0.2-0.1c-0.6-0.3-0.8-1-0.8-1.4c0-0.2,0-0.3-0.1-0.5   c0-0.2-0.1-0.5-0.1-0.7c0-0.2,0-0.3,0-0.5l0-0.1l0-0.1c0,0,0.1,0,0.2,0l0.4-0.1l0.2-0.1c0.5-0.3,0.7-0.8,0.8-1.3   c0-0.6-0.1-1.2-0.2-1.7c-0.1-0.3-0.1-0.5-0.1-0.8c0-0.7-0.1-1.6-0.1-2.5c0-0.6,0.1-1.1,0.3-1.5c0,0,0.1-0.1,0.2-0.1   c0.4-0.2,0.8-0.4,1.2-0.8c0.4-0.4,0.6-0.7,0.8-0.9l0.1-0.2c0.2-0.2,0.3-0.4,0.5-0.5c0,0,0.1-0.1,0.2-0.1c0.8-0.4,1.8-0.4,2.7-0.5   c0.3,0,0.6,0,0.9,0c1.4,0,2.8,0.3,4,0.7c0.2,0.1,0.5,0.2,0.7,0.3c1.7,0.8,2.7,2.3,2.6,4.2c0,0.7-0.1,1.4-0.3,2.1   c-0.1,0.4-0.1,0.8-0.2,1.2l0,0.4c-0.1,0.4-0.2,0.8,0.1,1.3c0.2,0.4,0.6,0.9,1.5,0.9c0,0-0.1,0-0.1,0l1.1,0.1l1.2,0.1l0,0   c0-0.9-0.4-1.9-1.3-2.4l0-0.1c0-0.3,0.1-0.6,0.1-0.8c0.2-0.9,0.3-1.7,0.4-2.6c0.1-2.9-1.4-5.4-4.1-6.6c-0.3-0.1-0.6-0.2-0.8-0.3   c-1.5-0.6-3.2-0.9-4.9-0.9c-0.4,0-0.7,0-1.1,0c-1,0.1-2.4,0.1-3.6,0.7c-0.1,0.1-0.3,0.1-0.4,0.2c-0.5,0.3-0.9,0.7-1.3,1.3L14.2,14   c-0.1,0.2-0.1,0.2-0.3,0.3c-0.3,0.2-0.4,0.3-0.7,0.4c-0.6,0.3-1,0.7-1.3,1.2c-0.4,0.7-0.6,1.6-0.7,2.6c0,1,0,2,0.1,2.7   c0,0.4,0.1,0.7,0.2,1.1c0,0.1,0,0.2,0.1,0.3c-1,0.4-1.5,1.5-1.4,2.4l0,0C10.2,25.4,10.2,25.7,10.2,25.9z"></path><path d="M55.5,17.6h-5v-5c0-0.7-0.6-1.3-1.3-1.3S48,11.9,48,12.6v5h-5c-0.7,0-1.3,0.6-1.3,1.3s0.6,1.3,1.3,1.3h5v5   c0,0.7,0.6,1.3,1.3,1.3s1.3-0.6,1.3-1.3v-5h5c0.7,0,1.3-0.6,1.3-1.3S56.2,17.6,55.5,17.6z"></path><path d="M54.4,5.6L54.4,5.6c-4.7-1.8-9.8-1.1-13.8,2c-2.1,1.6-3.6,3.7-4.6,6.1c-1.3,3.3-1.3,6.9-0.1,10.2c0,0-0.1,0-0.1,0l-2.1,1.3   c-0.9,0.6-1,1.3-1,1.8c0.1,0.9,0.7,1.5,1.9,2l0.1,0c1.1,0.4,2.1,0.7,3,0.8l0.2,0c0.2,0,0.4,0,0.6,0.1c0.5,0,1.1,0,1.6,0   c1.1,0.9,2.4,1.6,3.8,2.2c1.7,0.7,3.4,1,5.2,1c3.1,0,6.1-1,8.6-2.9c2.1-1.6,3.6-3.7,4.6-6.1c1.4-3.5,1.3-7.4-0.2-10.9   C60.7,9.7,58,7,54.4,5.6z M60.2,23.1c-0.8,2-2.1,3.7-3.8,5c-3.3,2.5-7.5,3.1-11.4,1.6c-1.2-0.5-2.2-1.1-3.2-1.9l-0.6-0.5l-0.8,0   l-0.2,0c-0.5,0-0.9,0-1.4,0c-0.2,0-0.3,0-0.4,0l-0.3,0c-0.7-0.1-1.4-0.3-2.2-0.5l1.2-0.7c0.2-0.1,0.4-0.2,0.5-0.3l1.4-1l-0.6-1.6   c-1.1-2.8-1.1-5.8,0-8.6c0.8-2,2.1-3.7,3.8-5c3.3-2.5,7.6-3.1,11.4-1.6c2.9,1.1,5.2,3.3,6.5,6.2C61.2,17,61.3,20.2,60.2,23.1z"></path></g></svg>