<?xml version="1.0" encoding="utf-8"?>
<!-- Generator: Adobe Illustrator 21.1.0, SVG Export Plug-In . SVG Version: 6.00 Build 0)  -->
<svg version="1.1" id="Layer_1" xmlns="http://www.w3.org/2000/svg" xmlns:xlink="http://www.w3.org/1999/xlink" x="0px" y="0px"
	 viewBox="0 0 100 100" style="enable-background:new 0 0 100 100;" xml:space="preserve">
<g>
	<g>
		<path d="M50.6,11.7c-9.9,0-17.8,8-17.8,17.8c0,5.7,2.7,10.8,6.8,14c3,2.4,6.9,3.8,11,3.8c4.2,0,8-1.4,11-3.8
			c4.2-3.3,6.8-8.3,6.8-14C68.4,19.7,60.4,11.7,50.6,11.7z"/>
		<g>
			<path d="M66.2,57.3c-1.2,2.3-3.6,3.9-6.4,3.9c-4,0-7.2-3.2-7.2-7.2c0-0.1,0-0.1,0-0.2c-0.6,0-1.3,0.1-1.9,0.1
				c-6.3,0-12-2.2-16.6-5.9c-5.7,6.7-9.3,17.5-9.3,32c0,5.4,0.5,10,1.5,14.9C33.7,97.6,42,99,50.7,99c8.7,0,16.9-1.5,24.4-4.2
				C76,90,76.5,85.5,76.5,80c0-10.8-2-19.5-5.4-26.1C69.3,55.4,67.6,56.5,66.2,57.3z"/>
			<path d="M27,33v-7.1c0-0.2,0-0.4,0-0.6c0.3-4.6,1.5-8.3,5.5-12.3c4.9-4.9,11.4-7.7,17.8-7.7c13.8,0,25.1,10.9,25.1,24.2
				c0,12.3-8.9,18.5-13.2,20.8c-0.7-0.5-1.5-0.8-2.4-0.8c-1.9,0-3.4,1.4-3.7,3.2c0,0.2-0.1,0.4-0.1,0.6c0,2.1,1.7,3.8,3.8,3.8
				c1.8,0,3.3-1.2,3.7-2.9c1.5-0.8,3.7-2.1,6-4c4.8-4,10-10.7,10-20.7C79.5,14,66.4,1.3,50.3,1.3c-7.5,0-15.1,3.2-20.7,8.9
				c-3.5,3.5-4.6,6.3-5.8,10.5c-0.5-0.2-1.1-0.3-1.7-0.3c-2.8,0-5,2.5-5,5.6V33c0,3.1,2.2,5.6,5,5.6C24.8,38.7,27,36.1,27,33z"/>
		</g>
	</g>
</g>
</svg>
