<svg xmlns="http://www.w3.org/2000/svg" data-name="Layer 1" viewBox="0 0 100 100" x="0px" y="0px"><title>Artboard 13</title><path d="M98.67,31.48v18A3.43,3.43,0,0,1,95.24,53H76.86a3.43,3.43,0,0,1-3.43-3.43V38.89l-6.22,5.79a4,4,0,0,1-5.37.07L48.65,33.23a4.16,4.16,0,0,1-.63-5.7A4,4,0,0,1,53.78,27l10.63,9.29c3.95-3.64,10.09-9.44,11.41-10.71l.2-.19,0,0,0,0a8.35,8.35,0,0,1,5.72-2.27h8.46A8.38,8.38,0,0,1,98.67,31.48ZM81,1.65A9.38,9.38,0,1,0,90.34,11,9.38,9.38,0,0,0,81,1.65Zm7.59,77.1H80.28A10.12,10.12,0,0,0,70.15,88.88v6a3.43,3.43,0,0,0,3.43,3.43H95.24a3.43,3.43,0,0,0,3.43-3.43v-6A10.12,10.12,0,0,0,88.54,78.75ZM93,67.34a8.58,8.58,0,1,0-8.58,8.58A8.58,8.58,0,0,0,93,67.34Zm-66.57,31a3.43,3.43,0,0,0,3.43-3.43v-6A10.12,10.12,0,0,0,19.72,78.75H11.46A10.12,10.12,0,0,0,1.33,88.88v6a3.43,3.43,0,0,0,3.43,3.43ZM7,67.34a8.58,8.58,0,1,0,8.58-8.58A8.58,8.58,0,0,0,7,67.34ZM54.13,78.75H45.87A10.12,10.12,0,0,0,35.74,88.88v6a3.43,3.43,0,0,0,3.43,3.43H60.83a3.43,3.43,0,0,0,3.43-3.43v-6A10.12,10.12,0,0,0,54.13,78.75Zm4.45-11.41A8.58,8.58,0,1,0,50,75.92,8.58,8.58,0,0,0,58.58,67.34ZM4.76,53.52H60.61a1,1,0,0,0,.29-2,10.39,10.39,0,0,1-3.29-1.94L44.5,38.15a10.87,10.87,0,0,1-3.77-7.1,10.46,10.46,0,0,1,13.4-11,10.82,10.82,0,0,1,4,2.28L62.4,26a.84.84,0,0,0,1.39-.63V5.27a3.22,3.22,0,0,0-3.22-3.22H4.76A3.22,3.22,0,0,0,1.54,5.27v45A3.22,3.22,0,0,0,4.76,53.52Z"></path></svg>