<svg xmlns="http://www.w3.org/2000/svg" xmlns:xlink="http://www.w3.org/1999/xlink" version="1.1" x="0px" y="0px" viewBox="0 0 100 100" enable-background="new 0 0 100 100" xml:space="preserve"><circle cx="32.625" cy="21.699" r="6.77"></circle><path d="M52.122,49.65l-7.833-3.733l-6.142-8.244c-0.198-1.051-0.34-1.708-0.366-1.827c-0.826-3.775-4.554-6.167-8.329-5.341  c-3.775,0.823-6.169,4.552-5.349,8.328c0.753,3.465,2.506,13.997,1.581,21.02c-0.324,2.458,0.674,4.782,2.44,6.269v21.423  c0,2.485,2.015,4.5,4.5,4.5s4.5-2.015,4.5-4.5V66.123c1.293-1.086,2.202-2.637,2.44-4.442c0.497-3.77,0.453-7.946,0.177-11.824  l0.179,0.241c0.292,0.391,0.674,0.706,1.115,0.916l8.503,4.053c0.417,0.199,0.856,0.292,1.289,0.292c1.121,0,2.196-0.631,2.71-1.709  C54.251,52.153,53.617,50.363,52.122,49.65z"></path><path d="M69.708,25.315c-3.791-0.762-7.48,1.695-8.241,5.484c-0.057,0.283-0.182,0.918-0.347,1.83l-7.477,14.526l-4.759,4.058  c-1.261,1.075-1.411,2.969-0.336,4.229c0.593,0.696,1.436,1.053,2.284,1.053c0.688,0,1.38-0.236,1.945-0.717l5.209-4.442  c0.297-0.253,0.542-0.563,0.721-0.91l0.396-0.77c-0.152,3.369-0.111,6.74,0.278,9.695c0.257,1.955,1.3,3.612,2.766,4.702v23.49  c0,2.485,2.015,4.5,4.5,4.5s4.5-2.015,4.5-4.5V63.498c1.56-1.489,2.417-3.672,2.114-5.974c-0.933-7.084,1.077-19.701,1.931-23.968  C75.953,29.766,73.498,26.076,69.708,25.315z"></path><circle cx="65.095" cy="16.396" r="7.352"></circle></svg>