<svg xmlns="http://www.w3.org/2000/svg" data-name="Layer 1" viewBox="0 0 100 100" x="0px" y="0px"><title>Artboard 10</title><path d="M46.63,40.77a2.36,2.36,0,0,0,2.58-.51l5.56-5.56h7.7a6.05,6.05,0,0,0,6-6V9.83a6.05,6.05,0,0,0-6-6h-25a6.05,6.05,0,0,0-6,6V28.65a6.05,6.05,0,0,0,6,6h7.65v3.89A2.36,2.36,0,0,0,46.63,40.77ZM57.35,16.54a2.66,2.66,0,1,1-2.66,2.66A2.66,2.66,0,0,1,57.35,16.54Zm-7.35,0a2.66,2.66,0,1,1-2.66,2.66A2.66,2.66,0,0,1,50,16.54Zm-7.35,5.31a2.66,2.66,0,1,1,2.66-2.66A2.66,2.66,0,0,1,42.65,21.86ZM1,22.37a9.76,9.76,0,1,1,9.76,9.76A9.76,9.76,0,0,1,1,22.37ZM1,66V47.47a9.76,9.76,0,0,1,10.41-9.73A10,10,0,0,1,20.51,47.8v15.9h7.67a9.76,9.76,0,0,1,9.76,9.76V90.18a6,6,0,0,1-6,6h0a6,6,0,0,1-6-6V75.77H10.76A9.76,9.76,0,0,1,1,66ZM99,47.47V66a9.76,9.76,0,0,1-9.76,9.76H74.13v14.4a6,6,0,0,1-12.07,0V73.47a9.76,9.76,0,0,1,9.76-9.76h7.67V47.8A10,10,0,0,1,88.6,37.74,9.76,9.76,0,0,1,99,47.47ZM65.31,55.75H54.88V91.33a4.88,4.88,0,1,1-9.76,0V55.75H34.69a4.88,4.88,0,0,1,0-9.76H65.31a4.88,4.88,0,0,1,0,9.76ZM99,22.37a9.76,9.76,0,1,1-9.76-9.76A9.76,9.76,0,0,1,99,22.37Z"></path></svg>