<?xml version="1.0" encoding="utf-8"?>
<!-- Generator: Adobe Illustrator 21.1.0, SVG Export Plug-In . SVG Version: 6.00 Build 0)  -->
<svg version="1.1" id="Layer_1" xmlns="http://www.w3.org/2000/svg" xmlns:xlink="http://www.w3.org/1999/xlink" x="0px" y="0px"
	 viewBox="0 0 100 100" style="enable-background:new 0 0 100 100;" xml:space="preserve">
<title>Artboard 3</title>
<path d="M23.3,46.9c0.6,2.1,1.7,5.9,4.1,8.3c1,3.4,2.6,6.6,4.7,9.4v3.6c0,0.1-0.1,0.2-0.2,0.2c-9.3,2.2-31,9-31,26.2
	c0,1.9,1.5,3.4,3.4,3.4h91.3c1.9,0,3.4-1.5,3.3-3.4c0-17.2-21.7-24.1-31-26.2c-0.1,0-0.2-0.1-0.2-0.2v-3.7c2.2-2.8,3.8-6,4.7-9.4
	c2.5-2.4,3.5-6.2,4.1-8.3c0.9-3.3,1.9-8.2-0.7-11.6l-0.1-0.2c1.3-6.1,2.8-20.4-8.1-27.7c1.3-1.3,2-3.1,1.9-4.9
	c0-0.2-0.1-0.3-0.2-0.5C69.3,2,69.2,1.9,69,1.9c-0.1,0-13.8,1.5-20.3,0.2c-6.8-1.4-14.2,3.7-15.7,9c-2.5,0.3-4.9,1.6-6.5,3.6
	c-3,3.7-3.9,9.5-2.7,17.4c0.1,1,0.2,2,0.4,3l-0.1,0.2C21.4,38.7,22.4,43.6,23.3,46.9z M50,81.7c-5.8,0.1-11.2-2.6-14.7-7.3
	c1.5-0.8,2.6-2.2,3.2-3.8c1.5,1,3.2,1.8,4.9,2.4c4.3,1.5,8.9,1.5,13.2,0c1.7-0.6,3.4-1.5,4.9-2.5c0.6,1.6,1.7,3,3.2,3.8
	C61.2,79,55.8,81.8,50,81.7z M28.9,38.9c0.3-0.4,0.7-0.6,1.2-0.5h0.3c0.4,0,0.7-0.2,0.7-0.6c0-0.1,0.8-9.2,6.2-12.5
	c2.7-1.6,6.2-1.6,10.3,0.2c8.4,3.6,14.8,3.4,18.6,2.5c4.4,3.2,3.1,8.4,2.8,9.4v0.1c-0.1,0.2,0,0.4,0.1,0.6c0.1,0.2,0.4,0.3,0.6,0.2
	c0.5-0.1,1.1,0.1,1.4,0.5c0.4,0.5,0.9,2.1-0.3,6.3c-1.5,5.4-2.8,5.9-3.1,6c-0.3,0-0.5,0.2-0.6,0.5c-0.9,5.8-5.5,13-12.6,15.5
	c-2.9,1-6.1,1-9.1,0c-7.4-2.6-11.7-9.9-12.5-15.5c0-0.3-0.3-0.5-0.6-0.5c-0.4,0-1.6-0.5-3.1-6C28,41,28.5,39.5,28.9,38.9z
	 M81.3,45.1c1.8-2.9,1.8-6.6,0-9.5c-0.7-1.1-0.5-2.4,0.3-3.3l0.2-0.2c1.1-1.1,2.8-1.1,3.9,0c0.1,0.1,0.3,0.3,0.4,0.4
	c3,4.8,3,10.8,0,15.6c-0.8,1.3-2.5,1.6-3.8,0.8c-0.2-0.1-0.3-0.2-0.4-0.4l-0.2-0.2C80.7,47.5,80.6,46.1,81.3,45.1z M93.9,24.3
	c7.4,9.4,7.4,22.7,0,32.1c-1,1.2-2.7,1.4-3.9,0.4c-0.1-0.1-0.2-0.2-0.3-0.2l-0.1-0.1c-1-1-1-2.5-0.2-3.6c5.8-7.4,5.8-17.7,0-25.1
	c-0.9-1.1-0.8-2.7,0.2-3.6l0.1-0.1c1.1-1.1,2.8-1.1,3.9,0C93.8,24.1,93.9,24.2,93.9,24.3z M14,48.2c-3-4.8-3-10.8,0-15.6
	c0.8-1.3,2.5-1.6,3.8-0.8c0.2,0.1,0.3,0.2,0.4,0.4l0.1,0.2c0.9,0.9,1,2.3,0.3,3.3c-1.8,2.9-1.8,6.6,0,9.5c0.7,1.1,0.5,2.4-0.3,3.3
	l-0.1,0.2c-1.1,1.1-2.8,1.1-3.9,0C14.2,48.5,14.1,48.3,14,48.2z M6,56.4C-1.4,47-1.4,33.7,6,24.3c1-1.2,2.7-1.4,3.9-0.4
	c0.1,0.1,0.2,0.1,0.2,0.2l0.1,0.1c1,1,1.1,2.5,0.2,3.6c-5.8,7.4-5.8,17.7,0,25.1c0.8,1.1,0.8,2.6-0.2,3.6l-0.1,0.1
	c-1.1,1.1-2.8,1.1-3.9,0.1C6.2,56.6,6.1,56.5,6,56.4z"/>
<path d="M60,43c0-5.3-4.3-10-10-10s-10,4.7-10,10s4.3,10,10,10S60,48.3,60,43z M42,43c0-0.7,0.1-1.4,0.3-2h2.8
	C45,41.6,45,42.3,45,43s0,1.4,0.1,2h-2.8C42.1,44.4,42,43.7,42,43z M47,43c0-0.7,0-1.4,0.1-2H49v4h-1.9C47,44.4,47,43.7,47,43z
	 M51,35.6c0.6,0.7,1.2,1.8,1.6,3.4H51V35.6z M49,39h-1.6c0.4-1.6,1-2.8,1.6-3.4V39z M49,47v3.4c-0.6-0.7-1.2-1.8-1.6-3.4H49z M51,47
	h1.6c-0.4,1.6-1,2.8-1.6,3.4V47z M51,45v-4h1.9c0.1,0.6,0.1,1.3,0.1,2s0,1.4-0.1,2H51z M54.9,41h2.8c0.2,0.6,0.3,1.3,0.3,2
	s-0.1,1.4-0.3,2h-2.8c0.1-0.6,0.1-1.3,0.1-2S55,41.6,54.9,41z M56.9,39h-2.3c-0.2-1.2-0.6-2.3-1.1-3.2C55,36.5,56.1,37.6,56.9,39z
	 M46.4,35.8c-0.4,0.9-0.8,2-1,3.2h-2.3C43.9,37.6,45,36.5,46.4,35.8z M43.1,47h2.3c0.2,1.2,0.6,2.3,1.1,3.2
	C45,49.5,43.9,48.4,43.1,47z M53.6,50.2c0.4-0.9,0.8-2,1.1-3.2H57C56.1,48.4,55,49.5,53.6,50.2z"/>
</svg>
