<svg xmlns="http://www.w3.org/2000/svg" xmlns:xlink="http://www.w3.org/1999/xlink" version="1.1" x="0px" y="0px" viewBox="0 0 48 48" enable-background="new 0 0 48 48" xml:space="preserve"><g><path d="M44,9H19.3l3.5-3.5c0.4-0.4,0.4-1,0-1.4c-0.4-0.4-1-0.4-1.4,0l-3.1,3.1l-6.9-6.9c-0.4-0.4-1-0.4-1.4,0   c-0.4,0.4-0.4,1,0,1.4L17.1,9H4c-2.2,0-4,1.8-4,4v25.9c0,2.2,1.8,4,4,4h4.5V47c0,0.6,0.4,1,1,1h6.3c0.6,0,1-0.4,1-1v-4.1h14V47   c0,0.6,0.4,1,1,1h6.3c0.6,0,1-0.4,1-1v-4.1H44c2.2,0,4-1.8,4-4V13C48,10.8,46.2,9,44,9z M14.8,46h-4.3v-3.1h4.3V46z M37.2,46h-4.3   v-3.1h4.3V46z M46,38.9c0,1.1-0.9,2-2,2H4c-1.1,0-2-0.9-2-2V13c0-1.1,0.9-2,2-2h40c1.1,0,2,0.9,2,2V38.9z"></path><path d="M33.4,14H6c-0.6,0-1,0.4-1,1v21.8c0,0.6,0.4,1,1,1h27.4c0.6,0,1-0.4,1-1V15C34.4,14.5,34,14,33.4,14z M32.4,35.9H7V16h25.4   V35.9z"></path><path d="M38.4,19.9H41c0.6,0,1-0.4,1-1s-0.4-1-1-1h-2.7c-0.6,0-1,0.4-1,1S37.8,19.9,38.4,19.9z"></path><path d="M38.4,25.6H41c0.6,0,1-0.4,1-1c0-0.6-0.4-1-1-1h-2.7c-0.6,0-1,0.4-1,1C37.4,25.2,37.8,25.6,38.4,25.6z"></path><path d="M39.7,28.8c-1.9,0-3.5,1.6-3.5,3.5s1.6,3.5,3.5,3.5c1.9,0,3.5-1.6,3.5-3.5S41.6,28.8,39.7,28.8z M39.7,33.9   c-0.8,0-1.5-0.7-1.5-1.5c0-0.8,0.7-1.5,1.5-1.5c0.8,0,1.5,0.7,1.5,1.5C41.2,33.2,40.5,33.9,39.7,33.9z"></path></g></svg>