<svg xmlns="http://www.w3.org/2000/svg" data-name="Layer 1" viewBox="0 0 100 100" x="0px" y="0px"><title>39 all</title><g><path d="M64,27.33a2.5,2.5,0,0,0-3.48.17l-5.75,6.16-2-2.27a2.5,2.5,0,0,0-3.6-.15L41,39l3.45,3.62,6.3-6L52.84,39a2.5,2.5,0,0,0,3.7,0l6-6.39L65.19,35a2.5,2.5,0,0,0,3.42-.11l9.57-9.57V31.6h5V19.17a2.5,2.5,0,0,0-2.5-2.5H68.24v5H74.8l-8.07,8.07Z"></path><path d="M92,5.5H18A2.5,2.5,0,0,0,15.51,8V39.78h5V10.5h69v59H73.81v5H92a2.5,2.5,0,0,0,2.5-2.5V8A2.5,2.5,0,0,0,92,5.5Z"></path><path d="M29,43.5A12.5,12.5,0,1,0,41.49,56,12.51,12.51,0,0,0,29,43.5Zm0,20a7.5,7.5,0,1,1,7.5-7.5A7.51,7.51,0,0,1,29,63.5Z"></path><path d="M38.93,70.55a2.5,2.5,0,0,0-1.92.7,11.48,11.48,0,0,1-16,0,2.51,2.51,0,0,0-1.92-.7c-8,.58-13.57,6.18-13.57,13.61V92A2.5,2.5,0,0,0,8,94.5H50a2.5,2.5,0,0,0,2.5-2.5V84.16C52.49,76.73,46.92,71.13,38.93,70.55Zm8.57,19h-37V84.16c0-5.09,3.83-7.86,7.91-8.51a16.49,16.49,0,0,0,21.17,0c4.09.65,7.91,3.42,7.91,8.51Z"></path><path d="M55,49.5A10.5,10.5,0,1,0,65.49,60,10.51,10.51,0,0,0,55,49.5Zm0,16a5.5,5.5,0,1,1,5.5-5.5A5.51,5.51,0,0,1,55,65.5Z"></path><path d="M63,72.5H62a2.5,2.5,0,0,0-1.82.79A6.65,6.65,0,0,1,55,75.5v5a11.6,11.6,0,0,0,8-3A5.51,5.51,0,0,1,68.51,83v2.5H55v5H71a2.5,2.5,0,0,0,2.5-2.5V83A10.51,10.51,0,0,0,63,72.5Z"></path></g></svg>