<svg xmlns="http://www.w3.org/2000/svg" xmlns:xlink="http://www.w3.org/1999/xlink" version="1.1" x="0px" y="0px" viewBox="0 0 100 100" enable-background="new 0 0 100 100" xml:space="preserve"><g display="none"><rect x="-540.877" y="-877.172" display="inline" fill="#000000" width="1370.931" height="1263.231"></rect></g><g><g><path d="M81.079,10.885c-4.208,2.262-8.427,0.238-12.51-1.718c-4.028-1.932-11.057-2.605-11.501-2.605    c-1.45,0-2.629,1.179-2.629,2.629v32.115H27.583c-5.631,0-10.212,4.581-10.212,10.212v17.69c0,2.459,2,4.459,4.459,4.459h1.073    v18.435c0,2.459,2.001,4.459,4.459,4.459h8.435c2.459,0,4.459-2.001,4.459-4.459V50.887h14.182v17.786    c0,1.45,1.18,2.629,2.629,2.629c1.45,0,2.629-1.179,2.629-2.629V49.527c2.438-1.556,3.96-4.24,4.015-7.149l0.02-1.071h-4.035    V24.672c0.264-0.028,0.519-0.041,0.768-0.041c2.893,0,5.77,1.379,8.559,2.717c4.579,2.198,8.906,4.276,13.236,0.576l0.369-0.315    V10.051L81.079,10.885z"></path><path d="M31.58,39.74c5.393,0,9.78-4.388,9.78-9.78s-4.387-9.78-9.78-9.78s-9.78,4.388-9.78,9.78S26.188,39.74,31.58,39.74z"></path></g></g></svg>