<svg xmlns="http://www.w3.org/2000/svg" xmlns:xlink="http://www.w3.org/1999/xlink" version="1.1" x="0px" y="0px" viewBox="0 0 96 96" style="enable-background:new 0 0 96 96;" xml:space="preserve"><g><path style="" d="M19.164,0c6.311,0,11.427,5.012,11.427,11.195   c0,6.183-5.116,11.195-11.427,11.195S7.736,17.378,7.736,11.195C7.736,5.012,12.853,0,19.164,0z" fill-rule="evenodd" clip-rule="evenodd"></path><path style="" d="M76.836,0c6.311,0,11.427,5.012,11.427,11.195   c0,6.183-5.116,11.195-11.427,11.195c-6.311,0-11.427-5.012-11.427-11.195C65.409,5.012,70.525,0,76.836,0z" fill-rule="evenodd" clip-rule="evenodd"></path><path style="" d="M40.055,11.502l0.005,0c-0.004-0.103-0.016-0.203-0.016-0.307   c0-4.215,3.497-7.632,7.811-7.632s7.811,3.417,7.811,7.632l0.376,7.824c2.02-2.018,3.27-4.777,3.27-7.824   C59.312,5.012,54.183,0,47.856,0c-6.327,0-11.456,5.012-11.456,11.195c0,3.075,1.27,5.859,3.324,7.883L40.055,11.502z" fill-rule="evenodd" clip-rule="evenodd"></path><path d="M41.419,45.441l-18.667,7.808c-4.145,1.733-6.662,5.97-6.198,10.43l5.553,26.241c0.661,3.122,3.378,5.387,6.574,5.48   l20.367,0.597c3.562,0.092,6.884-1.784,8.638-4.878l19.082-33.66c1.134-2.001,0.463-4.539-1.512-5.721l0,0   c-1.682-1.007-3.836-0.734-5.213,0.661l-9.184,9.303c-2.282,2.311-6.227,0.785-6.352-2.456l-1.852-48.151   c-0.098-2.548-2.197-4.563-4.752-4.563h0c-2.534,0-4.623,1.982-4.75,4.507L41.419,45.441z"></path></g></svg>