<svg xmlns="http://www.w3.org/2000/svg" xmlns:xlink="http://www.w3.org/1999/xlink" version="1.1" x="0px" y="0px" viewBox="0 0 60 60" enable-background="new 0 0 60 60" xml:space="preserve"><g><path fill="#000000" d="M52.18,42.43l-5.6,8.04l-3.95-3.24c-0.43-0.35-1.06-0.29-1.41,0.14c-0.35,0.43-0.29,1.06,0.14,1.41   l4.79,3.93c0.18,0.15,0.4,0.23,0.63,0.23c0.05,0,0.09,0,0.14-0.01c0.28-0.04,0.52-0.19,0.68-0.42l6.21-8.93   c0.32-0.45,0.2-1.08-0.25-1.39C53.12,41.86,52.49,41.97,52.18,42.43z"></path><path fill="#000000" d="M31,26.02V15.88c0-0.55-0.45-1-1-1s-1,0.45-1,1v10.14c-1.44,0.37-2.57,1.52-2.9,2.98H19c-0.55,0-1,0.45-1,1   s0.45,1,1,1h7.18c0.49,1.66,2.01,2.88,3.82,2.88c2.21,0,4-1.79,4-4C34,28.02,32.72,26.47,31,26.02z M30,31.88c-1.1,0-2-0.9-2-2   s0.9-2,2-2s2,0.9,2,2S31.1,31.88,30,31.88z"></path><path fill="#000000" d="M30,9.88c0.55,0,1-0.45,1-1v-1c0-0.55-0.45-1-1-1s-1,0.45-1,1v1C29,9.43,29.45,9.88,30,9.88z"></path><path fill="#000000" d="M30,49.88c-0.55,0-1,0.45-1,1v1c0,0.55,0.45,1,1,1s1-0.45,1-1v-1C31,50.33,30.55,49.88,30,49.88z"></path><path fill="#000000" d="M51,30.88h1c0.55,0,1-0.45,1-1s-0.45-1-1-1h-1c-0.55,0-1,0.45-1,1S50.45,30.88,51,30.88z"></path><path fill="#000000" d="M9,28.88H8c-0.55,0-1,0.45-1,1s0.45,1,1,1h1c0.55,0,1-0.45,1-1S9.55,28.88,9,28.88z"></path><path fill="#000000" d="M44.85,16.03c0.26,0,0.51-0.1,0.71-0.29l0.71-0.71c0.39-0.39,0.39-1.02,0-1.41s-1.02-0.39-1.41,0   l-0.71,0.71c-0.39,0.39-0.39,1.02,0,1.41C44.34,15.93,44.59,16.03,44.85,16.03z"></path><path fill="#000000" d="M14.44,44.02l-0.71,0.71c-0.39,0.39-0.39,1.02,0,1.41c0.2,0.2,0.45,0.29,0.71,0.29s0.51-0.1,0.71-0.29   l0.71-0.71c0.39-0.39,0.39-1.02,0-1.41S14.83,43.63,14.44,44.02z"></path><path fill="#000000" d="M15.15,13.62c-0.39-0.39-1.02-0.39-1.41,0s-0.39,1.02,0,1.41l0.71,0.71c0.2,0.2,0.45,0.29,0.71,0.29   s0.51-0.1,0.71-0.29c0.39-0.39,0.39-1.02,0-1.41L15.15,13.62z"></path><path fill="#000000" d="M60,30C60,13.46,46.54,0,30,0S0,13.46,0,30s13.46,30,30,30c3.55,0,7.03-0.63,10.35-1.85   C42.3,59.32,44.57,60,47,60c7.17,0,13-5.83,13-13c0-2.43-0.68-4.7-1.85-6.65C59.37,37.03,60,33.55,60,30z M38.37,56.72   C35.67,57.57,32.86,58,30,58C14.56,58,2,45.44,2,30S14.56,2,30,2s28,12.56,28,28c0,2.86-0.43,5.67-1.28,8.38   c-0.08-0.09-0.17-0.17-0.25-0.25c-0.16-0.18-0.33-0.35-0.5-0.51c-0.16-0.15-0.32-0.29-0.48-0.44c-0.16-0.14-0.32-0.27-0.49-0.4   c-0.18-0.14-0.37-0.28-0.56-0.42c-0.16-0.11-0.33-0.22-0.5-0.33c-0.2-0.13-0.4-0.25-0.6-0.37c-0.18-0.1-0.36-0.19-0.54-0.28   c-0.2-0.1-0.41-0.21-0.62-0.3c-0.21-0.09-0.42-0.17-0.63-0.24c-0.2-0.07-0.39-0.15-0.59-0.22c-0.24-0.08-0.49-0.14-0.74-0.2   c-0.18-0.05-0.35-0.1-0.53-0.14c-0.3-0.06-0.6-0.1-0.9-0.15c-0.14-0.02-0.28-0.05-0.42-0.06C47.91,34.03,47.46,34,47,34   c-7.17,0-13,5.83-13,13c0,0.46,0.03,0.92,0.07,1.36c0.02,0.14,0.05,0.28,0.07,0.43c0.04,0.3,0.08,0.6,0.14,0.9   c0.04,0.18,0.09,0.36,0.14,0.54c0.06,0.25,0.12,0.5,0.2,0.74c0.06,0.2,0.14,0.4,0.22,0.6c0.08,0.21,0.15,0.42,0.24,0.62   c0.09,0.21,0.2,0.42,0.3,0.62c0.09,0.18,0.18,0.36,0.28,0.54c0.12,0.21,0.24,0.41,0.37,0.61c0.11,0.17,0.21,0.33,0.32,0.49   c0.14,0.19,0.28,0.38,0.42,0.56c0.13,0.16,0.26,0.32,0.39,0.48c0.14,0.17,0.29,0.33,0.44,0.49c0.16,0.17,0.33,0.33,0.5,0.5   C38.21,56.55,38.28,56.64,38.37,56.72z M47,58c-2.23,0-4.3-0.67-6.03-1.81c-0.37-0.24-0.71-0.5-1.04-0.78   c-0.06-0.05-0.12-0.11-0.17-0.16c-0.25-0.22-0.49-0.45-0.71-0.69c-0.1-0.1-0.2-0.21-0.29-0.32c-0.18-0.2-0.35-0.42-0.51-0.63   c-0.09-0.12-0.18-0.23-0.27-0.35c-0.2-0.29-0.39-0.6-0.57-0.91c-0.05-0.08-0.09-0.16-0.13-0.25c-0.17-0.32-0.32-0.64-0.45-0.97   c-0.05-0.13-0.1-0.26-0.14-0.39c-0.1-0.26-0.18-0.53-0.26-0.8c-0.04-0.14-0.08-0.28-0.11-0.42c-0.07-0.28-0.12-0.57-0.16-0.86   c-0.02-0.13-0.04-0.25-0.06-0.38C36.03,47.85,36,47.43,36,47c0-6.07,4.93-11,11-11c0.43,0,0.85,0.03,1.27,0.08   c0.13,0.02,0.26,0.04,0.38,0.06c0.29,0.04,0.58,0.1,0.86,0.16c0.14,0.03,0.29,0.07,0.43,0.11c0.27,0.07,0.54,0.16,0.8,0.26   c0.13,0.05,0.26,0.09,0.39,0.14c0.33,0.13,0.65,0.28,0.97,0.45c0.08,0.04,0.17,0.09,0.25,0.14c0.31,0.17,0.61,0.36,0.91,0.57   c0.12,0.08,0.24,0.18,0.35,0.27c0.22,0.16,0.43,0.33,0.63,0.51c0.11,0.1,0.22,0.19,0.32,0.29c0.24,0.23,0.47,0.46,0.68,0.71   c0.05,0.06,0.11,0.11,0.16,0.18c0.28,0.33,0.54,0.68,0.78,1.04C57.33,42.7,58,44.77,58,47C58,53.07,53.07,58,47,58z"></path></g></svg>