<svg xmlns="http://www.w3.org/2000/svg" xmlns:xlink="http://www.w3.org/1999/xlink" version="1.1" x="0px" y="0px" viewBox="0 0 100 100" style="enable-background:new 0 0 100 100;" xml:space="preserve"><style type="text/css">
	.st0{fill:none;stroke:#000000;stroke-width:5;stroke-miterlimit:10;}
</style><path d="M-75.3,36.3v12.9h3V34c0-2.2-1.8-4-4-4h-11.5c-2.2,0-4,1.8-4,4v15.2h3V36.3h1v34.4h5.3V50.2h1v20.6h5.3V36.3H-75.3z"></path><circle cx="-82" cy="24.8" r="3.8"></circle><circle cx="-115.7" cy="24.8" r="3.8"></circle><path d="M-90.3,46.9L-90.3,46.9c-0.8,0-1.5,0.7-1.5,1.5V50c0,0.8,0.7,1.5,1.5,1.5l0,0c0.8,0,1.5-0.7,1.5-1.5v-1.6  C-88.8,47.5-89.4,46.9-90.3,46.9z"></path><path d="M-73.8,46.9L-73.8,46.9c-0.8,0-1.5,0.7-1.5,1.5V50c0,0.8,0.7,1.5,1.5,1.5l0,0c0.8,0,1.5-0.7,1.5-1.5v-1.6  C-72.3,47.5-72.9,46.9-73.8,46.9z"></path><path d="M-85.1,64.7L-85.1,64.7c-1.4,0-2.6,1.2-2.6,2.6v3.4c0,1.4,1.2,2.6,2.6,2.6l0,0c1.4,0,2.6-1.2,2.6-2.6v-3.4  C-82.5,65.8-83.7,64.7-85.1,64.7z"></path><path d="M-78.9,64.7L-78.9,64.7c-1.4,0-2.6,1.2-2.6,2.6v3.4c0,1.4,1.2,2.6,2.6,2.6h0c1.4,0,2.6-1.2,2.6-2.6v-3.4  C-76.2,65.8-77.4,64.7-78.9,64.7z"></path><g><path d="M-184.3,34.4v12.9h3V32.1c0-2.2-1.8-4-4-4h-11.5c-2.2,0-4,1.8-4,4v15.2h3V34.4h1v34.4h5.3V48.3h1v20.6h5.3V34.4H-184.3z"></path><circle cx="-191" cy="22.9" r="3.8"></circle><path d="M-199.3,45L-199.3,45c-0.8,0-1.5,0.7-1.5,1.5v1.6c0,0.8,0.7,1.5,1.5,1.5l0,0c0.8,0,1.5-0.7,1.5-1.5v-1.6   C-197.8,45.7-198.4,45-199.3,45z"></path><path d="M-182.8,45L-182.8,45c-0.8,0-1.5,0.7-1.5,1.5v1.6c0,0.8,0.7,1.5,1.5,1.5l0,0c0.8,0,1.5-0.7,1.5-1.5v-1.6   C-181.3,45.7-181.9,45-182.8,45z"></path><path d="M-194.1,62.8L-194.1,62.8c-1.4,0-2.6,1.2-2.6,2.6v3.4c0,1.4,1.2,2.6,2.6,2.6l0,0c1.4,0,2.6-1.2,2.6-2.6v-3.4   C-191.5,64-192.7,62.8-194.1,62.8z"></path><path d="M-187.9,62.8L-187.9,62.8c-1.4,0-2.6,1.2-2.6,2.6v3.4c0,1.4,1.2,2.6,2.6,2.6h0c1.4,0,2.6-1.2,2.6-2.6v-3.4   C-185.2,64-186.4,62.8-187.9,62.8z"></path></g><g><path d="M-204.8,34.4v12.9h3V32.1c0-2.2-1.8-4-4-4h-11.5c-2.2,0-4,1.8-4,4v15.2h3V34.4h1v34.4h5.3V48.3h1v20.6h5.3V34.4H-204.8z"></path><circle cx="-211.5" cy="22.9" r="3.8"></circle><path d="M-219.8,45L-219.8,45c-0.8,0-1.5,0.7-1.5,1.5v1.6c0,0.8,0.7,1.5,1.5,1.5l0,0c0.8,0,1.5-0.7,1.5-1.5v-1.6   C-218.3,45.7-218.9,45-219.8,45z"></path><path d="M-203.3,45L-203.3,45c-0.8,0-1.5,0.7-1.5,1.5v1.6c0,0.8,0.7,1.5,1.5,1.5l0,0c0.8,0,1.5-0.7,1.5-1.5v-1.6   C-201.8,45.7-202.4,45-203.3,45z"></path><path d="M-214.6,62.8L-214.6,62.8c-1.4,0-2.6,1.2-2.6,2.6v3.4c0,1.4,1.2,2.6,2.6,2.6l0,0c1.4,0,2.6-1.2,2.6-2.6v-3.4   C-212,64-213.2,62.8-214.6,62.8z"></path><path d="M-208.4,62.8L-208.4,62.8c-1.4,0-2.6,1.2-2.6,2.6v3.4c0,1.4,1.2,2.6,2.6,2.6h0c1.4,0,2.6-1.2,2.6-2.6v-3.4   C-205.7,64-206.9,62.8-208.4,62.8z"></path></g><g><path d="M-163.8,34.4v12.9h3V32.1c0-2.2-1.8-4-4-4h-11.5c-2.2,0-4,1.8-4,4v15.2h3V34.4h1v34.4h5.3V48.3h1v20.6h5.3V34.4H-163.8z"></path><circle cx="-170.5" cy="22.9" r="3.8"></circle><path d="M-178.8,45L-178.8,45c-0.8,0-1.5,0.7-1.5,1.5v1.6c0,0.8,0.7,1.5,1.5,1.5l0,0c0.8,0,1.5-0.7,1.5-1.5v-1.6   C-177.3,45.7-177.9,45-178.8,45z"></path><path d="M-162.3,45L-162.3,45c-0.8,0-1.5,0.7-1.5,1.5v1.6c0,0.8,0.7,1.5,1.5,1.5l0,0c0.8,0,1.5-0.7,1.5-1.5v-1.6   C-160.8,45.7-161.4,45-162.3,45z"></path><path d="M-173.6,62.8L-173.6,62.8c-1.4,0-2.6,1.2-2.6,2.6v3.4c0,1.4,1.2,2.6,2.6,2.6l0,0c1.4,0,2.6-1.2,2.6-2.6v-3.4   C-171,64-172.2,62.8-173.6,62.8z"></path><path d="M-167.4,62.8L-167.4,62.8c-1.4,0-2.6,1.2-2.6,2.6v3.4c0,1.4,1.2,2.6,2.6,2.6h0c1.4,0,2.6-1.2,2.6-2.6v-3.4   C-164.7,64-165.9,62.8-167.4,62.8z"></path></g><path d="M-126.6,50.4L-126.6,50.4c-0.8-0.2-1.3-1-1.1-1.8l4.4-16.7c0.2-0.8,1-1.3,1.8-1.1l0,0c0.8,0.2,1.3,1,1.1,1.8l-4.4,16.7  C-125,50.1-125.9,50.6-126.6,50.4z"></path><path d="M-104.8,50.4L-104.8,50.4c0.8-0.2,1.3-1,1.1-1.8l-4.4-16.7c-0.2-0.8-1-1.3-1.8-1.1l0,0c-0.8,0.2-1.3,1-1.1,1.8l4.4,16.7  C-106.4,50.1-105.6,50.6-104.8,50.4z"></path><path d="M-110.4,30H-121c-1.4,0-2.5,1.4-2.5,3.1h15.6C-107.9,31.4-109,30-110.4,30z"></path><polygon points="-112.7,30 -118.7,30 -125.6,55.4 -105.8,55.4 "></polygon><rect x="-121.7" y="31.5" width="11.8" height="4.8"></rect><path d="M-118.5,73.3L-118.5,73.3c-1.1,0-2-0.9-2-2v-16c0-1.1,0.9-2,2-2h0c1.1,0,2,0.9,2,2v16C-116.5,72.4-117.4,73.3-118.5,73.3z"></path><path d="M-112.9,73.3L-112.9,73.3c-1.1,0-2-0.9-2-2v-16c0-1.1,0.9-2,2-2h0c1.1,0,2,0.9,2,2v16C-110.9,72.4-111.8,73.3-112.9,73.3z"></path><rect x="-100.1" y="21" width="3.9" height="52.3"></rect><rect x="-227.8" y="9.9" class="st0" width="73.5" height="70.8"></rect><path d="M-174.3,4.2L-174.3,4.2c-1.4,0-2.6-1.2-2.6-2.6v-30.5c0-1.4,1.2-2.6,2.6-2.6l0,0c1.4,0,2.6,1.2,2.6,2.6V1.6  C-171.7,3-172.9,4.2-174.3,4.2z"></path><path d="M-172.5,3.4L-172.5,3.4c-1,1-2.7,1-3.7,0L-188-8.4c-1-1-1-2.7,0-3.7v0c1-1,2.7-1,3.7,0l11.8,11.8  C-171.4,0.7-171.4,2.4-172.5,3.4z"></path><path d="M-176.2,3.4L-176.2,3.4c1,1,2.7,1,3.7,0l11.8-11.8c1-1,1-2.7,0-3.7v0c-1-1-2.7-1-3.7,0l-11.8,11.8  C-177.2,0.7-177.2,2.4-176.2,3.4z"></path><path d="M-207.7-31.6L-207.7-31.6c-1.4,0-2.6,1.2-2.6,2.6V1.6c0,1.4,1.2,2.6,2.6,2.6l0,0c1.4,0,2.6-1.2,2.6-2.6v-30.5  C-205.1-30.4-206.2-31.6-207.7-31.6z"></path><path d="M-205.8-30.8L-205.8-30.8c-1-1-2.7-1-3.7,0L-221.3-19c-1,1-1,2.7,0,3.7v0c1,1,2.7,1,3.7,0l11.8-11.8  C-204.8-28.1-204.8-29.8-205.8-30.8z"></path><path d="M-209.5-30.8L-209.5-30.8c1-1,2.7-1,3.7,0L-194-19c1,1,1,2.7,0,3.7v0c-1,1-2.7,1-3.7,0l-11.8-11.8  C-210.6-28.1-210.6-29.8-209.5-30.8z"></path><circle cx="-263.5" cy="36.7" r="8.7"></circle><path d="M-245.2,66.4v-7.9c0-6.6-5.4-12-12-12h-12.8c-6.6,0-12,5.4-12,12v7.9H-245.2z"></path><g><path d="M-311.2,45.3H-324c-6.6,0-12,5.4-12,12v7.9h36.8v-7.9C-299.2,50.7-304.6,45.3-311.2,45.3z"></path><path d="M-326.3,29.4h2.4c-1.5,1.6-2.4,3.7-2.4,6c0,4.8,3.9,8.7,8.7,8.7s8.7-3.9,8.7-8.7c0-2.3-0.9-4.4-2.4-6h2.4v-5.1h5.2v6.1   l-0.9,2.1l1.3,3l1.3-3.2l-0.9-2v-6v-0.8v-0.8h-29.5v1.5h6.1V29.4z"></path></g><g><path d="M60.6,52.3H39.4c-10.9,0-19.9,8.9-19.9,19.9v13h60.8v-13C80.4,61.2,71.5,52.3,60.6,52.3z"></path><path d="M35.6,26.1h4c-2.5,2.6-4,6.1-4,9.9c0,7.9,6.4,14.4,14.4,14.4S64.4,43.9,64.4,36c0-3.8-1.5-7.3-4-9.9h4v-8.4h8.7v10.1   l-1.4,3.5l2.1,4.9l2.1-5.2l-1.4-3.3v-10v-1.2v-1.2H25.6v2.5h10V26.1z"></path></g><g><circle cx="-377.6" cy="35.8" r="8.7"></circle><path d="M-371.2,45.6H-384c-6.6,0-12,5.4-12,12v7.9h36.8v-7.9C-359.2,51-364.6,45.6-371.2,45.6z M-377.6,62l-1.4-4.8l0.5-7.5h1.8   l0.5,7.5L-377.6,62z M-376.7,49.4L-376.7,49.4l-1.7,0l-1.2-2.1h4.2L-376.7,49.4z"></path></g><g><circle cx="-493.5" cy="42.6" r="8.7"></circle><circle cx="-530.2" cy="4.2" r="8.7"></circle><circle cx="-456.7" cy="4.2" r="8.7"></circle><path d="M-438.3,26.1c0-6.6-5.4-12-12-12h-12.8c-4.5,0-8.4,2.5-10.4,6.1c-6.1-1.2-12.8-1.9-19.9-1.9c-7.1,0-13.8,0.7-19.9,1.9   c-2.1-3.6-6-6.1-10.4-6.1h-12.8c-6.6,0-12,5.4-12,12v7.9h7.9c-2.1,2.7-3.2,5.6-3.2,8.7c0,10.5,13.1,19.2,32,22.7v7h36.8v-7   c18.9-3.5,32-12.2,32-22.7c0-3.1-1.1-6-3.2-8.7h7.9V26.1z M-446.1,42.6c0,8.7-12.2,16.4-29.2,19.6c-1-5.6-5.9-9.8-11.8-9.8h-12.8   c-5.8,0-10.7,4.2-11.8,9.8c-17-3.3-29.2-11-29.2-19.6c0-3.1,1.5-6,4.3-8.7h24.7v-7.9c0-1-0.1-2-0.4-3c5.8-1.2,12.1-1.8,18.8-1.8   c6.6,0,13,0.7,18.8,1.8c-0.2,1-0.4,1.9-0.4,3v7.9h24.7C-447.6,36.6-446.1,39.5-446.1,42.6z"></path></g></svg>