<?xml version="1.0" encoding="utf-8"?>
<!-- Generator: Adobe Illustrator 21.1.0, SVG Export Plug-In . SVG Version: 6.00 Build 0)  -->
<svg version="1.1" id="Layer_1" xmlns="http://www.w3.org/2000/svg" xmlns:xlink="http://www.w3.org/1999/xlink" x="0px" y="0px"
	 viewBox="0 0 72.8 72.8" style="enable-background:new 0 0 72.8 72.8;" xml:space="preserve">
<style type="text/css">
	.st0{fill:#FFFFFF;}
</style>
<g>
	<path d="M41.9,35.3L41.9,35.3c0-1.1,0.6-2.1,1.6-2.6c5-2.6,8.3-7.8,8.2-13.8C51.5,11,45.1,4.4,37.2,4c-8.8-0.4-16,6.6-16,15.2
		c0,5.9,3.3,10.9,8.2,13.5c1,0.5,1.6,1.5,1.6,2.6l0,0c0,1.3-0.8,2.4-2.1,2.8c-9.2,2.9-16.1,11.1-17.1,21c-0.1,1.4,0.9,2.6,2.3,2.6
		h44.6c1.3,0,2.4-1.2,2.3-2.5c-1-9.9-7.9-18.1-17.1-21.1C42.7,37.7,41.9,36.6,41.9,35.3z"/>
</g>
<circle class="st0" cx="36.6" cy="10.6" r="1.2"/>
<polygon class="st0" points="37.5,21.3 37.5,12.7 34.2,12.7 34.2,14.3 35.8,14.3 35.8,21.3 33.8,21.3 33.8,23 39.5,23 39.5,21.3 "/>
</svg>
