<svg xmlns="http://www.w3.org/2000/svg" xmlns:xlink="http://www.w3.org/1999/xlink" version="1.1" x="0px" y="0px" viewBox="0 0 100 100" enable-background="new 0 0 100 100" xml:space="preserve"><path d="M50,13.5c-20.126,0-36.5,16.374-36.5,36.5S29.874,86.5,50,86.5S86.5,70.126,86.5,50S70.126,13.5,50,13.5z M20.5,50  c0-2.233,0.258-4.407,0.73-6.5h6.575c-0.351,2.148-0.55,4.346-0.55,6.594c0,2.183,0.191,4.316,0.526,6.406H21.23  C20.758,54.407,20.5,52.233,20.5,50z M34.256,50.094c0-2.258,0.232-4.459,0.662-6.594H46.5v13H34.868  C34.471,54.433,34.256,52.297,34.256,50.094z M53.5,24.563c4.084,3.347,7.228,7.398,9.307,11.938H53.5V24.563z M46.5,24.544V36.5  h-9.313C39.268,31.955,42.409,27.893,46.5,24.544z M46.5,63.5v11.987c-4.185-3.375-7.347-7.428-9.413-11.987H46.5z M53.5,75.469  V63.5h9.41C60.846,68.055,57.678,72.096,53.5,75.469z M53.5,56.5v-13h11.593c0.43,2.134,0.651,4.337,0.651,6.594  c0,2.202-0.209,4.34-0.607,6.406H53.5z M72.194,43.5h6.575c0.473,2.093,0.73,4.267,0.73,6.5s-0.258,4.407-0.73,6.5h-6.552  c0.335-2.09,0.526-4.224,0.526-6.406C72.744,47.846,72.545,45.648,72.194,43.5z M76.217,36.5h-5.826  c-1.774-4.913-4.525-9.414-8.155-13.332C68.253,25.923,73.187,30.641,76.217,36.5z M37.765,23.168  c-3.63,3.918-6.381,8.419-8.155,13.332h-5.826C26.813,30.641,31.747,25.923,37.765,23.168z M23.783,63.5h5.792  c1.769,4.902,4.521,9.398,8.157,13.318C31.729,74.061,26.808,69.35,23.783,63.5z M62.268,76.818  c3.637-3.92,6.389-8.416,8.157-13.318h5.792C73.192,69.35,68.271,74.061,62.268,76.818z"></path></svg>