<svg xmlns="http://www.w3.org/2000/svg" data-name="Layer 1" viewBox="0 0 100 100" x="0px" y="0px"><title>Artboard 16</title><path d="M28.25,10.61A9.61,9.61,0,1,1,18.64,1,9.61,9.61,0,0,1,28.25,10.61ZM92.16,94.24V57a7.4,7.4,0,0,0,6-7.26V31.21a7.4,7.4,0,0,0-7.4-7.4H9.27a7.4,7.4,0,0,0-7.4,7.4V49.78a7.4,7.4,0,0,0,6,7.26v37.2A4.7,4.7,0,0,0,12,99a4.56,4.56,0,0,0,5-4.54V67.85a1.73,1.73,0,0,1,1.39-1.74,1.67,1.67,0,0,1,2,1.65V94.24A4.7,4.7,0,0,0,24.42,99a4.56,4.56,0,0,0,5-4.54V34.91l0-.15H70.58l0,.15V94.44a4.56,4.56,0,0,0,5,4.54,4.7,4.7,0,0,0,4.12-4.74V67.76a1.67,1.67,0,0,1,2-1.65A1.73,1.73,0,0,1,83,67.85V94.44A4.56,4.56,0,0,0,88,99,4.7,4.7,0,0,0,92.16,94.24ZM71.75,10.61A9.61,9.61,0,1,0,81.36,1,9.61,9.61,0,0,0,71.75,10.61ZM53.53,43.51a3.2,3.2,0,0,0-5.45.44l-9.6,18.34a3.72,3.72,0,0,0,2.73,5.31l.42,0,5.76.27-1.48,9a3.19,3.19,0,0,0,2.63,3.66,3.32,3.32,0,0,0,.51,0,3.17,3.17,0,0,0,2.86-1.77l9.61-18.34a3.72,3.72,0,0,0-2.72-5.32l-.41,0-5.77-.27,1.48-9A3.16,3.16,0,0,0,53.53,43.51Z"></path></svg>