<?xml version="1.0" encoding="utf-8"?>
<!-- Generator: Adobe Illustrator 21.1.0, SVG Export Plug-In . SVG Version: 6.00 Build 0)  -->
<svg version="1.1" id="Layer_1" xmlns="http://www.w3.org/2000/svg" xmlns:xlink="http://www.w3.org/1999/xlink" x="0px" y="0px"
	 viewBox="0 0 100 100" style="enable-background:new 0 0 100 100;" xml:space="preserve">
<g>
	<path d="M20,36.2c4,0.4,7.3-2.9,6.9-6.9c-0.3-2.9-2.7-5.3-5.6-5.6c-4-0.4-7.3,2.9-6.9,6.9C14.7,33.5,17.1,35.9,20,36.2z"/>
	<path d="M24.4,65h-8.9c-3.2,0-5.9-1.6-6.7-5.2L6,46c-0.7-3.4-5.5-2.2-4.9,1.1l3,14.3C5.3,66.9,10,70,14.7,70h9.7
		C27.9,70,27.9,65,24.4,65z"/>
	<path d="M80.2,35.8c2.9-0.3,5.3-2.7,5.6-5.6c0.4-4-2.9-7.3-6.9-6.9C76,23.7,73.7,26,73.4,29C73,32.9,76.3,36.2,80.2,35.8z"/>
	<path d="M89.5,56.9L87,43c-1-5.7-5.3-7-8-5.2c-0.4,0.2-0.8,0.3-1.1,0.6L71,43.7l-10.4,0.2c-1.2,0-2.2,0.9-2.1,2.1
		c0,2.7,4.3,2,5.5,2H39c1.2,0,2.2-0.6,2.2-1.8s-0.9-2-2.1-2l-9.6-0.1l-6.9-5.3c-0.4-0.3-0.4-0.2-1.1-0.6c-2.7-1.8-7-0.5-8.1,5.2
		L10.7,57c-1.1,4.6,2,7,5.2,7H29c0,0,0,10.9,0,15.3c0,4.7,7,4.7,7,0.1V60.2c0-2.3-1.6-4.7-4.7-4.7H20.7L23.2,45l3.9,3
		c0.4,0.3,0.8,0.2,1.3,0.2l7.8-0.2h-9c-1.4,0-2.5,1.1-2.5,2.5s1.1,2.5,2.5,2.5H42v29c1,0,16,0,16,0V53h13.8c1.4,0,2.5-1.1,2.5-2.5
		S73.2,48,71.8,48H60.6h11.1c0.5,0,0.9-0.2,1.3-0.5l3.9-3L79.4,55H68.7c-3.1,0-4.8,2.5-4.8,4.8V79c0,4.7,7,4.6,7-0.1
		c0-4.4,0-15,0-15h13.4C87.5,64,90.6,61.5,89.5,56.9z"/>
	<path d="M94.2,45.8l-2.9,13.9c-0.8,3.6-3.5,5.3-6.7,5.3h-8.9c-3.5,0-3.5,5,0,5h9.7c4.7,0,9.4-3.3,10.6-8.8l3-14.5
		C99.7,43.4,94.9,42.4,94.2,45.8z"/>
</g>
</svg>
