<?xml version="1.0" encoding="utf-8"?>
<!-- Generator: Adobe Illustrator 21.1.0, SVG Export Plug-In . SVG Version: 6.00 Build 0)  -->
<svg version="1.1" id="Layer_1" xmlns="http://www.w3.org/2000/svg" xmlns:xlink="http://www.w3.org/1999/xlink" x="0px" y="0px"
	 viewBox="0 0 17.2 17.2" style="enable-background:new 0 0 17.2 17.2;" xml:space="preserve">
<g>
	<path d="M15.3,5.1c-0.4-0.4-1-0.4-1.4,0c-1.3,1.3-3.3,1.3-4.6,0c-2-2-5.4-2-7.4,0c-0.4,0.4-0.4,1,0,1.4s1,0.4,1.4,0
		c0.4-0.4,0.8-0.6,1.3-0.8v7.8c0,0.6,0.4,1,1,1s1-0.4,1-1V5.8c0.5,0.2,0.9,0.4,1.3,0.8C8.6,7.3,9.6,7.8,10.6,8v5.6c0,0.6,0.4,1,1,1
		s1-0.4,1-1V8c1-0.2,1.9-0.7,2.7-1.4C15.7,6.1,15.7,5.5,15.3,5.1z"/>
</g>
</svg>
