<svg xmlns="http://www.w3.org/2000/svg" xmlns:sodipodi="http://sodipodi.sourceforge.net/DTD/sodipodi-0.dtd" viewBox="0 0 100 100" x="0px" y="0px"><path d="m 36.71875,33.4375 c -2.537026,0 -5.042371,1.289563 -6.53125,3.34375 l -20,27.59375 c -1.7386372,2.398776 -1.9998215,5.79708 -0.65625,8.4375 1.343572,2.640421 4.224905,4.4375 7.1875,4.4375 l 14.3125,0 0,17.75 38.28125,0 0,-17.75 13.9375,0 c 2.96733,0 5.868383,-1.763979 7.21875,-4.40625 1.350367,-2.642274 1.085168,-6.066138 -0.65625,-8.46875 l -20,-27.59375 c -1.494445,-2.061867 -4.047252,-3.34375 -6.59375,-3.34375 -8.833333,0 -17.666667,0 -26.5,0 z M 33.25,48 l 33.53125,0 0,12.78125 c -2.637936,0 -4.961203,1.258121 -6.46875,3.1875 l -20.59375,0 C 38.211204,62.039371 35.88794,60.78125 33.25,60.78125 z m 7.8125,18.46875 17.875,0 c -0.275237,0.986755 -0.371806,1.900348 -0.375,2.78125 l -17.09375,0 c 0.02868,-0.96357 -0.208718,-1.974035 -0.40625,-2.78125 z M 41,71.75 l 18,0 c 0.366172,1.038714 0.962371,1.982856 1.6875,2.78125 l -21.34375,0 C 40.069017,73.731658 40.634119,72.789531 41,71.75 z m -3.75,4.4375 0,0.84375 25.53125,0 0,-0.84375 c 1.190012,0.66368 2.538536,1.0625 4,1.0625 l 0,15.25 -33.25,0 0,-15.25 c 1.354082,-0.04698 2.606593,-0.441001 3.71875,-1.0625 z"></path><path d="m 41.71121,53.391 21.0759,0 0,2.5 -21.0759,0 z" color="#000"></path><path d="m 37.238,58.676 25.54911,0 0,2.5 -25.54911,0 z" color="#000"></path><path d="m 37.238,79.815158 25.54911,0 0,2.5 -25.54911,0 z" color="#000"></path><path d="m 37.238,85.1 17.62054,0 0,2.5 -17.62054,0 z" color="#000"></path><path d="m 49.969251,5 c -6.62942,0 -12.65885,6.124525 -12.65625,12.857143 0.003,6.732616 6.03212,12.857143 12.65625,12.857143 6.62415,0 12.65401,-6.127229 12.65625,-12.857143 C 62.627701,11.121827 56.598741,5 49.969251,5 z"></path></svg>