<svg xmlns="http://www.w3.org/2000/svg" xmlns:xlink="http://www.w3.org/1999/xlink" version="1.1" x="0px" y="0px" viewBox="0 0 64 64" enable-background="new 0 0 64 64" xml:space="preserve"><g display="none"><rect x="-650.076" y="-102.113" display="inline" fill="#000000" width="824.576" height="414.113"></rect></g><g display="none"><circle display="inline" fill="#000000" cx="32" cy="32" r="32"></circle><polyline display="inline" fill="#000000" points="50.7,51.17 50.7,11.057 16.722,11.057 16.722,56.361 45.509,56.361    45.509,56.361 50.7,51.17  "></polyline><polygon display="inline" fill="#000000" points="49,49.472 49,9.333 15,9.333 15,54.667 43.806,54.667  "></polygon><polygon display="inline" fill="#000000" points="25.572,34.167 22.364,38.066 21.015,36.754 20.126,37.719 22.468,39.997    26.56,35.024  "></polygon><polygon display="inline" fill="#000000" points="25.572,41.753 22.364,45.652 21.015,44.341 20.126,45.305 22.468,47.583    26.56,42.611  "></polygon><line display="inline" fill="#000000" stroke="#E0E0E0" stroke-miterlimit="10" x1="29.079" y1="35.834" x2="43.874" y2="35.834"></line><line display="inline" fill="#000000" stroke="#E0E0E0" stroke-miterlimit="10" x1="29.079" y1="38.319" x2="43.874" y2="38.319"></line><line display="inline" fill="#000000" stroke="#E0E0E0" stroke-miterlimit="10" x1="29.079" y1="43.42" x2="43.874" y2="43.42"></line><line display="inline" fill="#000000" stroke="#E0E0E0" stroke-miterlimit="10" x1="29.079" y1="45.905" x2="43.874" y2="45.905"></line><polygon display="inline" fill="#000000" points="43.806,54.667 43.806,49.472 49,49.472  "></polygon><g display="inline"><path fill="#000000" d="M26.008,15.941c-3.579,0-6.48,2.901-6.48,6.48c0,3.579,2.901,6.48,6.48,6.48s6.48-2.901,6.48-6.48h-6.48    V15.941z"></path><path fill="#000000" d="M26.7,15.249v6.48h6.48C33.18,18.15,30.279,15.249,26.7,15.249z"></path><line fill="#000000" stroke="#DB2B42" stroke-miterlimit="10" x1="35.973" y1="25.57" x2="35.973" y2="27.849"></line><line fill="#000000" stroke="#8AD5DD" stroke-miterlimit="10" x1="37.972" y1="20.277" x2="37.972" y2="27.849"></line><line fill="#000000" stroke="#DB2B42" stroke-miterlimit="10" x1="39.972" y1="16.43" x2="39.972" y2="27.849"></line><line fill="#000000" stroke="#8AD5DD" stroke-miterlimit="10" x1="41.972" y1="20.036" x2="41.972" y2="27.849"></line><line fill="#000000" stroke="#DB2B42" stroke-miterlimit="10" x1="43.971" y1="23.713" x2="43.971" y2="27.849"></line></g><circle display="inline" fill="#000000" cx="32" cy="32" r="32"></circle><polyline display="inline" fill="#000000" points="50.7,51.17 50.7,11.057 16.722,11.057 16.722,56.361 45.509,56.361    45.509,56.361 50.7,51.17  "></polyline><polygon display="inline" fill="#000000" points="49,49.472 49,9.333 15,9.333 15,54.667 43.806,54.667  "></polygon><polygon display="inline" fill="#000000" points="25.572,34.167 22.364,38.066 21.015,36.754 20.126,37.719 22.468,39.997    26.56,35.024  "></polygon><polygon display="inline" fill="#000000" points="25.572,41.753 22.364,45.652 21.015,44.341 20.126,45.305 22.468,47.583    26.56,42.611  "></polygon><line display="inline" fill="#000000" stroke="#E0E0E0" stroke-miterlimit="10" x1="29.079" y1="35.834" x2="43.874" y2="35.834"></line><line display="inline" fill="#000000" stroke="#E0E0E0" stroke-miterlimit="10" x1="29.079" y1="38.319" x2="43.874" y2="38.319"></line><line display="inline" fill="#000000" stroke="#E0E0E0" stroke-miterlimit="10" x1="29.079" y1="43.42" x2="43.874" y2="43.42"></line><line display="inline" fill="#000000" stroke="#E0E0E0" stroke-miterlimit="10" x1="29.079" y1="45.905" x2="43.874" y2="45.905"></line><polygon display="inline" fill="#000000" points="43.806,54.667 43.806,49.472 49,49.472  "></polygon><g display="inline"><path fill="#000000" d="M26.008,15.941c-3.579,0-6.48,2.901-6.48,6.48c0,3.579,2.901,6.48,6.48,6.48s6.48-2.901,6.48-6.48h-6.48    V15.941z"></path><path fill="#000000" d="M26.7,15.249v6.48h6.48C33.18,18.15,30.279,15.249,26.7,15.249z"></path><line fill="#000000" stroke="#DB2B42" stroke-miterlimit="10" x1="35.973" y1="25.57" x2="35.973" y2="27.849"></line><line fill="#000000" stroke="#8AD5DD" stroke-miterlimit="10" x1="37.972" y1="20.277" x2="37.972" y2="27.849"></line><line fill="#000000" stroke="#DB2B42" stroke-miterlimit="10" x1="39.972" y1="16.43" x2="39.972" y2="27.849"></line><line fill="#000000" stroke="#8AD5DD" stroke-miterlimit="10" x1="41.972" y1="20.036" x2="41.972" y2="27.849"></line><line fill="#000000" stroke="#DB2B42" stroke-miterlimit="10" x1="43.971" y1="23.713" x2="43.971" y2="27.849"></line></g></g><g display="none"><circle display="inline" fill="#000000" cx="32" cy="32" r="32"></circle><polygon display="inline" points="49,49.472 49,9.333 15,9.333 15,54.667 43.806,54.667  "></polygon><polygon display="inline" fill="#000000" points="25.572,34.167 22.364,38.066 21.015,36.754 20.126,37.719 22.468,39.997    26.56,35.024  "></polygon><polygon display="inline" fill="#000000" points="25.572,41.753 22.364,45.652 21.015,44.341 20.126,45.305 22.468,47.583    26.56,42.611  "></polygon><line display="inline" fill="#000000" stroke="#999999" stroke-miterlimit="10" x1="29.079" y1="35.834" x2="43.874" y2="35.834"></line><line display="inline" fill="#000000" stroke="#999999" stroke-miterlimit="10" x1="29.079" y1="38.319" x2="43.874" y2="38.319"></line><line display="inline" fill="#000000" stroke="#999999" stroke-miterlimit="10" x1="29.079" y1="43.42" x2="43.874" y2="43.42"></line><line display="inline" fill="#000000" stroke="#999999" stroke-miterlimit="10" x1="29.079" y1="45.905" x2="43.874" y2="45.905"></line><polygon display="inline" fill="#000000" points="43.806,54.667 43.806,49.472 49,49.472  "></polygon><g display="inline"><path fill="#000000" d="M26.008,15.941c-3.579,0-6.48,2.901-6.48,6.48c0,3.579,2.901,6.48,6.48,6.48s6.48-2.901,6.48-6.48h-6.48    V15.941z"></path><path fill="#000000" d="M26.7,15.249v6.48h6.48C33.18,18.15,30.279,15.249,26.7,15.249z"></path><line fill="#000000" stroke="#DB2B42" stroke-miterlimit="10" x1="35.973" y1="25.57" x2="35.973" y2="27.849"></line><line fill="none" stroke="#000000" stroke-miterlimit="10" x1="37.972" y1="20.277" x2="37.972" y2="27.849"></line><line fill="#000000" stroke="#DB2B42" stroke-miterlimit="10" x1="39.972" y1="16.43" x2="39.972" y2="27.849"></line><line fill="none" stroke="#000000" stroke-miterlimit="10" x1="41.972" y1="20.036" x2="41.972" y2="27.849"></line><line fill="#000000" stroke="#DB2B42" stroke-miterlimit="10" x1="43.971" y1="23.713" x2="43.971" y2="27.849"></line></g></g><g display="none"><g display="inline"><polygon fill="#000000" points="56,56.667 56,0 8,0 8,64 48.667,64   "></polygon><polygon fill="#000000" points="22.926,35.059 18.396,40.564 16.492,38.712 15.236,40.074 18.543,43.29 24.32,36.27   "></polygon><polygon fill="#000000" points="22.926,45.769 18.396,51.274 16.492,49.422 15.236,50.784 18.543,54 24.32,46.98   "></polygon><line fill="#000000" stroke="#E0E0E0" stroke-miterlimit="10" x1="27.876" y1="37.413" x2="48.764" y2="37.413"></line><line fill="#000000" stroke="#E0E0E0" stroke-miterlimit="10" x1="27.876" y1="40.921" x2="48.764" y2="40.921"></line><line fill="#000000" stroke="#E0E0E0" stroke-miterlimit="10" x1="27.876" y1="48.123" x2="48.764" y2="48.123"></line><line fill="#000000" stroke="#E0E0E0" stroke-miterlimit="10" x1="27.876" y1="51.631" x2="48.764" y2="51.631"></line><polygon fill="#000000" points="48.667,64 48.667,56.667 56,56.667   "></polygon><g><path fill="#000000" d="M23.541,9.328c-5.052,0-9.148,4.096-9.148,9.148c0,5.052,4.096,9.148,9.148,9.148     s9.148-4.096,9.148-9.148h-9.148V9.328z"></path><path fill="#000000" d="M24.518,8.351v9.148h9.148C33.666,12.447,29.57,8.351,24.518,8.351z"></path><line fill="#000000" stroke="#DB2B42" stroke-miterlimit="10" x1="37.609" y1="22.922" x2="37.609" y2="26.14"></line><line fill="#000000" stroke="#8AD5DD" stroke-miterlimit="10" x1="40.432" y1="15.45" x2="40.432" y2="26.14"></line><line fill="#000000" stroke="#DB2B42" stroke-miterlimit="10" x1="43.255" y1="10.019" x2="43.255" y2="26.14"></line><line fill="#000000" stroke="#8AD5DD" stroke-miterlimit="10" x1="46.078" y1="15.11" x2="46.078" y2="26.14"></line><line fill="#000000" stroke="#DB2B42" stroke-miterlimit="10" x1="48.901" y1="20.301" x2="48.901" y2="26.14"></line></g><polygon fill="#000000" points="56,56.667 56,0 8,0 8,64 48.667,64   "></polygon><polygon fill="#000000" points="22.926,35.059 18.396,40.564 16.492,38.712 15.236,40.074 18.543,43.29 24.32,36.27   "></polygon><polygon fill="#000000" points="22.926,45.769 18.396,51.274 16.492,49.422 15.236,50.784 18.543,54 24.32,46.98   "></polygon><line fill="#000000" stroke="#E0E0E0" stroke-miterlimit="10" x1="27.876" y1="37.413" x2="48.764" y2="37.413"></line><line fill="#000000" stroke="#E0E0E0" stroke-miterlimit="10" x1="27.876" y1="40.921" x2="48.764" y2="40.921"></line><line fill="#000000" stroke="#E0E0E0" stroke-miterlimit="10" x1="27.876" y1="48.123" x2="48.764" y2="48.123"></line><line fill="#000000" stroke="#E0E0E0" stroke-miterlimit="10" x1="27.876" y1="51.631" x2="48.764" y2="51.631"></line><polygon fill="#000000" points="48.667,64 48.667,56.667 56,56.667   "></polygon><g><path fill="#000000" d="M23.541,9.328c-5.052,0-9.148,4.096-9.148,9.148c0,5.052,4.096,9.148,9.148,9.148     s9.148-4.096,9.148-9.148h-9.148V9.328z"></path><path fill="#000000" d="M24.518,8.351v9.148h9.148C33.666,12.447,29.57,8.351,24.518,8.351z"></path><line fill="#000000" stroke="#DB2B42" stroke-miterlimit="10" x1="37.609" y1="22.922" x2="37.609" y2="26.14"></line><line fill="#000000" stroke="#8AD5DD" stroke-miterlimit="10" x1="40.432" y1="15.45" x2="40.432" y2="26.14"></line><line fill="#000000" stroke="#DB2B42" stroke-miterlimit="10" x1="43.255" y1="10.019" x2="43.255" y2="26.14"></line><line fill="#000000" stroke="#8AD5DD" stroke-miterlimit="10" x1="46.078" y1="15.11" x2="46.078" y2="26.14"></line><line fill="#000000" stroke="#DB2B42" stroke-miterlimit="10" x1="48.901" y1="20.301" x2="48.901" y2="26.14"></line></g></g></g><g display="none"><g display="inline"><path d="M54.6,1.4v54.687L48.087,62.6H9.4V1.4H54.6 M56,0H8v64h40.667L56,56.667V0L56,0z"></path></g><polyline display="inline" fill="none" stroke="#000000" stroke-width="1.4" stroke-miterlimit="10" points="48.179,63.512    48.179,56.179 55.512,56.179  "></polyline><polygon display="inline" points="22.926,35.059 18.396,40.564 16.492,38.712 15.236,40.074 18.543,43.29 24.32,36.27  "></polygon><polygon display="inline" points="22.926,45.769 18.396,51.274 16.492,49.422 15.236,50.784 18.543,54 24.32,46.98  "></polygon><line display="inline" fill="none" stroke="#000000" stroke-width="1.4" stroke-miterlimit="10" x1="27.876" y1="37.413" x2="48.764" y2="37.413"></line><line display="inline" fill="none" stroke="#000000" stroke-width="1.4" stroke-miterlimit="10" x1="27.876" y1="40.921" x2="48.764" y2="40.921"></line><line display="inline" fill="none" stroke="#000000" stroke-width="1.4" stroke-miterlimit="10" x1="27.876" y1="48.123" x2="48.764" y2="48.123"></line><line display="inline" fill="none" stroke="#000000" stroke-width="1.4" stroke-miterlimit="10" x1="27.876" y1="51.631" x2="48.764" y2="51.631"></line><g display="inline"><path d="M21.541,11.613v6.863v2h2h6.863c-0.867,2.971-3.616,5.148-6.863,5.148c-3.941,0-7.148-3.206-7.148-7.148    C16.393,15.228,18.57,12.48,21.541,11.613 M23.541,9.328c-5.052,0-9.148,4.096-9.148,9.148c0,5.052,4.096,9.148,9.148,9.148    c5.052,0,9.148-4.096,9.148-9.148h-9.148V9.328L23.541,9.328z"></path></g><path display="inline" d="M24.518,8.351v9.148h9.148C33.666,12.447,29.57,8.351,24.518,8.351z"></path><line display="inline" fill="none" stroke="#000000" stroke-width="1.4" stroke-miterlimit="10" x1="37.609" y1="22.922" x2="37.609" y2="26.14"></line><line display="inline" fill="none" stroke="#000000" stroke-width="1.4" stroke-miterlimit="10" x1="40.432" y1="15.45" x2="40.432" y2="26.14"></line><line display="inline" fill="none" stroke="#000000" stroke-width="1.4" stroke-miterlimit="10" x1="43.255" y1="10.019" x2="43.255" y2="26.14"></line><line display="inline" fill="none" stroke="#000000" stroke-width="1.4" stroke-miterlimit="10" x1="46.078" y1="15.11" x2="46.078" y2="26.14"></line><line display="inline" fill="none" stroke="#000000" stroke-width="1.4" stroke-miterlimit="10" x1="48.901" y1="20.301" x2="48.901" y2="26.14"></line><polygon display="inline" points="22.926,35.059 18.396,40.564 16.492,38.712 15.236,40.074 18.543,43.29 24.32,36.27  "></polygon><polygon display="inline" points="22.926,45.769 18.396,51.274 16.492,49.422 15.236,50.784 18.543,54 24.32,46.98  "></polygon><path display="inline" d="M24.518,8.351v9.148h9.148C33.666,12.447,29.57,8.351,24.518,8.351z"></path></g><g display="none"><polygon display="inline" points="22.926,35.059 18.396,40.564 16.492,38.712 15.236,40.074 18.543,43.29 24.32,36.27  "></polygon><polygon display="inline" points="22.926,45.769 18.396,51.274 16.492,49.422 15.236,50.784 18.543,54 24.32,46.98  "></polygon><line display="inline" fill="none" stroke="#000000" stroke-width="1.4" stroke-miterlimit="10" x1="27.876" y1="37.413" x2="48.764" y2="37.413"></line><line display="inline" fill="none" stroke="#000000" stroke-width="1.4" stroke-miterlimit="10" x1="27.876" y1="40.921" x2="48.764" y2="40.921"></line><line display="inline" fill="none" stroke="#000000" stroke-width="1.4" stroke-miterlimit="10" x1="27.876" y1="48.123" x2="48.764" y2="48.123"></line><line display="inline" fill="none" stroke="#000000" stroke-width="1.4" stroke-miterlimit="10" x1="27.876" y1="51.631" x2="48.764" y2="51.631"></line><g display="inline"><path d="M21.541,11.613v6.863v2h2h6.863c-0.867,2.971-3.616,5.148-6.863,5.148c-3.941,0-7.148-3.206-7.148-7.148    C16.393,15.228,18.57,12.48,21.541,11.613 M23.541,9.328c-5.052,0-9.148,4.096-9.148,9.148c0,5.052,4.096,9.148,9.148,9.148    c5.052,0,9.148-4.096,9.148-9.148h-9.148V9.328L23.541,9.328z"></path></g><path display="inline" d="M24.518,8.351v9.148h9.148C33.666,12.447,29.57,8.351,24.518,8.351z"></path><line display="inline" fill="none" stroke="#000000" stroke-width="1.4" stroke-miterlimit="10" x1="37.609" y1="22.922" x2="37.609" y2="26.14"></line><line display="inline" fill="none" stroke="#000000" stroke-width="1.4" stroke-miterlimit="10" x1="40.432" y1="15.45" x2="40.432" y2="26.14"></line><line display="inline" fill="none" stroke="#000000" stroke-width="1.4" stroke-miterlimit="10" x1="43.255" y1="10.019" x2="43.255" y2="26.14"></line><line display="inline" fill="none" stroke="#000000" stroke-width="1.4" stroke-miterlimit="10" x1="46.078" y1="15.11" x2="46.078" y2="26.14"></line><line display="inline" fill="none" stroke="#000000" stroke-width="1.4" stroke-miterlimit="10" x1="48.901" y1="20.301" x2="48.901" y2="26.14"></line><polygon display="inline" points="22.926,35.059 18.396,40.564 16.492,38.712 15.236,40.074 18.543,43.29 24.32,36.27  "></polygon><polygon display="inline" points="22.926,45.769 18.396,51.274 16.492,49.422 15.236,50.784 18.543,54 24.32,46.98  "></polygon><path display="inline" d="M24.518,8.351v9.148h9.148C33.666,12.447,29.57,8.351,24.518,8.351z"></path><g display="inline"><path d="M51.231,1.4c1.858,0,3.369,1.511,3.369,3.369v54.462c0,1.858-1.511,3.369-3.369,3.369H12.769    c-1.858,0-3.369-1.511-3.369-3.369V4.769c0-1.858,1.511-3.369,3.369-3.369H51.231 M51.231,0H12.769C10.135,0,8,2.135,8,4.769    v54.462C8,61.865,10.135,64,12.769,64h38.462C53.865,64,56,61.865,56,59.231V4.769C56,2.135,53.865,0,51.231,0L51.231,0z"></path></g></g><g><rect x="27.876" y="36.713" width="20.888" height="1.4"></rect><rect x="27.876" y="40.221" width="20.888" height="1.4"></rect><rect x="27.876" y="47.423" width="20.888" height="1.4"></rect><rect x="27.876" y="50.931" width="20.888" height="1.4"></rect><path d="M23.541,27.623c5.052,0,9.148-4.096,9.148-9.148h-9.148V9.328c-5.052,0-9.148,4.096-9.148,9.148   S18.489,27.623,23.541,27.623z M21.541,11.613v6.863v2h2h6.863c-0.867,2.971-3.616,5.148-6.863,5.148   c-3.941,0-7.148-3.206-7.148-7.148C16.393,15.228,18.57,12.48,21.541,11.613z"></path><rect x="36.908" y="22.923" width="1.4" height="3.217"></rect><rect x="39.731" y="15.45" width="1.4" height="10.689"></rect><rect x="42.555" y="10.019" width="1.4" height="16.121"></rect><rect x="45.377" y="15.109" width="1.4" height="11.03"></rect><rect x="48.2" y="20.301" width="1.4" height="5.839"></rect><polygon points="18.396,40.564 16.492,38.712 15.236,40.074 18.543,43.29 24.32,36.27 22.926,35.059  "></polygon><polygon points="18.396,51.274 16.492,49.422 15.236,50.784 18.543,54 24.32,46.98 22.926,45.769  "></polygon><path d="M24.518,8.351v9.148h9.148C33.666,12.447,29.57,8.351,24.518,8.351z"></path><path d="M56,0H8v64h48V0z M54.6,62.6H9.4V1.4h45.2V62.6z"></path></g><g display="none"><g display="inline"><polygon fill="#000000" stroke="#222020" stroke-miterlimit="10" points="48.535,63.75 8.189,63.75 8.189,0.25 55.811,0.25     55.811,56.474   "></polygon><polyline fill="#000000" stroke="#222020" stroke-miterlimit="10" points="48.433,63.648 48.433,56.372 55.708,56.372   "></polyline></g><polygon display="inline" fill="#000000" stroke="#222020" stroke-miterlimit="10" points="22.926,35.059 18.396,40.564    16.492,38.712 15.236,40.074 18.543,43.29 24.32,36.27  "></polygon><polygon display="inline" fill="#000000" stroke="#222020" stroke-miterlimit="10" points="22.926,45.769 18.396,51.274    16.492,49.422 15.236,50.784 18.543,54 24.32,46.98  "></polygon><line display="inline" fill="#000000" stroke="#222020" stroke-miterlimit="10" x1="27.876" y1="37.413" x2="48.764" y2="37.413"></line><line display="inline" fill="#000000" stroke="#222020" stroke-miterlimit="10" x1="27.876" y1="40.921" x2="48.764" y2="40.921"></line><line display="inline" fill="#000000" stroke="#222020" stroke-miterlimit="10" x1="27.876" y1="48.123" x2="48.764" y2="48.123"></line><line display="inline" fill="#000000" stroke="#222020" stroke-miterlimit="10" x1="27.876" y1="51.631" x2="48.764" y2="51.631"></line><g display="inline"><path fill="#000000" d="M22.541,10.389v8.087v1h1h8.087c-0.494,4.023-3.932,7.148-8.087,7.148c-4.493,0-8.148-3.655-8.148-8.148    C15.393,14.321,18.518,10.883,22.541,10.389 M23.541,9.328c-5.052,0-9.148,4.096-9.148,9.148c0,5.052,4.096,9.148,9.148,9.148    c5.052,0,9.148-4.096,9.148-9.148h-9.148V9.328L23.541,9.328z"></path></g><g display="inline"><path fill="#000000" d="M25.518,9.412c3.695,0.454,6.633,3.391,7.087,7.087h-7.087V9.412 M24.518,8.351v9.148h9.148    C33.666,12.447,29.57,8.351,24.518,8.351L24.518,8.351z"></path></g><line display="inline" fill="#000000" stroke="#222020" stroke-miterlimit="10" x1="37.609" y1="22.922" x2="37.609" y2="26.14"></line><line display="inline" fill="#000000" stroke="#222020" stroke-miterlimit="10" x1="40.432" y1="15.45" x2="40.432" y2="26.14"></line><line display="inline" fill="#000000" stroke="#222020" stroke-miterlimit="10" x1="43.255" y1="10.019" x2="43.255" y2="26.14"></line><line display="inline" fill="#000000" stroke="#222020" stroke-miterlimit="10" x1="46.078" y1="15.11" x2="46.078" y2="26.14"></line><line display="inline" fill="#000000" stroke="#222020" stroke-miterlimit="10" x1="48.901" y1="20.301" x2="48.901" y2="26.14"></line><polygon display="inline" fill="#000000" stroke="#222020" stroke-miterlimit="10" points="22.926,35.059 18.396,40.564    16.492,38.712 15.236,40.074 18.543,43.29 24.32,36.27  "></polygon><polygon display="inline" fill="#000000" stroke="#222020" stroke-miterlimit="10" points="22.926,45.769 18.396,51.274    16.492,49.422 15.236,50.784 18.543,54 24.32,46.98  "></polygon><g display="inline"><path fill="#000000" d="M25.518,9.412c3.695,0.454,6.633,3.391,7.087,7.087h-7.087V9.412 M24.518,8.351v9.148h9.148    C33.666,12.447,29.57,8.351,24.518,8.351L24.518,8.351z"></path></g></g><g display="none"><g display="inline"><g><g><g><path fill="#000000" d="M48.562,63.224c-6.529,0-13.059,0-19.588,0c-4.703,0-9.407,0-14.11,0c-1.022,0-6.033,0.298-6.238,0.062       c-0.02-0.023,0.196-3.828,0.196-4.421c0-3.621,0-7.243,0-10.864c0-9.786,0-19.572,0-29.358c0-6.166,0-12.332,0-18.498       C8.48,0.323,8.138,0.5,7.796,0.678c6.916,0,13.831,0,20.747,0c5.362,0,10.724,0,16.086,0c2.905,0,6.803-0.698,9.641,0       c1.183,0.291,0.362-0.212,0.509,0.064c0.317,0.595,0,2.232,0,2.892c0,3.953,0,7.907,0,11.86c0,10.373,0,20.745,0,31.118       c0,2.732,0.805,6.891,0,9.532c-0.721,2.365-5.231,5.494-7.182,7.446c-0.352,0.353,1.047,0.226,1.327-0.053       c2.542-2.543,6.741-5.139,7.304-8.676c0.897-5.64,0-12.166,0-17.867c0-12.283,0-24.566,0-36.849       C56.228-0.008,55.883,0,55.805,0C40.003,0,24.201,0,8.398,0C8.121,0,7.373,0.154,7.373,0.533c0,21.075,0,42.149,0,63.224       c0,0.153,0.345,0.145,0.423,0.145c13.388,0,26.776,0,40.164,0C48.414,63.902,49.527,63.224,48.562,63.224z"></path></g></g><g><g><path fill="#000000" d="M48.894,63.407c0-2.415,0-4.83,0-7.244c-0.266,0.196-0.532,0.393-0.797,0.589c2.414,0,4.828,0,7.243,0       c0.831,0,1.109-1.07,0.126-1.07c-2.414,0-4.828,0-7.243,0c-0.286,0-0.797,0.247-0.797,0.589c0,2.415,0,4.83,0,7.244       C47.425,64.277,48.894,64.065,48.894,63.407L48.894,63.407z"></path></g></g></g><g><g><path fill="#000000" d="M22.177,34.844c-1.503,1.827-3.006,3.654-4.51,5.481c0.42-0.048,0.839-0.096,1.259-0.144      c-0.632-0.615-1.263-1.229-1.895-1.844c-0.313-0.305-0.987-0.151-1.259,0.144c-0.417,0.452-0.833,0.904-1.25,1.356      c-0.103,0.112-0.222,0.31-0.08,0.448c1.097,1.067,2.194,2.134,3.291,3.201c0.302,0.294,1.005,0.165,1.259-0.144      c1.917-2.33,3.834-4.66,5.751-6.989c0.09-0.11,0.234-0.315,0.08-0.448c-0.463-0.402-0.925-0.804-1.388-1.206      c-0.42-0.365-1.782,0.207-1.339,0.592c0.341,0.296,0.757,0.845,1.171,1.017c0.271,0.113,0.458-0.409,0.119-0.044      c-0.679,0.73-1.28,1.555-1.913,2.325c-1.22,1.483-2.44,2.966-3.661,4.449c0.42-0.048,0.839-0.096,1.259-0.144      c-0.824-0.802-1.648-1.603-2.472-2.405c-0.431-0.419-0.664-0.984-0.845-0.407c0.128-0.406,0.911-0.989,1.196-1.298      c-0.42,0.048-0.839,0.096-1.259,0.144c0.632,0.615,1.263,1.229,1.895,1.844c0.302,0.294,1.005,0.165,1.259-0.144      c1.503-1.827,3.006-3.654,4.51-5.481C23.915,34.471,22.525,34.421,22.177,34.844z"></path></g></g><g><g><path fill="#000000" d="M22.177,45.507c-1.503,1.827-3.006,3.654-4.51,5.481c0.42-0.048,0.84-0.096,1.259-0.143      c-0.632-0.615-1.263-1.229-1.895-1.844c-0.314-0.305-0.987-0.152-1.259,0.143c-0.417,0.452-0.833,0.904-1.25,1.356      c-0.103,0.112-0.222,0.311-0.079,0.449c1.097,1.067,2.194,2.134,3.291,3.201c0.302,0.294,1.005,0.166,1.259-0.143      c1.917-2.33,3.834-4.66,5.751-6.989c0.091-0.11,0.233-0.315,0.079-0.449c-0.463-0.402-0.925-0.804-1.388-1.206      c-0.421-0.366-1.783,0.207-1.339,0.592c0.34,0.296,0.757,0.845,1.171,1.017c0.27,0.112,0.458-0.409,0.118-0.045      c-0.679,0.73-1.28,1.555-1.913,2.325c-1.22,1.483-2.44,2.966-3.661,4.449c0.42-0.048,0.84-0.096,1.259-0.143      c-0.824-0.802-1.648-1.603-2.472-2.405c-0.433-0.421-0.662-0.983-0.845-0.406c0.129-0.407,0.911-0.988,1.196-1.298      c-0.42,0.048-0.84,0.096-1.259,0.143c0.632,0.615,1.263,1.229,1.895,1.844c0.302,0.294,1.005,0.166,1.259-0.143      c1.503-1.827,3.006-3.654,4.51-5.481C23.915,45.135,22.526,45.083,22.177,45.507z"></path></g></g><g><g><path fill="#000000" d="M27.43,37.81c6.931,0,13.862,0,20.793,0c0.621,0,1.508-0.94,0.532-0.94c-6.931,0-13.862,0-20.793,0      C27.34,36.87,26.453,37.81,27.43,37.81L27.43,37.81z"></path></g></g><g><g><path fill="#000000" d="M27.227,41.134c6.931,0,13.862,0,20.793,0c0.315,0,1.641-0.601,0.937-0.601c-6.931,0-13.862,0-20.793,0      C27.849,40.532,26.523,41.134,27.227,41.134L27.227,41.134z"></path></g></g><g><g><path fill="#000000" d="M27.416,48.423c6.931,0,13.862,0,20.793,0c0.556,0,1.534-0.839,0.559-0.839c-6.931,0-13.862,0-20.793,0      C27.419,47.584,26.441,48.423,27.416,48.423L27.416,48.423z"></path></g></g><g><g><path fill="#000000" d="M27.63,52.024c6.931,0,13.862,0,20.793,0c0.825,0,1.114-1.055,0.13-1.055c-6.931,0-13.862,0-20.793,0      C26.936,50.969,26.646,52.024,27.63,52.024L27.63,52.024z"></path></g></g><g><g><path fill="#000000" d="M23.473,8.954c-8.444,0.455-13.777,10.879-6.504,16.876c6.364,5.249,15.817,0.486,16.243-7.43      c0.013-0.247-0.233-0.346-0.449-0.346c-1.398,0-2.796,0-4.194,0c-0.87,0-4.636,0.151-4.651,0.136      c0.107,0.104,0.188-3.707,0.188-4.345c0-1.518,0-3.036,0-4.554c0-0.629-1.452-0.335-1.452,0.17c0,3.036,0,6.072,0,9.108      c0,0.246,0.222,0.346,0.449,0.346c1.874,0,3.748,0,5.623,0c0.371,0,2.908-0.304,3.202,0c0.332,0.342-1.292,4.033-1.62,4.531      c-3.762,5.709-12.292,4.252-14.673-1.835C13.452,16.03,17.303,10.123,23.287,9.8C24.022,9.761,24.475,8.9,23.473,8.954z"></path></g></g><g><g><path fill="#000000" d="M23.622,8.472c0,3.036,0,6.072,0,9.108c0,0.253,0.218,0.422,0.47,0.422c3.035,0,6.071,0,9.106,0      c0.277,0,1.003-0.131,0.992-0.556c-0.144-5.325-4.256-9.387-9.576-9.53c-0.652-0.018-1.5,0.952-0.522,0.978      c4.801,0.129,8.507,3.894,8.637,8.686c0.331-0.185,0.661-0.371,0.992-0.556c-3.035,0-6.071,0-9.106,0      c0.157,0.141,0.313,0.281,0.47,0.422c0-3.036,0-6.072,0-9.108C25.083,7.629,23.622,7.878,23.622,8.472z"></path></g></g><g><g><path fill="#000000" d="M36.653,22.979c0,1.068,0,2.135,0,3.203c0,0.713,1.462,0.466,1.462-0.132c0-1.068,0-2.135,0-3.203      C38.115,22.134,36.653,22.381,36.653,22.979L36.653,22.979z"></path></g></g><g><g><path fill="#000000" d="M39.47,15.667c0,3.548,0,7.095,0,10.643c0,0.276,1.449,0.058,1.449-0.388c0-3.548,0-7.095,0-10.643      C40.919,15.003,39.47,15.221,39.47,15.667L39.47,15.667z"></path></g></g><g><g><path fill="#000000" d="M42.28,10.26c0,5.35,0,10.7,0,16.051c0,0.194,1.449,0.002,1.449-0.388c0-5.35,0-10.7,0-16.051      C43.729,9.677,42.28,9.87,42.28,10.26L42.28,10.26z"></path></g></g><g><g><path fill="#000000" d="M45.084,15.201c0,3.661,0,7.321,0,10.982c0,0.709,1.462,0.459,1.462-0.134c0-3.661,0-7.321,0-10.982      C46.546,14.358,45.084,14.608,45.084,15.201L45.084,15.201z"></path></g></g><g><g><path fill="#000000" d="M47.897,20.381c0,1.938,0,3.875,0,5.813c0,0.659,1.455,0.379,1.455-0.157c0-1.938,0-3.875,0-5.813      C49.353,19.566,47.897,19.845,47.897,20.381L47.897,20.381z"></path></g></g><g><g><path fill="#000000" d="M22.088,34.963c-1.503,1.827-3.006,3.654-4.51,5.481c0.45-0.086,0.9-0.173,1.35-0.259      c-0.632-0.615-1.263-1.229-1.895-1.844c-0.308-0.3-0.992-0.14-1.258,0.148c-0.417,0.452-0.833,0.904-1.25,1.356      c-0.101,0.11-0.224,0.3-0.082,0.438c1.097,1.067,2.194,2.134,3.291,3.201c0.368,0.358,1.073,0.077,1.35-0.259      c1.917-2.33,3.834-4.66,5.751-6.989c0.065-0.078,0.074-0.255-0.009-0.327c-0.463-0.402-0.925-0.804-1.388-1.206      c-0.412-0.358-1.773,0.211-1.34,0.587c0.385,0.334,0.822,0.646,1.171,1.017c0.24,0.255,0.298-0.321,0.03,0.077      c-0.55,0.819-1.287,1.564-1.913,2.325c-1.22,1.483-2.44,2.966-3.661,4.449c0.45-0.086,0.9-0.173,1.35-0.259      c-0.824-0.802-1.648-1.603-2.472-2.405c-0.405-0.394-0.681-0.997-0.848-0.417c0.114-0.396,0.921-0.999,1.196-1.298      c-0.419,0.049-0.839,0.099-1.258,0.148c0.632,0.615,1.263,1.229,1.895,1.844c0.368,0.358,1.073,0.077,1.35-0.259      c1.503-1.827,3.006-3.654,4.51-5.481C23.874,34.511,22.411,34.569,22.088,34.963z"></path></g></g><g><g><path fill="#000000" d="M22.102,45.679c-1.503,1.827-3.006,3.654-4.51,5.481c0.448-0.095,0.895-0.19,1.343-0.285      c-0.632-0.615-1.263-1.229-1.895-1.844c-0.302-0.294-1.106,0.028-1.343,0.285c-0.417,0.452-0.833,0.904-1.25,1.356      c-0.066,0.072-0.087,0.174-0.012,0.246c1.097,1.067,2.194,2.134,3.291,3.201c0.292,0.284,1.122-0.016,1.343-0.285      c1.917-2.33,3.834-4.66,5.751-6.989c0.058-0.071,0.094-0.175,0.012-0.246c-0.463-0.402-0.925-0.804-1.388-1.206      c-0.336-0.292-1.668,0.259-1.355,0.531c0.344,0.299,0.935,0.63,1.171,1.017c0.225,0.37,0.242-0.307,0.051,0.158      c-0.326,0.795-1.373,1.669-1.913,2.325c-1.22,1.483-2.44,2.966-3.661,4.449c0.448-0.095,0.895-0.19,1.343-0.285      c-0.824-0.802-1.648-1.603-2.472-2.405c-0.211-0.206-0.745-0.898-0.778-0.609c0.036-0.318,0.982-1.066,1.196-1.298      c-0.448,0.095-0.895,0.19-1.343,0.285c0.632,0.615,1.263,1.229,1.895,1.844c0.292,0.284,1.122-0.016,1.343-0.285      c1.503-1.827,3.006-3.654,4.51-5.481C23.781,45.216,22.362,45.363,22.102,45.679z"></path></g></g><g><g><path fill="#000000" d="M23.628,8.599c0,3.036,0,6.072,0,9.108c0,0.17,0.336,0.201,0.438,0.201c3.035,0,6.071,0,9.106,0      c0.328,0,1.022-0.156,1.01-0.589C34.04,12.025,29.85,8.15,24.638,8.01c-0.529-0.014-1.546,0.764-0.572,0.791      c4.907,0.132,8.538,4.084,8.668,8.907c0.337-0.196,0.674-0.393,1.01-0.589c-3.035,0-6.071,0-9.106,0      c0.146,0.067,0.292,0.134,0.438,0.201c0-3.036,0-6.072,0-9.108C25.077,7.792,23.628,8.055,23.628,8.599z"></path></g></g></g></g><g display="none"><g display="inline"><path d="M23.541,25.623c3.247,0,5.996-2.177,6.863-5.148h-6.863h-2v-2v-6.863c-2.971,0.867-5.148,3.616-5.148,6.863    C16.393,22.417,19.6,25.623,23.541,25.623z"></path><path d="M56,56.667V0H8v64h40.667L56,56.667z M48.764,48.823H27.876v-1.4h20.888V48.823z M48.764,41.621H27.876v-1.4h20.888    V41.621z M48.764,38.113H27.876v-1.4h20.888V38.113z M48.88,61.807v-4.928h4.928L48.88,61.807z M48.2,20.301h1.4v5.839h-1.4    V20.301z M45.377,15.109h1.4v11.03h-1.4V15.109z M42.555,10.019h1.4V26.14h-1.4V10.019z M39.731,15.45h1.4V26.14h-1.4V15.45z     M36.908,22.923h1.4v3.217h-1.4V22.923z M25.37,7.499c5.052,0,9.148,4.096,9.148,9.148H25.37V7.499z M23.541,9.328v9.148h9.148    c0,5.052-4.096,9.148-9.148,9.148c-5.052,0-9.148-4.096-9.148-9.148S18.489,9.328,23.541,9.328z M18.543,54l-3.306-3.215    l1.255-1.362l1.904,1.852l4.53-5.505l1.394,1.211L18.543,54z M18.543,43.29l-3.306-3.215l1.255-1.362l1.904,1.852l4.53-5.505    l1.394,1.211L18.543,43.29z M27.876,50.931h20.888v1.4H27.876V50.931z"></path></g></g><g display="none"><circle display="inline" fill="#000000" cx="32" cy="32" r="32"></circle><polygon display="inline" fill="#000000" points="8.75,0.75 55.513,0.75 55.513,56.087 47.479,63.513 8.75,63.513  "></polygon><polygon display="inline" points="48.344,56.156 48.375,60.6 11.405,60.6 11.405,3.396 52.6,3.396 52.6,56.156  "></polygon><path display="inline" d="M54.6,1.4v54.687L48.087,62.6H9.4V1.4H54.6 M56,0H8v64h40.667L56,56.667V0L56,0z"></path><polygon display="inline" fill="#000000" points="22.926,35.059 18.396,40.564 16.492,38.712 15.236,40.074 18.543,43.29    24.32,36.27  "></polygon><polygon display="inline" fill="#000000" points="22.926,45.769 18.396,51.274 16.492,49.422 15.236,50.784 18.543,54 24.32,46.98     "></polygon><line display="inline" fill="#000000" stroke="#FFFFFF" stroke-width="1.4" stroke-miterlimit="10" x1="27.876" y1="37.413" x2="48.764" y2="37.413"></line><line display="inline" fill="#000000" stroke="#FFFFFF" stroke-width="1.4" stroke-miterlimit="10" x1="27.876" y1="40.921" x2="48.764" y2="40.921"></line><line display="inline" fill="#000000" stroke="#FFFFFF" stroke-width="1.4" stroke-miterlimit="10" x1="27.876" y1="48.123" x2="48.764" y2="48.123"></line><line display="inline" fill="#000000" stroke="#FFFFFF" stroke-width="1.4" stroke-miterlimit="10" x1="27.876" y1="51.631" x2="48.764" y2="51.631"></line><polygon display="inline" fill="#000000" points="22.926,35.059 18.396,40.564 16.492,38.712 15.236,40.074 18.543,43.29    24.32,36.27  "></polygon><polygon display="inline" fill="#000000" points="22.926,45.769 18.396,51.274 16.492,49.422 15.236,50.784 18.543,54 24.32,46.98     "></polygon><line display="inline" fill="#000000" stroke="#FFFFFF" stroke-width="1.4" stroke-miterlimit="10" x1="27.876" y1="37.413" x2="48.764" y2="37.413"></line><line display="inline" fill="#000000" stroke="#FFFFFF" stroke-width="1.4" stroke-miterlimit="10" x1="27.876" y1="40.921" x2="48.764" y2="40.921"></line><line display="inline" fill="#000000" stroke="#FFFFFF" stroke-width="1.4" stroke-miterlimit="10" x1="27.876" y1="48.123" x2="48.764" y2="48.123"></line><line display="inline" fill="#000000" stroke="#FFFFFF" stroke-width="1.4" stroke-miterlimit="10" x1="27.876" y1="51.631" x2="48.764" y2="51.631"></line><g display="inline"><path fill="#000000" d="M23.737,9.942c-4.673,0-8.461,3.788-8.461,8.461c0,4.673,3.788,8.461,8.461,8.461s8.461-3.788,8.461-8.461    h-8.461V9.942z"></path></g><g display="inline"><line fill="#000000" stroke="#FFFFFF" stroke-width="1.4" stroke-miterlimit="10" x1="36.732" y1="22.922" x2="36.732" y2="26.14"></line><line fill="#000000" stroke="#F33052" stroke-width="1.4" stroke-miterlimit="10" x1="39.555" y1="15.45" x2="39.555" y2="26.14"></line><line fill="#000000" stroke="#FFFFFF" stroke-width="1.4" stroke-miterlimit="10" x1="42.378" y1="10.019" x2="42.378" y2="26.14"></line><line fill="#000000" stroke="#F33052" stroke-width="1.4" stroke-miterlimit="10" x1="45.201" y1="15.11" x2="45.201" y2="26.14"></line><line fill="#000000" stroke="#FFFFFF" stroke-width="1.4" stroke-miterlimit="10" x1="48.024" y1="20.301" x2="48.024" y2="26.14"></line></g><path display="inline" fill="#000000" d="M25.537,8.142v8.461h8.461C33.998,11.93,30.21,8.142,25.537,8.142z"></path></g></svg>