<?xml version="1.0" encoding="utf-8"?>
<!-- Generator: Adobe Illustrator 21.1.0, SVG Export Plug-In . SVG Version: 6.00 Build 0)  -->
<svg version="1.1" id="Layer_1" xmlns="http://www.w3.org/2000/svg" xmlns:xlink="http://www.w3.org/1999/xlink" x="0px" y="0px"
	 viewBox="0 0 100 100" style="enable-background:new 0 0 100 100;" xml:space="preserve">
<style type="text/css">
	.st0{fill:#FFFFFF;}
</style>
<g>
	<path d="M71.6,2.5c-10.7,0-19.4,6.3-19.4,14.1c0,4.7,3.1,8.8,7.9,11.4c-0.5,1.6-1.5,3.8-3.5,5.9c-0.7,0.7-0.1,1.9,0.9,1.7
		c4.4-0.9,8.9-3.2,11.8-5c0.8,0.1,1.5,0.1,2.3,0.1c10.7,0,19.4-6.3,19.4-14.1C91,8.8,82.3,2.5,71.6,2.5z"/>
	<path d="M63.5,69.7l-7.3-17.5c-0.5-1.4-1-2.4-3-3.1c-2-0.7-8.1-2.6-8.1-2.6c-2.2,1.3-4.8,2-7.6,2c-2.7,0-5.2-0.7-7.5-1.9
		c0,0-6.7,2-8.2,2.5c-1.4,0.5-2.5,1.7-3,3.1l-7.3,17.5c-0.5,1-0.7,2.1-0.8,3.2L8.8,94.3c-0.1,0.8,0.6,1.6,1.4,1.7l4.2,0.3
		c0.8,0.1,1.6-0.5,1.7-1.3L19,73.7l3.4-6.9c0.1,10.7-1.7,25-1.6,26.2c0.1,2.2,1,3.2,2.7,3.5c4.5,0.7,9.2,1,14,1c1.4,0,2.8,0,4.2-0.1
		l2-0.1c2.5-0.2,5-0.4,7.4-0.8c1.7-0.2,2.6-1.3,2.7-3.5c0.1-1.2-1.4-15.2-1.2-25.8l3.2,6.5L58.7,95c0.1,0.8,0.8,1.4,1.7,1.3l4.2-0.3
		c0.8-0.1,1.5-0.8,1.4-1.7l-1.9-21.4C64.3,71.8,64,70.7,63.5,69.7z"/>
	<circle cx="37.6" cy="32.9" r="12.6"/>
</g>
<path class="st0" d="M81.6,16.1c0-5.3-4.3-10-10-10s-10,4.7-10,10s4.3,10,10,10S81.6,21.4,81.6,16.1z M63.6,16.1
	c0-0.7,0.1-1.4,0.3-2h2.8c-0.1,0.6-0.1,1.3-0.1,2c0,0.7,0,1.4,0.1,2h-2.8C63.7,17.5,63.6,16.8,63.6,16.1z M68.6,16.1
	c0-0.7,0-1.4,0.1-2h1.9v4h-1.9C68.6,17.5,68.6,16.8,68.6,16.1z M72.6,8.7c0.6,0.7,1.2,1.8,1.6,3.4h-1.6V8.7z M70.6,12.1H69
	c0.4-1.6,1-2.8,1.6-3.4V12.1z M70.6,20.1v3.4c-0.6-0.7-1.2-1.8-1.6-3.4H70.6z M72.6,20.1h1.6c-0.4,1.6-1,2.8-1.6,3.4V20.1z
	 M72.6,18.1v-4h1.9c0.1,0.6,0.1,1.3,0.1,2c0,0.7,0,1.4-0.1,2H72.6z M76.5,14.1h2.8c0.2,0.6,0.3,1.3,0.3,2c0,0.7-0.1,1.4-0.3,2h-2.8
	c0.1-0.6,0.1-1.3,0.1-2C76.6,15.4,76.6,14.7,76.5,14.1z M78.5,12.1h-2.3c-0.2-1.2-0.6-2.3-1.1-3.2C76.6,9.6,77.7,10.7,78.5,12.1z
	 M68,8.9c-0.4,0.9-0.8,2-1,3.2h-2.3C65.5,10.7,66.6,9.6,68,8.9z M64.7,20.1H67c0.2,1.2,0.6,2.3,1.1,3.2
	C66.6,22.6,65.5,21.5,64.7,20.1z M75.2,23.3c0.4-0.9,0.8-2,1.1-3.2h2.3C77.7,21.5,76.6,22.6,75.2,23.3z"/>
</svg>
