<svg xmlns="http://www.w3.org/2000/svg" xmlns:xlink="http://www.w3.org/1999/xlink" version="1.1" x="0px" y="0px" viewBox="0 0 64 64" style="enable-background:new 0 0 64 64;" xml:space="preserve"><path d="M57,2H37c-2.757,0-5,2.243-5,5v12c0,2.757,2.243,5,5,5h5.5l-4.423,10.615c-0.184,0.44-0.03,0.95,0.366,1.216  C38.613,35.944,38.807,36,39,36c0.258,0,0.514-0.1,0.708-0.293L51.414,24H57c2.757,0,5-2.243,5-5V7C62,4.243,59.757,2,57,2z M60,19  c0,1.654-1.346,3-3,3h-6c-0.265,0-0.52,0.105-0.707,0.293l-8.426,8.426l3.056-7.334c0.129-0.309,0.095-0.661-0.091-0.939  S44.334,22,44,22h-7c-1.654,0-3-1.346-3-3V7c0-1.654,1.346-3,3-3h20c1.654,0,3,1.346,3,3V19z"></path><path d="M31.958,33.2C31.531,27.63,26.677,22,18,22S4.469,27.63,4.042,33.2C2.859,33.669,2,34.963,2,36.5C2,38.43,3.346,40,5,40  s3-1.57,3-3.5c0-1.501-0.818-2.774-1.958-3.27C6.461,28.622,10.617,24,18,24s11.539,4.622,11.958,9.23  C28.818,33.726,28,34.999,28,36.5c0,1.93,1.346,3.5,3,3.5s3-1.57,3-3.5C34,34.963,33.141,33.669,31.958,33.2z M5,38  c-0.533,0-1-0.701-1-1.5S4.467,35,5,35s1,0.701,1,1.5S5.533,38,5,38z M31,38c-0.533,0-1-0.701-1-1.5s0.467-1.5,1-1.5s1,0.701,1,1.5  S31.533,38,31,38z"></path><path d="M54.464,39.293l-2,2l-12,12c-0.11,0.109-0.192,0.243-0.242,0.391l-2,6c-0.12,0.359-0.026,0.756,0.242,1.023  c0.19,0.19,0.446,0.293,0.707,0.293c0.106,0,0.212-0.017,0.316-0.052l6-2c0.147-0.049,0.281-0.132,0.391-0.241l12-12l2-2  C60.602,43.984,61,43.022,61,42s-0.398-1.984-1.122-2.707C58.386,37.801,55.958,37.799,54.464,39.293z M41.608,55.851l1.712,1.712  l-2.568,0.856L41.608,55.851z M45.171,56.586L42.585,54l10.586-10.586L55.757,46L45.171,56.586z M58.464,43.293l-1.293,1.293  L54.585,42l1.293-1.293c0.713-0.713,1.873-0.713,2.586,0C58.81,41.053,59,41.512,59,42S58.81,42.947,58.464,43.293z"></path><path d="M31,48h-6.5l-1.875-2.5C24.742,43.998,26,41.62,26,39c0-4.411-3.589-8-8-8s-8,3.589-8,8c0,2.62,1.258,4.998,3.376,6.5  L11.5,48H5c-0.552,0-1,0.447-1,1v12c0,0.553,0.448,1,1,1h26c0.552,0,1-0.447,1-1V49C32,48.447,31.552,48,31,48z M12,39  c0-3.309,2.691-6,6-6s6,2.691,6,6c0,2.033-1.003,3.883-2.696,5h-6.607C13.003,42.883,12,41.033,12,39z M15.5,46H20.5l1.5,2H14  L15.5,46z M6,50h11v10H6V50z M30,60H19V50h11V60z"></path><path d="M44,7h-6c-0.552,0-1,0.447-1,1v11h2v-4h4v4h2V8C45,7.447,44.552,7,44,7z M39,13V9h4v4H39z"></path><rect x="47" y="17" width="2" height="2"></rect><rect x="51" y="17" width="2" height="2"></rect><rect x="55" y="17" width="2" height="2"></rect></svg>