<?xml version="1.0" encoding="utf-8"?>
<!-- Generator: Adobe Illustrator 21.1.0, SVG Export Plug-In . SVG Version: 6.00 Build 0)  -->
<svg version="1.1" id="Layer_1" xmlns="http://www.w3.org/2000/svg" xmlns:xlink="http://www.w3.org/1999/xlink" x="0px" y="0px"
	 viewBox="0 0 100 100" style="enable-background:new 0 0 100 100;" xml:space="preserve">
<style type="text/css">
	.st0{fill:none;stroke:#000000;stroke-width:2;stroke-linecap:round;stroke-miterlimit:10;}
</style>
<path d="M43.1,25.4v-4.5c-0.8-0.8-1.3-2-1.3-3.2v-6.4c0-4.1,3.3-7.5,7.5-7.5h1.4c4.1,0,7.5,3.3,7.5,7.5v6.4c0,1.2-0.5,2.3-1.3,3.2
	v4.5c1.7,0.9,5.3,2.9,8.6,5.7c1.1,0.9,1.7,2.3,1.7,3.7v4.4c0,0.9-0.8,1.7-1.7,1.7c-0.9,0-1.7-0.8-1.7-1.7v-4.4
	c0-0.4-0.2-0.8-0.5-1.1c-3.8-3.1-8-5.2-8.8-5.6c-0.7-0.3-1.1-1-1.1-1.8v-6.2c0-0.6,0.3-1.1,0.8-1.4c0.3-0.2,0.5-0.6,0.5-1v-6.4
	c0-2.2-1.8-4.1-4.1-4.1h-1.4c-2.2,0-4.1,1.8-4.1,4.1v6.4c0,0.4,0.2,0.8,0.5,1c0.5,0.3,0.8,0.8,0.8,1.4v6.2c0,0.8-0.4,1.5-1.1,1.8
	c-0.8,0.4-4.9,2.5-8.8,5.6C36.2,34,36,34.4,36,34.8v4.4c0,0.9-0.8,1.7-1.7,1.7s-1.7-0.8-1.7-1.7v-4.4c0-1.4,0.6-2.8,1.7-3.7
	C37.9,28.3,41.5,26.3,43.1,25.4z M87.5,87.1c-2.9-2.4-6-4.1-7.5-4.9v-3.8c0.7-0.8,1.1-1.8,1.1-2.9v-5.6c0-3.7-3-6.8-6.8-6.8h-1.2
	c-3.7,0-6.8,3-6.8,6.8v5.6c0,1.1,0.4,2.1,1.1,2.9v3.8c-1.5,0.8-4.6,2.5-7.5,4.9c-1,0.8-1.6,2.1-1.6,3.4v3.9c0,0.9,0.8,1.7,1.7,1.7
	s1.7-0.8,1.7-1.7v-3.9c0-0.3,0.1-0.6,0.4-0.8c3.3-2.8,7-4.6,7.7-4.9s1.1-1,1.1-1.8v-5.4c0-0.6-0.3-1.1-0.8-1.4
	c-0.2-0.2-0.4-0.4-0.4-0.7v-5.6c0-1.9,1.5-3.4,3.4-3.4h1.2c1.9,0,3.4,1.5,3.4,3.4v5.6c0,0.3-0.1,0.5-0.4,0.7
	c-0.5,0.3-0.8,0.8-0.8,1.4V83c0,0.8,0.4,1.4,1.1,1.8c0.7,0.3,4.3,2.2,7.7,4.9c0.2,0.2,0.4,0.5,0.4,0.8v3.9c0,0.9,0.8,1.7,1.7,1.7
	c0.9,0,1.7-0.8,1.7-1.7v-3.9C89.1,89.2,88.5,88,87.5,87.1z M39.7,95.8c0.9,0,1.7-0.8,1.7-1.7v-3.8c0-1.3-0.6-2.6-1.6-3.4
	c-2.9-2.4-5.9-4.1-7.4-4.9v-3.7c0.7-0.8,1.1-1.8,1.1-2.9v-5.6c0-3.7-3-6.7-6.7-6.7h-1.2c-3.7,0-6.7,3-6.7,6.7v5.6
	c0,1.1,0.4,2.1,1.1,2.9V82c-1.5,0.8-4.6,2.5-7.4,4.9c-1,0.8-1.6,2.1-1.6,3.4v3.8c0,0.9,0.8,1.7,1.7,1.7s1.7-0.8,1.7-1.7v-3.8
	c0-0.3,0.1-0.6,0.4-0.8c3.3-2.7,6.9-4.5,7.6-4.9c0.7-0.3,1.1-1,1.1-1.8v-5.4c0-0.6-0.3-1.1-0.8-1.4c-0.2-0.2-0.4-0.4-0.4-0.7v-5.6
	c0-1.8,1.5-3.3,3.3-3.3h1.2c1.8,0,3.3,1.5,3.3,3.3v5.6c0,0.3-0.1,0.5-0.4,0.7c-0.5,0.3-0.8,0.8-0.8,1.4v5.4c0,0.7,0.4,1.4,1.1,1.8
	c0.7,0.3,4.3,2.1,7.6,4.9c0.2,0.2,0.4,0.5,0.4,0.8v3.8C38,95,38.7,95.8,39.7,95.8z M73.7,60.4c0.9,0,1.7-0.8,1.7-1.7v-8.1
	c0-0.9-0.8-1.7-1.7-1.7h-22v-6.4c0-0.9-0.8-1.7-1.7-1.7s-1.7,0.8-1.7,1.7v6.4H26.1c-0.9,0-1.7,0.8-1.7,1.7v8.1
	c0,0.9,0.8,1.7,1.7,1.7c0.9,0,1.7-0.8,1.7-1.7v-6.4H72v6.4C72,59.7,72.8,60.4,73.7,60.4z"/>
<line class="st0" x1="37.3" y1="70.5" x2="45.3" y2="62.6"/>
<line class="st0" x1="37.3" y1="74.2" x2="44.3" y2="81.2"/>
</svg>
