<svg xmlns="http://www.w3.org/2000/svg" xmlns:xlink="http://www.w3.org/1999/xlink" version="1.1" x="0px" y="0px" viewBox="0 0 100 100" style="enable-background:new 0 0 100 100;" xml:space="preserve"><title>Asset 52</title><circle cx="35.7" cy="20.2" r="6.8"></circle><path d="M72.4,28.8H27.6c-5,0-9,4-9,9v18c0,2,1.6,3.6,3.6,3.6s3.6-1.6,3.6-3.6l0,0V38.7c0-0.5,0.4-0.9,0.9-0.9s0.9,0.4,0.9,0.9l0,0  v44.2c0,2,1.6,3.6,3.6,3.6s3.6-1.6,3.6-3.6V56.8c0-0.5,0.4-0.9,0.9-0.9s0.9,0.4,0.9,0.9l0,0V83c0,2,1.6,3.6,3.6,3.6s3.6-1.6,3.6-3.6  l0,0V38.7c0-0.5,0.4-0.9,0.9-0.9h10.5c0.5,0,0.9,0.4,0.9,0.9l0,0v44.2c0,2,1.6,3.6,3.6,3.6s3.6-1.6,3.6-3.6V56.8  c0-0.5,0.4-0.9,0.9-0.9c0.5,0,0.9,0.4,0.9,0.9l0,0V83c0,2,1.6,3.6,3.6,3.6s3.6-1.6,3.6-3.6V38.7c0-0.5,0.4-0.9,0.9-0.9  s0.9,0.4,0.9,0.9l0,0v17.1c0,2,1.6,3.6,3.6,3.6s3.6-1.6,3.6-3.6v-18C81.4,32.9,77.4,28.8,72.4,28.8L72.4,28.8z"></path><circle cx="64.3" cy="20.2" r="6.8"></circle></svg>