<?xml version="1.0" encoding="utf-8"?>
<!-- Generator: Adobe Illustrator 21.1.0, SVG Export Plug-In . SVG Version: 6.00 Build 0)  -->
<svg version="1.1" id="Layer_1" xmlns="http://www.w3.org/2000/svg" xmlns:xlink="http://www.w3.org/1999/xlink" x="0px" y="0px"
	 viewBox="0 0 30 30" style="enable-background:new 0 0 30 30;" xml:space="preserve">
<g transform="translate(-390 -140)">
	<g>
		<circle cx="394.5" cy="147" r="2"/>
		<polygon points="402.6,147.1 399.8,150 396,150 395,152 394,152 393,150 391,150 391,159 392,159 392,168 394,168 394,158 
			395,158 395,168 397,168 397,151 400.2,151 403.4,147.9 		"/>
		<polygon points="398,142 398,149 399,149 399,143 418,143 418,156 399,156 399,152 398,152 398,157 419,157 419,142 		"/>
	</g>
</g>
<path d="M25,9.3c0-3-2.4-5.7-5.7-5.7s-5.7,2.7-5.7,5.7S16,15,19.3,15S25,12.3,25,9.3z M14.7,9.3c0-0.4,0.1-0.8,0.2-1.1h1.6
	c-0.1,0.3-0.1,0.7-0.1,1.1c0,0.4,0,0.8,0.1,1.1h-1.6C14.8,10.1,14.7,9.7,14.7,9.3z M17.6,9.3c0-0.4,0-0.8,0.1-1.1h1.1v2.3h-1.1
	C17.6,10.1,17.6,9.7,17.6,9.3z M19.8,5.1c0.3,0.4,0.7,1,0.9,1.9h-0.9V5.1z M18.7,7.1h-0.9c0.2-0.9,0.6-1.6,0.9-1.9V7.1z M18.7,11.6
	v1.9c-0.3-0.4-0.7-1-0.9-1.9H18.7z M19.8,11.6h0.9c-0.2,0.9-0.6,1.6-0.9,1.9V11.6z M19.8,10.5V8.2h1.1C21,8.5,21,8.9,21,9.3
	c0,0.4,0,0.8-0.1,1.1H19.8z M22.1,8.2h1.6c0.1,0.3,0.2,0.7,0.2,1.1c0,0.4-0.1,0.8-0.2,1.1h-1.6c0.1-0.3,0.1-0.7,0.1-1.1
	C22.1,8.9,22.1,8.5,22.1,8.2z M23.2,7.1h-1.3c-0.1-0.7-0.3-1.3-0.6-1.8C22.1,5.6,22.7,6.3,23.2,7.1z M17.2,5.2
	c-0.2,0.5-0.5,1.1-0.6,1.8h-1.3C15.8,6.3,16.4,5.6,17.2,5.2z M15.4,11.6h1.3c0.1,0.7,0.3,1.3,0.6,1.8C16.4,13,15.8,12.4,15.4,11.6z
	 M21.3,13.4c0.2-0.5,0.5-1.1,0.6-1.8h1.3C22.7,12.4,22.1,13,21.3,13.4z"/>
</svg>
