<?xml version="1.0" encoding="utf-8"?><!DOCTYPE svg PUBLIC "-//W3C//DTD SVG 1.1//EN" "http://www.w3.org/Graphics/SVG/1.1/DTD/svg11.dtd"><svg version="1.1" xmlns="http://www.w3.org/2000/svg" xmlns:xlink="http://www.w3.org/1999/xlink" x="0px" y="0px" viewBox="0 0 80.807 100" enable-background="new 0 0 80.807 100" xml:space="preserve"><path d="M12.775,0C8.891,0,5.729,3.154,5.729,7.045c0,3.889,3.162,7.013,7.045,7.013c3.887,0,7.044-3.123,7.044-7.013
	C19.819,3.154,16.661,0,12.775,0z"></path><path d="M40.921,12.367c-0.134,0.034-0.256,0.112-0.344,0.219l-3.35,3.632l-0.751,0.375c-0.246,0.022-0.488,0.075-0.72,0.157h-0.219
	l-0.313-0.376l0.062-1.659c0.002-0.031,0.002-0.063,0-0.094l-0.094-1.471c-0.008-0.344-0.345-0.634-0.689-0.626
	c-0.344,0.008-0.634,0.313-0.626,0.657v1.503l-0.344,1.565c-0.012,0.021-0.022,0.041-0.031,0.062l-0.188,1.878l-0.345,0.908
	L28.868,23.2l-4.979-4.946c-0.009-0.012-0.022-0.02-0.031-0.032c-0.279-0.334-0.572-0.662-0.908-0.939
	c-0.018-0.014-0.045-0.017-0.062-0.031c-1.209-0.979-2.741-1.565-4.415-1.565h-0.438H8.736H7.295h-0.25
	C3.162,15.686,0,18.84,0,22.731c0,1.96,0.804,3.732,2.098,5.009c0.15,0.148,0.307,0.304,0.47,0.438l6.136,6.167
	c0.371,0.372,0.84,0.647,1.346,0.783l10.521,2.818l0.344,0.501l0.313,3.757c0.132,0.594,1.21,0.542,1.284-0.063l-0.031-3.444
	l0.344-0.062l2.505,3.695c0.188,0.287,0.621,0.376,0.908,0.188c0.287-0.188,0.376-0.622,0.188-0.908l-2.192-3.507l0.251-0.125
	l3.475,3.131c0.254,0.238,0.702,0.223,0.939-0.031c0.238-0.254,0.223-0.702-0.031-0.939h-0.031l-3.444-3.225l0.125-0.251
	l3.945,1.878c0.456,0.223,1.061-0.299,0.908-0.783c-0.044-0.17-0.16-0.321-0.313-0.407l-4.384-2.286l-0.783-0.908l-0.188-0.595
	l0.282-0.407l1.66-0.345c0.021-0.009,0.042-0.02,0.062-0.031l1.409-0.47c0.329-0.098,0.537-0.486,0.438-0.814
	c-0.098-0.328-0.486-0.537-0.814-0.438l-1.472,0.376l-1.565,0.062c-0.031-0.002-0.062-0.002-0.094,0l-1.847,0.313l-3.068-0.344
	l-7.295-1.941L7.264,24.39h1.409l4.227,4.227l6.889,1.847l1.69,0.188v-6.324l5.26,5.228c1.111,1.099,3.116,1.099,4.227,0
	l7.671-7.639l0.626-0.219l3.694,0.658c0.605,0.027,0.84-1.018,0.281-1.252l-3.318-0.845v-0.376l4.227-1.44
	c0.329-0.107,0.514-0.486,0.408-0.814c-0.107-0.328-0.487-0.545-0.814-0.438l-3.945,1.221l-0.062-0.282l3.913-2.567
	c0.489-0.397-0.119-1.364-0.688-1.096h-0.031l-3.976,2.504l-0.251-0.188l2.85-3.35c0.309-0.378-0.013-1.062-0.502-1.064
	c-0.021-0.001-0.041-0.001-0.062,0C40.963,12.366,40.943,12.366,40.921,12.367z"></path><path d="M3.851,30.902v12.68c0,0.453,0.078,0.897,0.251,1.315c0.173,0.418,0.432,0.807,0.751,1.127
	c0.303,0.303,0.671,0.548,1.064,0.72v34.253c-0.123,2.092,1.755,4.101,3.851,4.101c2.096,0,3.974-2.009,3.851-4.101V47.027h1.002
	v33.939v0.031c0.008,0.639-0.107,1.253-0.344,1.847c-0.017,0.043-0.044,0.082-0.062,0.125c0.844,1.468,2.719,2.264,4.352,1.816
	c1.632-0.447,2.87-2.096,2.849-3.788V44.334c0.049-0.194,0.051-0.396,0.062-0.595c-0.02-0.005-0.043,0.005-0.062,0
	c-0.108-0.029-0.21-0.074-0.313-0.125c-0.008-0.004-0.023,0.004-0.031,0c-0.11-0.057-0.217-0.136-0.313-0.219
	c-0.089-0.078-0.15-0.157-0.219-0.25c-0.065-0.085-0.109-0.155-0.156-0.25c-0.052-0.104-0.096-0.2-0.125-0.313
	c-0.029-0.104-0.053-0.205-0.062-0.313l-0.157-2.035l-0.125-1.44L9.8,36.068c-0.679-0.182-1.319-0.537-1.816-1.034L3.851,30.902z"></path><path d="M68.026,14.923c-3.887,0-7.056,3.132-7.056,7.023c0,3.89,3.168,7.023,7.056,7.023c3.883,0,7.057-3.134,7.057-7.023
	C75.083,18.055,71.909,14.923,68.026,14.923z"></path><path d="M58.322,46.543L56.99,46.71l-1.863-0.333c-0.031-0.002-0.069-0.002-0.101,0l-1.563-0.066l-1.465-0.366
	c-0.328-0.098-0.701,0.104-0.799,0.433c-0.098,0.328,0.104,0.734,0.433,0.833l1.397,0.466c0.021,0.011,0.046,0.024,0.067,0.033
	l1.664,0.333l0.266,0.399L54.86,49.04l-0.799,0.932l-4.36,2.264c-0.154,0.085-0.289,0.229-0.333,0.399
	c-0.153,0.482,0.443,1.021,0.898,0.799l3.961-1.864l0.134,0.233l-3.462,3.229h-0.033c-0.254,0.237-0.271,0.677-0.033,0.932
	c0.237,0.254,0.711,0.271,0.965,0.032l3.462-3.128L55.526,53l-2.197,3.495c-0.188,0.287-0.12,0.71,0.167,0.898
	s0.743,0.12,0.932-0.167l2.496-3.693l0.333,0.066l-0.033,3.429c0.06,0.485,0.755,0.609,1.099,0.333"></path><path d="M59.373,58.993v36.913C59.25,97.997,61.137,100,63.233,100c2.095,0,3.984-2.003,3.861-4.094V61.921h0.998v33.951v0.033
	c0.009,0.639-0.129,1.236-0.365,1.831c-0.019,0.041-0.05,0.09-0.067,0.133c0.844,1.467,2.728,2.276,4.36,1.831
	c1.631-0.447,2.884-2.104,2.863-3.795v-34.25c0.393-0.173,0.761-0.43,1.064-0.732c0.319-0.32,0.559-0.682,0.732-1.099
	c0.108-0.262,0.161-0.556,0.2-0.832c0.021-0.16,0.061-0.336,0.066-0.499c-0.002-0.011,0.002-0.025,0-0.033V44.347l1.265-1.265
	c0.162-0.135,0.349-0.318,0.499-0.466c1.294-1.277,2.097-3.032,2.097-4.993c0-3.891-3.173-7.056-7.056-7.056h-0.267h-1.432h-9.286
	h-0.433c-1.675,0-3.22,0.585-4.427,1.564c-0.019,0.015-0.05,0.018-0.066,0.033c-0.337,0.277-0.62,0.597-0.899,0.932
	c-0.01,0.011-0.024,0.021-0.033,0.033l-4.992,4.959l-4.095-4.094l-0.332-0.899l-0.2-1.897c-0.011-0.021-0.022-0.046-0.033-0.066
	l-0.333-1.564V28.07c0.009-0.344-0.289-0.657-0.632-0.666c-0.346-0.007-0.691,0.289-0.699,0.632l-0.1,1.464
	c-0.003,0.031-0.003,0.069,0,0.1l0.066,1.664l-0.3,0.366h-0.233c-0.232-0.081-0.453-0.11-0.698-0.133l-0.766-0.399l-3.329-3.628
	c-0.087-0.107-0.232-0.166-0.366-0.2c-0.021-0.001-0.045-0.001-0.067,0c-0.021-0.001-0.045-0.001-0.066,0v0
	c-0.489,0.003-0.808,0.687-0.499,1.065l2.863,3.328l-0.267,0.2l-3.961-2.496h-0.033c-0.57-0.268-1.188,0.7-0.699,1.098l3.927,2.563
	l-0.066,0.267l-3.927-1.232c-0.328-0.106-0.726,0.138-0.832,0.466c-0.107,0.328,0.071,0.692,0.399,0.799l4.227,1.431v0.399
	l-3.295,0.832c-0.559,0.234-0.339,1.292,0.267,1.265l3.695-0.666l0.632,0.2l7.655,7.656c1.111,1.098,3.117,1.098,4.228,0
	l5.259-5.226"></path></svg>