<svg xmlns="http://www.w3.org/2000/svg" xmlns:xlink="http://www.w3.org/1999/xlink" version="1.1" x="0px" y="0px" viewBox="0 0 100 100" enable-background="new 0 0 100 100" xml:space="preserve"><path d="M47.07,26c0,0,0,0-0.01,0c-1.78,0-3.46,0.84-4.72,2.1c-1.26,1.27-1.95,3.08-1.94,4.87c0,1.43,0.43,2.37,0.48,2.48  c0.17,0.35,0.53,0.56,0.9,0.56c0.14,0,0.29-0.03,0.43-0.1c0.49-0.23,0.71-0.83,0.48-1.33c0,0-0.29-0.65-0.29-1.63  c-0.01-1.26,0.48-2.45,1.36-3.34s2.06-1.41,3.31-1.41c0.55-0.01,1-0.52,1-1.07C48.07,26.58,47.62,26,47.07,26z"></path><path d="M83.146,43.782c-0.656-0.937-1.276-1.822-1.645-2.449c-1.399-2.387-1.513-2.687-0.964-5.432  c0.504-2.523-0.19-4.882-0.926-7.379c-0.222-0.751-0.448-1.521-0.648-2.32l-0.099-0.409C74.829,8.904,59.82,5.164,47.94,5  C21.592,4.606,14.846,26.885,14.576,34.709c-0.25,7.24,3.617,16.408,6.309,20.324c2.566,3.732,4.521,11.326,4.756,18.468  c0.212,6.442-7.099,18.83-8.238,20.717C17.042,94.854,17.312,96,18.396,96H61c1.229,0,1.431-1.108,1.437-1.471  c0.039-2.586,0.511-4.305,0.928-5.822c0.415-1.512,0.773-2.817,0.501-4.387c-0.56-3.214,0.229-6.225,2.011-7.671  c0.829-0.675,3.958-1.075,6.472-1.397c2.637-0.338,4.914-0.63,6.111-1.26c2.838-1.495,2.414-6.108,2.046-7.216  c-0.031-0.095-0.068-0.193-0.107-0.296c-0.236-0.627-0.367-0.973,0.347-1.686c1.439-1.439,1.339-2.726,0.789-3.848  c0.449-0.362,0.791-0.815,0.998-1.334c0.231-0.58,0.395-1.517-0.143-2.68c-0.216-0.468-0.263-0.85-0.138-1.138  c0.188-0.437,0.772-0.71,1.229-0.862c1.711-0.57,3.521-1.422,3.351-4.327C86.738,49.021,85.245,46.778,83.146,43.782z   M53.788,20.276l2-3.464c0.276-0.479,0.889-0.643,1.366-0.366c0.479,0.276,0.643,0.888,0.366,1.366l-2,3.464  c-0.186,0.321-0.521,0.5-0.867,0.5c-0.17,0-0.342-0.043-0.499-0.134C53.676,21.366,53.512,20.754,53.788,20.276z M46,15  c0-0.552,0.447-1,1-1s1,0.448,1,1v4c0,0.552-0.447,1-1,1s-1-0.448-1-1V15z M37.108,16.583c0.476-0.276,1.089-0.112,1.366,0.366  l2,3.464c0.276,0.478,0.112,1.09-0.366,1.366c-0.157,0.091-0.329,0.134-0.499,0.134c-0.346,0-0.682-0.179-0.867-0.5l-2-3.464  C36.466,17.472,36.63,16.86,37.108,16.583z M27,34c0-0.552,0.447-1,1-1h4c0.553,0,1,0.448,1,1s-0.447,1-1,1h-4  C27.447,35,27,34.552,27,34z M34.618,42.27l-3.465,2c-0.157,0.091-0.329,0.134-0.499,0.134c-0.346,0-0.682-0.179-0.867-0.5  c-0.276-0.479-0.112-1.09,0.366-1.366l3.465-2c0.477-0.276,1.089-0.113,1.366,0.366C35.261,41.382,35.097,41.994,34.618,42.27z   M35.03,26.767c-0.186,0.321-0.521,0.5-0.867,0.5c-0.17,0-0.342-0.043-0.499-0.134l-3.465-2c-0.479-0.276-0.643-0.888-0.366-1.366  s0.888-0.642,1.366-0.366l3.465,2C35.143,25.677,35.307,26.288,35.03,26.767z M49.802,58.853l-1.187,1.67  C48.427,60.711,48.1,61,47.795,61h-1.522c-0.305,0-0.532-0.239-0.818-0.501l-1.097-1.661C44.12,58.479,44.378,58,44.808,58h4.554  C49.801,58,50.056,58.495,49.802,58.853z M50,57h-6c-0.553,0-1-0.447-1-1s0.447-1,1-1h6c0.553,0,1,0.447,1,1S50.553,57,50,57z   M57.36,37.2c0,0.03-1.17,2.79-1.69,3.96c-1.02,2.34-1.83,4.18-2.32,5.81c-0.25,0.84-0.69,3.64-0.84,4.56  c-0.25,1.33-1.39,2.47-2.7,2.47H44.5c-0.01,0-0.01,0-0.01,0c-1.31,0-2.45-1.13-2.71-2.42c-0.16-0.95-0.61-3.63-0.87-4.47  c-0.49-1.63-1.31-3.52-2.35-5.84c-0.53-1.17-1.71-3.93-1.72-3.94c-0.12-0.28-0.74-1.78-0.75-3.97c-0.01-2.94,1.13-5.87,3.2-7.95  c2.07-2.08,4.83-3.41,7.77-3.41h0.03c2.92,0,5.68,1.3,7.75,3.36c2.08,2.07,3.24,4.91,3.24,7.85C58.09,35.13,57.68,36.42,57.36,37.2z   M59.599,25.538l3.464-2c0.477-0.277,1.09-0.113,1.366,0.366c0.276,0.478,0.112,1.09-0.366,1.366l-3.464,2  c-0.157,0.091-0.329,0.134-0.499,0.134c-0.346,0-0.682-0.179-0.867-0.5C58.956,26.426,59.12,25.814,59.599,25.538z M64.475,43.767  c-0.186,0.321-0.521,0.5-0.867,0.5c-0.17,0-0.342-0.043-0.499-0.134l-3.464-2c-0.479-0.276-0.643-0.888-0.366-1.366  c0.276-0.479,0.888-0.643,1.366-0.366l3.464,2C64.587,42.677,64.751,43.289,64.475,43.767z M66,35h-4c-0.553,0-1-0.448-1-1  s0.447-1,1-1h4c0.553,0,1,0.448,1,1S66.553,35,66,35z"></path></svg>