<svg xmlns="http://www.w3.org/2000/svg" xmlns:xlink="http://www.w3.org/1999/xlink" xmlns:a="http://ns.adobe.com/AdobeSVGViewerExtensions/3.0/" version="1.1" x="0px" y="0px" viewBox="-7 -14 100 100" overflow="visible" enable-background="new -7 -14 100 100" xml:space="preserve"><path d="M59.358,23h7.897L86,74.645h-7.664l-5.392-15.469H52.683l-5.601,15.469H39.91L59.358,23z M70.959,53.48l-7.951-22.816  L54.745,53.48H70.959z"></path><path fill="#000000" d="M52,59c-10-4-16-9-22-14c0,0,1.252,1.252,0,0c-6,5-20,13-20,13l-4-6c8-5,10-6,19-13  c-2.062-1.917-12-13-13-19h8c4,9,10,14,10,14c10-8,10-19,10-19h8c0,0-1,13-12,24l0,0c5,5,10,9,19,13L52,59z M0,15h56V7H33V0h-9v7H0  V15z"></path></svg>