<svg xmlns="http://www.w3.org/2000/svg" xmlns:xlink="http://www.w3.org/1999/xlink" version="1.1" x="0px" y="0px" viewBox="0 0 100 100" enable-background="new 0 0 100 100" xml:space="preserve"><g><path fill="none" d="M48.424,47.864c-0.261,0-0.503,0.102-0.686,0.285c-0.184,0.183-0.285,0.427-0.285,0.686   s0.102,0.505,0.285,0.686c0.363,0.368,1.003,0.368,1.371,0c0.181-0.183,0.282-0.427,0.282-0.686c0-0.26-0.102-0.502-0.28-0.686   C48.926,47.965,48.682,47.864,48.424,47.864z"></path><path fill="none" d="M48.655,74.493l1.502-5.287c-1.003-1.451-1.583-3.081-1.583-4.806c0-5.371,5.475-9.83,12.605-10.652   c-0.422-1.669-1.035-3.26-1.846-4.723c-0.784-1.416-1.729-2.635-2.77-3.676c-0.127,0.189-0.268,0.368-0.435,0.535   c-0.639,0.637-1.479,0.987-2.378,0.987s-1.744-0.35-2.379-0.983c-1.058-1.062-1.244-2.653-0.598-3.92   c-0.833-0.206-1.682-0.342-2.543-0.342c-4.303,0-8.407,2.686-10.977,7.186c-1.719,3.011-2.626,6.559-2.626,10.258   c0,10.354,6.834,24.227,13.825,24.227c3.616,0,7.112-3.773,9.627-8.879c-1.267-0.363-2.466-0.824-3.54-1.41L48.655,74.493z    M48.422,51.579c-0.732,0-1.423-0.285-1.943-0.804c-0.517-0.521-0.8-1.211-0.8-1.943c0-0.734,0.287-1.424,0.804-1.941   c1.033-1.033,2.847-1.033,3.884,0.002c0.517,0.517,0.8,1.204,0.8,1.938c0.002,0.734-0.283,1.424-0.802,1.942   C49.846,51.294,49.156,51.579,48.422,51.579z"></path><path fill="none" d="M53.754,41.915c-0.425,0-0.826,0.165-1.125,0.464c-0.051,0.051-0.07,0.116-0.113,0.173   c-0.475,0.623-0.453,1.51,0.113,2.081c0.598,0.592,1.646,0.596,2.248-0.004c0.143-0.143,0.242-0.309,0.318-0.484   c0.258-0.584,0.154-1.288-0.318-1.768C54.578,42.08,54.177,41.915,53.754,41.915z"></path><path fill="none" d="M59.998,34.428c-0.753,0-1.463,0.295-1.998,0.83c-1.104,1.103-1.104,2.897,0,4   c1.068,1.066,2.934,1.066,3.998,0c0.537-0.537,0.832-1.247,0.83-2.004c0-0.753-0.295-1.461-0.83-1.994   C61.465,34.723,60.753,34.428,59.998,34.428z"></path><path fill="none" d="M75.084,19.606c-1.093-0.511-2.281-0.832-3.54-0.928c0.603-1.021,0.976-2.197,0.994-3.463   c0-0.042,0.015-0.081,0.015-0.126c0-3.917-3.187-7.101-7.101-7.101c-1.022,0-1.987,0.226-2.868,0.617   c-0.33,0.145-3.467,2.429-3.467,2.429s-0.783-3.777-0.807-3.824c-1.218-2.171-3.513-3.658-6.174-3.658   c-1.742,0-3.316,0.655-4.556,1.699c-0.059,0.049-0.12,0.096-0.179,0.148c-0.897,0.808-1.575,1.835-1.968,3.007   c-0.868-0.861-1.912-1.532-3.067-1.988c-0.229-0.09-0.475-0.148-0.711-0.22c-0.832-0.252-1.698-0.429-2.612-0.429   c-4.625,0-8.409,3.479-8.982,7.947c-0.042,0.327-0.094,0.651-0.1,0.986c-0.002,0.055-0.014,0.108-0.014,0.165   c0,1.245,0.252,2.431,0.706,3.514c-0.588-0.12-1.196-0.185-1.817-0.185c-0.662,0-1.3,0.079-1.921,0.213   c-0.004,0.002-0.004,0.006-0.006,0.006c0,0,0-0.002,0-0.004c-4.091,0.887-7.172,4.529-7.172,8.883c0,2.547,1.058,4.848,2.751,6.5   c0.734,0.716,3.692,2.01,3.692,2.01s-2.75,1.711-3.401,2.59c-0.877,1.18-1.414,2.629-1.414,4.211c0,3.917,3.184,7.101,7.1,7.101   c1.724,0,3.286-0.643,4.517-1.668c0.012,0.01,0.761-0.604,1.16-0.921c0.012-0.021,0.021-0.043,0.031-0.063   c3.21-5.624,8.468-8.98,14.061-8.98c5.66,0,10.936,3.41,14.136,9.121c1.352,0.387,4.008,1.032,4.708,1.032   c3.554,0,6.476-2.626,6.991-6.037c0.058-0.35,0.109-0.7,0.109-1.064c0-0.883-0.181-1.721-0.479-2.5   c1.168-0.352,2.243-0.911,3.196-1.627c2.476-1.864,4.088-4.818,4.088-8.148C80.984,24.758,78.561,21.234,75.084,19.606z    M63.253,40.511c-0.871,0.871-2.024,1.349-3.255,1.349c-1.229,0-2.383-0.478-3.254-1.347c-1.792-1.794-1.792-4.716,0-6.51   c1.742-1.744,4.775-1.738,6.509,0.002c0.871,0.867,1.349,2.02,1.349,3.249C64.605,38.485,64.124,39.643,63.253,40.511z"></path><path d="M51.166,48.832c0-0.734-0.283-1.422-0.8-1.938c-1.037-1.036-2.851-1.036-3.884-0.002c-0.517,0.517-0.804,1.207-0.804,1.941   c0,0.732,0.283,1.424,0.8,1.942c0.521,0.52,1.211,0.805,1.943,0.805c0.734,0,1.424-0.285,1.942-0.805   C50.883,50.256,51.168,49.566,51.166,48.832z M49.109,49.52c-0.368,0.368-1.008,0.368-1.371,0   c-0.184-0.181-0.285-0.427-0.285-0.686c0-0.258,0.102-0.502,0.285-0.686c0.183-0.183,0.425-0.285,0.686-0.285   c0.258,0,0.502,0.102,0.688,0.285c0.179,0.183,0.28,0.425,0.28,0.686C49.392,49.093,49.29,49.337,49.109,49.52z"></path><path d="M56.744,34.003c-1.792,1.794-1.792,4.716,0,6.51c0.871,0.869,2.025,1.347,3.254,1.347c1.23,0,2.384-0.478,3.255-1.349   c0.871-0.869,1.353-2.026,1.349-3.257c0-1.229-0.478-2.382-1.349-3.249C61.52,32.265,58.486,32.259,56.744,34.003z M61.998,39.258   c-1.064,1.066-2.93,1.066-3.998,0c-1.104-1.103-1.104-2.897,0-4c0.535-0.535,1.245-0.83,1.998-0.83c0.755,0,1.467,0.295,2,0.832   c0.535,0.533,0.83,1.241,0.83,1.994C62.83,38.011,62.535,38.721,61.998,39.258z"></path><path d="M84.536,28.849c0-5.721-3.511-10.632-8.488-12.706c0.035-0.346,0.056-0.698,0.056-1.054c0-5.874-4.776-10.65-10.65-10.65   c-1.467,0-2.864,0.297-4.137,0.836C59.463,2.124,56.049,0,52.137,0c-3.072,0-5.837,1.316-7.784,3.404   c-1.615-0.753-3.41-1.184-5.308-1.184c-6.977,0-12.648,5.674-12.648,12.648c0,0.008,0,0.012,0,0.021   c-5.811,1.139-10.207,6.268-10.207,12.406c0,3.501,1.432,6.677,3.739,8.968c-1.322,1.776-2.114,3.965-2.114,6.343   c0,5.874,4.779,10.65,10.652,10.65c1.203,0,2.354-0.215,3.437-0.586c-0.539,2.055-0.822,4.206-0.822,6.398   c0,5.895,2.183,13.496,5.74,19.266l-4.661,19.311c-0.23,0.948,0.356,1.912,1.31,2.14c0.139,0.034,0.281,0.051,0.417,0.051   c0.802,0,1.528-0.547,1.726-1.358l3.959-16.406c2.569,2.892,5.587,4.779,8.885,4.779c3.233,0,6.164-1.822,8.651-4.638l3.969,16.429   C61.275,99.455,62,100,62.801,100c0.139,0,0.281-0.016,0.42-0.049c0.954-0.229,1.541-1.19,1.309-2.143l-4.68-19.375   c0.633-1.056,1.207-2.189,1.746-3.351c0.643,0.062,1.291,0.118,1.959,0.118c8.26,0,14.979-4.844,14.979-10.801   c0-5.664-6.081-10.315-13.782-10.76c-0.177-0.789-0.38-1.57-0.63-2.332c0.943,0.275,1.924,0.469,2.958,0.469   c5.873,0,10.649-4.778,10.649-10.652c0-0.14-0.015-0.275-0.021-0.415C81.785,38.32,84.536,33.905,84.536,28.849z M48.456,83.297   c-6.99,0-13.825-13.871-13.825-24.227c0-3.699,0.908-7.247,2.626-10.258c2.57-4.5,6.674-7.186,10.977-7.186   c0.862,0,1.711,0.136,2.543,0.342c-0.646,1.268-0.46,2.858,0.598,3.92c0.635,0.633,1.479,0.983,2.379,0.983   c0.896,0,1.739-0.35,2.378-0.987c0.167-0.167,0.308-0.346,0.435-0.535c1.039,1.042,1.984,2.26,2.77,3.676   c0.811,1.463,1.424,3.054,1.846,4.723C54.05,54.57,48.576,59.029,48.576,64.4c0,1.725,0.58,3.354,1.583,4.806l-1.502,5.287   l5.888-1.485c1.074,0.586,2.273,1.047,3.54,1.41C55.568,79.521,52.073,83.297,48.456,83.297z M52.516,42.552   c0.043-0.057,0.062-0.122,0.113-0.173c0.299-0.299,0.7-0.464,1.125-0.464c0.423,0,0.824,0.165,1.123,0.462   c0.475,0.48,0.576,1.184,0.318,1.768c-0.076,0.175-0.176,0.342-0.318,0.484c-0.602,0.6-1.65,0.596-2.248,0.004   C52.062,44.062,52.041,43.174,52.516,42.552z M65.163,55.979c6.228,0.533,11.063,4.103,11.063,8.422   c0,4.686-5.687,8.498-12.674,8.498c-0.342,0-0.664-0.043-0.998-0.06c-1.232-0.067-2.42-0.229-3.525-0.516   c-1.262-0.327-2.434-0.772-3.463-1.334c-0.118-0.063-0.227-0.136-0.34-0.199l-3.838,0.966l0.969-3.4   c-0.428-0.543-0.774-1.119-1.021-1.725c-0.289-0.712-0.458-1.456-0.458-2.23c0-4.24,4.659-7.754,10.725-8.387   c0.64-0.064,1.285-0.109,1.951-0.109C64.1,55.904,64.633,55.936,65.163,55.979z M76.896,36.998   c-0.953,0.716-2.028,1.275-3.196,1.627c0.299,0.779,0.479,1.618,0.479,2.5c0,0.364-0.053,0.714-0.109,1.064   c-0.516,3.41-3.438,6.037-6.991,6.037c-0.7,0-3.356-0.645-4.708-1.032c-3.2-5.711-8.477-9.121-14.136-9.121   c-5.593,0-10.85,3.357-14.061,8.98c-0.01,0.02-0.019,0.042-0.031,0.063c-0.398,0.317-1.147,0.932-1.16,0.921   c-1.23,1.026-2.793,1.668-4.517,1.668c-3.916,0-7.1-3.184-7.1-7.101c0-1.583,0.537-3.031,1.414-4.211   c0.651-0.879,3.401-2.59,3.401-2.59s-2.958-1.294-3.692-2.01c-1.693-1.652-2.751-3.953-2.751-6.5c0-4.354,3.081-7.996,7.172-8.883   c0,0.002,0,0.004,0,0.004c0.002,0,0.002-0.004,0.006-0.006c0.621-0.134,1.259-0.213,1.921-0.213c0.621,0,1.229,0.065,1.817,0.185   c-0.454-1.083-0.706-2.269-0.706-3.514c0-0.057,0.012-0.11,0.014-0.165c0.006-0.335,0.057-0.659,0.1-0.986   c0.574-4.468,4.358-7.947,8.982-7.947c0.914,0,1.78,0.177,2.612,0.429c0.236,0.071,0.482,0.13,0.711,0.22   c1.155,0.456,2.199,1.127,3.067,1.988c0.393-1.172,1.07-2.2,1.968-3.007c0.059-0.053,0.12-0.1,0.179-0.148   c1.239-1.043,2.813-1.699,4.556-1.699c2.661,0,4.956,1.487,6.174,3.658c0.023,0.046,0.808,3.825,0.808,3.825   s3.137-2.285,3.467-2.429c0.881-0.391,1.845-0.617,2.868-0.617c3.914,0,7.102,3.184,7.102,7.101c0,0.045-0.016,0.083-0.016,0.126   c-0.02,1.266-0.393,2.441-0.994,3.463c1.26,0.096,2.447,0.417,3.54,0.928c3.478,1.628,5.901,5.151,5.901,9.243   C80.984,32.18,79.372,35.134,76.896,36.998z"></path><path d="M28.599,20.433v10.76h16.199v-10.76H28.599z M29.486,30.306v-8.987h4.201v8.987H29.486z M43.909,30.306H39.5v-8.987h4.409   V30.306z"></path><g><path d="M55.455,20.433v10.76h16.197v-10.76H55.455z M70.768,21.319v2.885H56.344v-2.885H70.768z M56.344,30.306v-2.773h14.424    v2.773H56.344z"></path></g><path d="M57.23,59.807v8.697h13.093v-8.697H57.23z M69.604,60.521v2.332H57.949v-2.332H69.604z M57.949,67.785v-2.241h11.654v2.241   H57.949z"></path><path d="M52.993,25.702l-3.288-1.898v1.264h-1.976c-0.35,0-0.633,0.285-0.633,0.635s0.283,0.635,0.633,0.635h1.976V27.6   L52.993,25.702z"></path></g></svg>