<svg xmlns="http://www.w3.org/2000/svg" xmlns:xlink="http://www.w3.org/1999/xlink" version="1.1" x="0px" y="0px" viewBox="0 0 100 100" enable-background="new 0 0 100 100" xml:space="preserve"><g><path fill="#000000" d="M77.779,41.462c0-15.126-12.307-27.432-27.433-27.432S22.914,26.336,22.914,41.462v25.432   c0,11.621,9.454,21.075,21.074,21.075s21.073-9.454,21.073-21.075c0-0.719-0.042-1.447-0.126-2.202   C72.892,59.687,77.779,50.909,77.779,41.462z M61.789,61.911l-1.232,0.691l0.24,1.393c0.178,1.035,0.265,1.983,0.265,2.899   c0,9.415-7.659,17.075-17.073,17.075c-9.415,0-17.074-7.66-17.074-17.085V41.462c0-12.92,10.512-23.432,23.433-23.432   s23.433,10.512,23.433,23.432C73.779,49.926,69.185,57.762,61.789,61.911z"></path><path fill="#000000" d="M50.348,26.746c-8.115,0-14.717,6.602-14.717,14.716v25.432h4V57.39c2.668-2.329,4.357-5.749,4.357-9.569   c0-3.623-1.532-6.876-3.965-9.192c1.247-4.536,5.397-7.882,10.324-7.882c5.908,0,10.715,4.807,10.715,10.716   s-4.807,10.716-10.715,10.716v4c8.114,0,14.715-6.602,14.715-14.716S58.462,26.746,50.348,26.746z"></path></g></svg>