<svg xmlns="http://www.w3.org/2000/svg" xmlns:xlink="http://www.w3.org/1999/xlink" version="1.1" x="0px" y="0px" viewBox="0 0 48 48" enable-background="new 0 0 48 48" xml:space="preserve"><g><polyline fill="none" stroke="#000000" stroke-width="2" stroke-linecap="round" stroke-linejoin="round" stroke-miterlimit="10" points="   42.289,23.148 42.289,14.958 24,22.435 24,47 42.289,40.354 42.289,36.698  "></polyline><ellipse fill="none" stroke="#000000" stroke-width="2" stroke-linecap="round" stroke-linejoin="round" stroke-miterlimit="10" cx="24" cy="9.198" rx="8.026" ry="8.197"></ellipse><polyline fill="none" stroke="#000000" stroke-width="2" stroke-linecap="round" stroke-linejoin="round" stroke-miterlimit="10" points="   5.71,23.148 5.71,14.958 24,22.435 24,47 5.71,40.354 5.71,36.698  "></polyline><g><path fill="none" stroke="#000000" stroke-width="2" stroke-linecap="round" stroke-linejoin="round" stroke-miterlimit="10" d="    M42.905,22.329c0.88,0.158,1.913,1.41,2.404,2.162c0.699,1.078,1.197,2.106,1.493,3.352c0.616,2.581-0.308,4.937-1.434,7.104    c-1.043,2.005-3.515,2.244-5.211,0.968c-0.758-0.57-1.633-1.84-1.876-2.765c-0.184-0.683-0.12-2.517,0.94-2.35    c-0.448-0.308-0.636-0.969-0.554-1.508c0.125-0.854,0.604-0.788,1.367-0.831c-0.289-0.802-0.527-1.634,0.178-2.328    c0.521-0.51,1.384-0.459,1.996-0.125c-0.523-1.189-0.363-2.666,0.638-3.561"></path><path fill="none" stroke="#000000" stroke-width="2" stroke-linecap="round" stroke-linejoin="round" stroke-miterlimit="10" d="    M5.094,22.329c-0.881,0.158-1.915,1.41-2.401,2.162c-0.702,1.078-1.198,2.106-1.496,3.352c-0.614,2.581,0.307,4.937,1.434,7.104    c1.043,2.005,3.515,2.244,5.211,0.968c0.757-0.57,1.631-1.84,1.878-2.765c0.18-0.683,0.118-2.517-0.943-2.35    c0.446-0.308,0.636-0.969,0.557-1.508c-0.127-0.854-0.607-0.788-1.372-0.831c0.292-0.802,0.528-1.634-0.178-2.328    c-0.516-0.51-1.381-0.459-1.996-0.125c0.525-1.189,0.365-2.666-0.636-3.561"></path></g><path fill="none" stroke="#000000" stroke-width="2" stroke-linecap="round" stroke-linejoin="round" stroke-miterlimit="10" d="   M5.71,36.985"></path><path fill="none" stroke="#000000" stroke-width="2" stroke-linecap="round" stroke-linejoin="round" stroke-miterlimit="10" d="   M5.71,23.53"></path></g></svg>