<?xml version="1.0" encoding="utf-8"?>
<!-- Generator: Adobe Illustrator 21.1.0, SVG Export Plug-In . SVG Version: 6.00 Build 0)  -->
<svg version="1.1" id="Layer_1" xmlns="http://www.w3.org/2000/svg" xmlns:xlink="http://www.w3.org/1999/xlink" x="0px" y="0px"
	 viewBox="0 0 100 100" style="enable-background:new 0 0 100 100;" xml:space="preserve">
<style type="text/css">
	.st0{fill:#FFFFFF;}
</style>
<path d="M85.8,52.5c2.5-8.4,3.3-19.3,0.1-27.7c-3.1-7.9-10.1-14.5-18-17.4c-8.7-3.2-19.4-3.1-28.4-0.8C30.9,8.8,24.9,14,20.9,21.6
	c-2.1,3.9-3.2,8.6-2.4,13.1c0.6,3.7,0.9,7.2-1.2,10.4c-1.5,2.3-4.1,4.7-4.9,7.4c-1.7,2.3,4.3,4.3,5.5,5.1c2.7,2.3-1.1,4.7-0.9,7.1
	c0.1,1.6,2.8,0.6,1.4,2.1c-0.5,0.6-0.8,1.1-0.6,1.6c0.1,0.2,0.9,0.9,1.1,1.2c0.6,0.9,0.4,2.5,0.2,3.5c0,2.6-0.9,5.3,2.6,6.6
	c3.3,1.2,6.6-0.2,10,0c0,0,0,0,0,0h0h0h0c1.6,0.1,2.8,0.3,4.1,1.3c1.6,1.2,3,4.6,3.6,7.1c0.2,1.1,0.5,7,1.7,7c3.7,0,7.4,0,11.1,0
	c8.4,0,16.7-0.1,25.1-0.1c-2.5-6-4.9-14.3-2.9-20.8C76.6,66.2,83.5,60.5,85.8,52.5z"/>
<path class="st0" d="M76,32l-3.3-5.7c-0.2-0.4-0.5-0.8-0.8-1.1l0,0c-0.3-0.3-0.6-0.7-0.8-1.1l-0.7-1.2c-0.2-0.4-0.4-0.8-0.5-1.3
	s-0.3-0.9-0.5-1.3l-1.6-2.8l0.9-0.5c1.2-0.7,2.6-1.1,4-1l0.9,0c0.3,0,0.5-0.4,0.2-0.6c-1.2-0.8-2.6-1.3-4-1.3
	c-1.4-0.1-2.8,0.3-4.1,1l-2.2,1.3c-0.2,0.1-0.4,0.3-0.5,0.5c-0.1,0.2-0.3,0.4-0.5,0.5l-1.2,0.7l0,0c-0.1-0.2-0.4-0.3-0.6-0.2
	l-1.1,0.7c-0.2,0.1-0.3,0.4-0.2,0.6l1.1,1.9c0.1,0.2,0.4,0.3,0.6,0.2l1.1-0.7c0.2-0.1,0.3-0.4,0.2-0.6l0,0l1.2-0.7
	c0.2-0.1,0.5-0.2,0.7-0.1c0.2,0,0.5,0,0.7-0.1l0.5-0.3l0,0l1.6,2.8c0.2,0.4,0.5,0.8,0.8,1.1l0,0c0.3,0.3,0.6,0.7,0.8,1.1l0.7,1.2
	c0.2,0.4,0.4,0.8,0.5,1.3l0,0c0.1,0.4,0.3,0.9,0.5,1.3l3.3,5.7c0.3,0.5,1,0.7,1.5,0.4l0.3-0.2C76.1,33.1,76.3,32.5,76,32z"/>
<path class="st0" d="M49.7,20.9c-8.8,0-16,7.2-16,16s7.2,16,16,16s16-7.2,16-16S58.5,20.9,49.7,20.9z M36.8,36.9
	c0-1,0.1-1.9,0.3-2.8H40c-0.2,0.9-0.2,1.9-0.2,2.9c0,1,0.1,1.9,0.2,2.8h-2.9C36.9,38.8,36.8,37.9,36.8,36.9z M42.8,36.9
	c0-1,0.1-1.9,0.3-2.9h5.1v5.7h-5.1C42.9,38.8,42.8,37.9,42.8,36.9z M51.2,25.8c1.8,1.5,3.2,3.2,4.1,5.2h-4.1V25.8z M48.2,25.8V31
	h-4.1C45,29,46.4,27.2,48.2,25.8z M48.2,42.8V48c-1.8-1.5-3.2-3.2-4.1-5.2H48.2z M51.2,48v-5.2h4.1C54.5,44.8,53.1,46.6,51.2,48z
	 M51.2,39.7v-5.7h5.1c0.2,0.9,0.3,1.9,0.3,2.9c0,1-0.1,1.9-0.3,2.8H51.2z M59.4,34.1h2.9c0.2,0.9,0.3,1.9,0.3,2.8
	c0,1-0.1,1.9-0.3,2.8h-2.9c0.1-0.9,0.2-1.8,0.2-2.8C59.7,36,59.6,35,59.4,34.1z M61.2,31h-2.5c-0.8-2.1-2-4.1-3.6-5.8
	C57.7,26.4,59.8,28.4,61.2,31z M44.4,25.2c-1.6,1.7-2.8,3.7-3.6,5.8h-2.5C39.6,28.4,41.7,26.4,44.4,25.2z M38.2,42.8h2.5
	c0.8,2.1,2,4.1,3.6,5.8C41.7,47.4,39.6,45.4,38.2,42.8z M55.1,48.6c1.6-1.7,2.8-3.7,3.6-5.8h2.5C59.8,45.4,57.7,47.4,55.1,48.6z"/>
</svg>
