<svg xmlns="http://www.w3.org/2000/svg" data-name="Layer 1" viewBox="0 0 100 100" x="0px" y="0px"><title>Artboard 25</title><path d="M48.86,1a3.44,3.44,0,0,0-3.41,3L44,14.36H39.9a3.44,3.44,0,0,0-3.38,2.77l-1.45,7.23H30.33a3.44,3.44,0,0,0-3.39,2.85L24.45,41.44l21.81-10.5a8,8,0,0,1,6.93,0L75.55,41.71l-2.5-14.5a3.44,3.44,0,0,0-3.39-2.86H64.92l-1.45-7.23a3.44,3.44,0,0,0-3.38-2.77H56L54.55,4a3.44,3.44,0,0,0-3.41-3Z"></path><path d="M12.78,61l8.63,18.33a20.33,20.33,0,0,1,11.78-3.52,20.73,20.73,0,0,1,12.41,3.94c1.68,1.09,2.37,1.55,4.34,1.55H50c2,0,2.69-.46,4.35-1.54a20.73,20.73,0,0,1,12.42-3.94,20.32,20.32,0,0,1,11.77,3.52L87.22,61a4.51,4.51,0,0,0-2.12-6L51.76,39a4.06,4.06,0,0,0-3.52,0L14.9,55A4.51,4.51,0,0,0,12.78,61Z"></path><path d="M8.17,87.52A4.84,4.84,0,0,0,3.5,93.66a4.89,4.89,0,0,0,2.58,3.09A23.2,23.2,0,0,0,16.39,99a23.4,23.4,0,0,0,14.06-4.43c1.56-1,1.62-1.06,2.74-1.06s1.18,0,2.76,1.07A23.4,23.4,0,0,0,50,99a23.41,23.41,0,0,0,14.07-4.43c1.59-1,1.62-1.06,2.74-1.06s1.18,0,2.75,1.06a24.64,24.64,0,0,0,24.36,2.18,4.86,4.86,0,0,0,2-7,4.83,4.83,0,0,0-4.06-2.19A4.88,4.88,0,0,0,89.7,88a13.56,13.56,0,0,1-6.1,1.29,14.22,14.22,0,0,1-8.75-2.85,13.6,13.6,0,0,0-16.11,0,14.22,14.22,0,0,1-8.7,2.84h-.1a14.24,14.24,0,0,1-8.71-2.85,12.82,12.82,0,0,0-8.05-2.64,12.83,12.83,0,0,0-8.05,2.64,14.22,14.22,0,0,1-8.74,2.85A13.55,13.55,0,0,1,10.3,88,4.88,4.88,0,0,0,8.17,87.52Z"></path></svg>