<?xml version="1.0" encoding="utf-8"?>
<!-- Generator: Adobe Illustrator 21.1.0, SVG Export Plug-In . SVG Version: 6.00 Build 0)  -->
<svg version="1.1" id="Layer_1" xmlns="http://www.w3.org/2000/svg" xmlns:xlink="http://www.w3.org/1999/xlink" x="0px" y="0px"
	 viewBox="0 0 100 100" style="enable-background:new 0 0 100 100;" xml:space="preserve">
<title>Artboard 9</title>
<path d="M56.3,1.1C45.8,0.3,35.5,4,27.8,11.2c-7.7,7.2-12,17.2-12,27.7c0,1.8-0.4,3.5-1.1,5.2L9,56.7c-1.5,3.4,0,7.5,3.4,9
	c0.2,0.1,0.4,0.2,0.6,0.2l2.6,0.9V77c0,5.5,4.5,10,10,10H36l1.9,6.8c1.1,3.9,5.1,6.1,8.9,5c0,0,0.1,0,0.1,0l35.2-10.2
	c3.9-1.1,6.1-5.1,5-8.9c0,0,0,0,0-0.1l-4.7-16.2C96.1,47.5,94.2,23.6,78.3,10C72.1,4.8,64.4,1.7,56.3,1.1z M75.5,59.8l-1.5,1.6
	l5.7,20l-34.4,9.8l-3.4-12H25.7c-1.2,0-2.2-1-2.3-2.2V65.2c0-2.4-1.5-4.5-3.8-5.2l-3.2-1.1l5.2-11.7c1.2-2.6,1.8-5.4,1.8-8.3
	C23.4,22.2,37,8.7,53.6,8.7c0.7,0,1.4,0,2.2,0.1c14.9,1.1,26.9,12.9,28,27.9C84.5,45.2,81.4,53.6,75.5,59.8z M66.7,44.8l0.4,0.4
	c0.2,0.2,0.2,0.6,0,0.9l-1.7,1.7c-0.1,0.1-0.1,0.2,0,0.2l1.7,1.7c0.2,0.2,0.2,0.6,0,0.9L66.7,51c-0.2,0.2-0.6,0.2-0.9,0l-1.7-1.7
	c-0.1-0.1-0.2-0.1-0.2,0L62.2,51c-0.2,0.2-0.6,0.2-0.9,0l-0.4-0.4c-0.2-0.2-0.2-0.6,0-0.9l1.7-1.7c0.1-0.1,0.1-0.2,0-0.2l-1.7-1.7
	c-0.2-0.2-0.2-0.6,0-0.9l0.4-0.4c0.2-0.2,0.6-0.2,0.9,0l1.7,1.7c0.1,0.1,0.2,0.1,0.2,0l1.7-1.7C66.1,44.5,66.5,44.5,66.7,44.8z
	 M70.7,34l-3-5.1c-0.2-0.4-0.8-0.4-1.1,0l-3,5.1c-0.2,0.4,0.1,1,0.5,1h1.9c0.1,0,0.2,0.1,0.2,0.2v1.1c0,2.1-1.7,3.8-3.8,3.8H53
	c-3.1,0-5.7,2.5-5.7,5.7v0.6c0,0.1,0,0.1-0.1,0.1c-1.9,0.5-3.2,2.3-3,4.4c0.2,1.9,1.7,3.4,3.6,3.6c2.5,0.3,4.6-1.7,4.6-4.1
	c0-1.9-1.3-3.5-3-4c-0.1,0-0.1-0.1-0.1-0.2v-0.6c0-2.1,1.7-3.8,3.8-3.8h9.5c3.1,0,5.7-2.5,5.7-5.7v-1.1c0-0.1,0.1-0.2,0.2-0.2h1.9
	C70.7,34.9,71,34.4,70.7,34z M50.5,50.4c0,1.2-1,2.2-2.2,2.2s-2.2-1-2.2-2.2s1-2.2,2.2-2.2S50.5,49.2,50.5,50.4z M54.1,30.9l0.4,0.4
	c0.2,0.2,0.2,0.6,0,0.9l-1.7,1.7c-0.1,0.1-0.1,0.2,0,0.2l1.7,1.7c0.2,0.2,0.2,0.6,0,0.9l-0.4,0.4c-0.2,0.2-0.6,0.2-0.9,0l-1.7-1.7
	c-0.1-0.1-0.2-0.1-0.2,0l-1.7,1.7c-0.2,0.2-0.6,0.2-0.9,0l-0.4-0.4c-0.2-0.2-0.2-0.6,0-0.9l1.7-1.7c0.1-0.1,0.1-0.2,0-0.2l-1.7-1.7
	c-0.2-0.2-0.2-0.6,0-0.9l0.4-0.4c0.2-0.2,0.6-0.2,0.9,0l1.7,1.7c0.1,0.1,0.2,0.1,0.2,0l1.7-1.7C53.4,30.6,53.8,30.6,54.1,30.9z"/>
<path d="M66,13.2c0-0.5-0.4-0.9-0.9-0.9h-8.8c-1.5,0-2.6,1.2-2.6,2.6l0,0l0,0v8.8c0,1.5,1.2,2.6,2.6,2.6h8.8c0.5,0,0.9-0.4,0.9-0.9
	l0,0V13.2z M64.2,24.7h-7.9c-0.5,0-0.9-0.4-0.9-0.9c0-0.1,0-0.1,0-0.2c0.1-0.4,0.5-0.7,0.9-0.7h7.9V24.7z"/>
</svg>
