<svg xmlns="http://www.w3.org/2000/svg" data-name="Layer 1" viewBox="0 0 100 100" x="0px" y="0px"><title>Artboard 30</title><path d="M90.63,74.09,75.13,89.6V99H53.49l.06-12A22.14,22.14,0,0,1,60,71.45L73.31,58.18a4.46,4.46,0,0,1,6.6.32,4.59,4.59,0,0,1-.43,6.12L73.1,71a1.48,1.48,0,0,0,.18,2.24,1.52,1.52,0,0,0,2-.21l7.33-7.33a5.25,5.25,0,0,0,1.53-4L83,44.65a4.63,4.63,0,0,1,9.24-.59l1.63,21.49A11,11,0,0,1,90.63,74.09ZM40,71.45,26.69,58.18a4.46,4.46,0,0,0-6.6.32,4.59,4.59,0,0,0,.43,6.12L26.9,71a1.48,1.48,0,0,1-.18,2.24,1.52,1.52,0,0,1-2-.21l-7.33-7.33a5.26,5.26,0,0,1-1.53-4l1.13-17a4.63,4.63,0,0,0-9.24-.59L6.16,65.55a11,11,0,0,0,3.2,8.54l15.5,15.5V99H46.51l-.06-12A22.14,22.14,0,0,0,40,71.45ZM54.86,53.63H62a4.86,4.86,0,0,0,0-9.71H54.86V36.74a4.86,4.86,0,0,0-9.71,0v7.17H38a4.86,4.86,0,0,0,0,9.71h7.17V60.8a4.86,4.86,0,1,0,9.71,0ZM39.78,28.47a3.57,3.57,0,0,0-3.57-3.57H30.93V19.62a3.57,3.57,0,1,0-7.14,0V24.9H18.52a3.57,3.57,0,1,0,0,7.14h5.28v5.28a3.57,3.57,0,1,0,7.14,0V32h5.28A3.57,3.57,0,0,0,39.78,28.47Zm25.41,4.36h4.54v4.54a3.07,3.07,0,0,0,6.14,0V32.83h4.54a3.07,3.07,0,1,0,0-6.15H75.88V22.15a3.07,3.07,0,0,0-6.14,0v4.54H65.19a3.07,3.07,0,0,0,0,6.15ZM53.49,1a3.07,3.07,0,0,0-3.07,3.07V8.61H45.88a3.07,3.07,0,0,0,0,6.14h4.54V19.3a3.07,3.07,0,0,0,6.14,0V14.76h4.54a3.07,3.07,0,1,0,0-6.14H56.57V4.07A3.07,3.07,0,0,0,53.49,1Z"></path></svg>