<svg xmlns:dc="http://purl.org/dc/elements/1.1/" xmlns:cc="http://creativecommons.org/ns#" xmlns:rdf="http://www.w3.org/1999/02/22-rdf-syntax-ns#" xmlns:svg="http://www.w3.org/2000/svg" xmlns="http://www.w3.org/2000/svg" xmlns:sodipodi="http://sodipodi.sourceforge.net/DTD/sodipodi-0.dtd" xmlns:inkscape="http://www.inkscape.org/namespaces/inkscape" viewBox="0 0 77.163723 100.00003" version="1.1" x="0px" y="0px"><g transform="translate(-159.43514,-425.00817)"><path style="" d="m 206.79046,427.58031 c -1.48619,0.23657 -2.05366,1.46533 -3.34142,1.81568 -0.1141,0.009 -0.18547,0.0589 -0.27235,0.105 -1.44676,1.10607 -2.13944,3.68792 -2.17965,5.7361 -1.89749,0.55666 -2.70231,2.93925 -3.154,4.68226 -0.46349,2.44417 -0.56851,4.92803 -0.58612,7.40995 -0.60063,1.65689 -0.91282,3.40789 -0.60201,5.16213 0.45043,3.95205 0.46007,8.22509 2.77706,11.64372 0.84858,1.76126 0.82951,3.85052 1.69685,5.63152 0.86798,2.46267 2.38865,4.61268 3.60081,6.91044 4.06777,-3.94991 5.45668,-4.69434 6.97235,-9.74775 -0.85544,-1.01175 -2.39578,-2.94194 -1.11869,-4.05346 1.41396,-1.73402 3.08561,-3.33173 4.17521,-5.2868 0.0237,-0.0245 0.0169,-0.059 0.0247,-0.0863 0.24194,-2.21392 0.86545,-4.42676 1.98469,-6.35192 1.09772,-1.07383 3.8909,-2.44679 2.46077,-4.23085 -1.95815,-0.5216 -4.17864,-0.11959 -5.98418,0.76308 -1.03171,0.31357 -0.70171,-1.31945 -0.84091,-1.96587 -0.1817,-1.94991 -0.18155,-3.92791 -0.47985,-5.85992 -0.7004,-2.25434 -0.58956,-4.65283 -1.15467,-6.92551 -0.66617,-1.33873 -2.91762,-0.80796 -2.28088,-2.78416 0.20373,-1.36943 -0.01,-2.57438 -1.6977,-2.56746 z m -33.15652,9.46493 c -2.09418,-0.009 -1.92413,1.64924 -3.76355,2.60637 -1.96204,1.02092 -0.11938,4.17654 0.16776,6.21721 0.805,3.40088 1.14788,6.89558 2.20726,10.23888 0.5815,1.70871 0.57171,3.52149 0.77522,5.29683 -1.78771,-0.72296 -2.5365,-2.61311 -4.19445,-3.49871 -1.48632,-0.63232 -5.78425,-1.56545 -5.33575,1.11867 1.75287,1.37757 2.91285,3.24113 4.12962,5.03871 3.2263,3.37365 6.51887,6.69406 9.9293,9.87407 1.47694,2.70135 0.20146,5.80521 -0.39619,8.56546 l 2.4018,0.87814 c 3.76181,0.82686 7.51172,1.83877 11.2806,2.55407 1.19554,-3.20418 0.36882,-7.9251 1.19315,-11.19526 1.02103,-0.93792 0.19068,-2.85716 0.57232,-4.08233 0.24266,-4.16449 -0.91234,-8.2789 -2.21186,-12.18635 -1.44694,-2.85068 -2.11429,-6.03738 -3.90914,-8.72359 -1.44956,-1.76672 -1.8595,-5.8281 -4.78225,-5.31188 -0.77864,-1.79782 -1.95284,-3.41131 -3.32887,-4.78895 -0.13425,-0.0952 -0.28043,-0.0302 -0.4079,-0.007 -1.94994,0.43778 -1.55512,-2.42024 -3.56483,-2.50178 -0.1031,-0.0206 -0.2049,-0.0657 -0.31208,-0.0682 -0.16101,-0.0161 -0.31054,-0.0242 -0.45016,-0.0247 z m 41.89434,32.55576 c -0.0498,9e-4 -0.1143,0.0222 -0.21755,0.0557 -0.37251,0.4653 -1.05813,4.6728 -2.80341,6.32138 -3.52141,4.53061 -8.34822,8.32946 -12.21018,11.78807 6.76394,4.649 11.41407,11.07387 16.6431,16.4218 1.41711,1.62981 3.45943,2.7283 5.58675,2.92641 l 9.0566,0 3.0306,0 0,-18.09021 -3.46527,0 c -3.3167,-0.0238 -3.31437,-0.0361 -4.92615,-1.71359 -2.00921,-2.2744 -5.41397,-5.84863 -6.32515,-8.25379 -1.47467,-3.04314 -2.67771,-6.22608 -4.13297,-9.26661 -0.11125,-0.13934 -0.15333,-0.19136 -0.23637,-0.1891 z m 0.39076,0.44805 c 0.011,0.0331 0.008,0.0578 0.0146,0.0887 -4.3e-4,-0.003 2.2e-4,-0.0115 0,-0.0139 -0.006,-0.0471 -0.01,-0.0567 -0.0122,-0.0656 -0.005,-0.018 -0.005,-0.0149 -0.003,-0.01 z m -38.7232,15.27718 c -0.56869,-0.006 -1.19486,0.0125 -1.96545,0.036 -0.81447,4.93521 -1.44886,8.83422 -2.30556,12.81262 -1.43418,6.58508 -3.56146,14.01263 -5.91976,17.0556 l -5.69637,7.34971 28.38474,0 10.50329,-28.67549 c -7.63683,-4.2416 -7.66915,-4.23994 -11.73578,-5.72314 -7.41297,-2.36586 -8.80082,-2.83135 -11.26511,-2.85528 z" fill="#000000" fill-opacity="1" fill-rule="evenodd" stroke="none"></path></g></svg>