<svg xmlns="http://www.w3.org/2000/svg" xmlns:xlink="http://www.w3.org/1999/xlink" version="1.1" x="0px" y="0px" viewBox="0 0 198.948 215.013" style="enable-background:new 0 0 198.948 215.013;" xml:space="preserve"><g><path d="M0,213.56h11.015c0.483-6.189,1.449-18.489,2.545-32.074c1.565-19.424,3.398-37.438,4.434-47.655   c0.284-2.612,1.085-4.266,2.23-5.669c1.405-1.721,3.655-3.073,6.365-4.014h63.666c2.71,0.94,4.96,2.293,6.364,4.014   c0.281,0.344,0.541,0.704,0.778,1.089h-5.087c-5.314,0-9.866,3.793-10.82,9.02l-11.667,63.761   c-1.094,5.976,2.863,11.706,8.84,12.801c0.67,0.122,1.336,0.182,1.994,0.182c5.208,0,9.835-3.716,10.807-9.022l9.429-51.534   c0.777,8.149,1.617,17.415,2.392,27.029c1.096,13.585,2.063,25.885,2.547,32.074h11.015c-0.811-10.369-3.339-40.313-5.327-62.311   l40.125,0.002c3.636,0,6.851-1.773,8.854-4.494c5.278-3.395,9.744-9.508,11.466-17.607c4.209-19.773,4.209-40.221,0-59.994   c-3.359-15.786-17.127-24.054-27.048-19.279c-7.914,3.767-12.22,12.137-12.594,20.784c0.368-0.176,0.736-0.352,1.085-0.529   c7.442-3.778,10.715-7.675,11.286-8.388c0.05-0.063,0.069-0.088,0.076-0.098c0.002-0.002,0.003-0.004,0.004-0.006l0,0   c2.514-3.569,7.436-4.467,11.052-1.994c3.646,2.493,4.582,7.47,2.09,11.118c-0.539,0.796-4.724,6.582-14.456,12.122   c-2.606,1.489-5.62,2.949-9.038,4.294c1.297,11.204,0.775,22.569-1.581,33.641c-0.565,2.769-0.693,5.627-0.412,8.429h-23.266   c-0.474-1.846-1.173-3.552-2.043-5.103h3.59c1.732,0,3.137-1.404,3.137-3.137v-9.935c0-1.732-1.404-3.137-3.137-3.137H6.137   c-1.732,0-3.137,1.404-3.137,3.137v9.935c0,1.733,1.404,3.137,3.137,3.137h3.589c-1.395,2.486-2.345,5.382-2.655,8.578   C5.245,150.761,1.084,199.686,0,213.56z"></path><path d="M35.124,99.782v3.506c0,1.29,1.046,2.337,2.336,2.337h63.097c1.29,0,2.337-1.047,2.337-2.337v-3.506   c0-1.291-1.046-2.336-2.337-2.336H48.915c-0.019-0.163-0.053-0.325-0.108-0.486L28.401,37.253   c-0.417-1.221-1.746-1.873-2.967-1.455l-3.317,1.133c-1.222,0.417-1.873,1.746-1.455,2.967l19.668,57.547H37.46   C36.17,97.445,35.124,98.491,35.124,99.782z"></path><ellipse transform="matrix(0.9739 -0.2268 0.2268 0.9739 -1.5206 31.7654)" cx="137.472" cy="22.5" rx="22.495" ry="22.494"></ellipse><path d="M142.47,81.149c9.475-5.394,13.377-10.896,13.792-11.511c1.868-2.731,1.165-6.473-1.566-8.338   c-1.003-0.688-2.172-1.049-3.38-1.049c-1.952,0-3.786,0.951-4.909,2.541l-0.042,0.062l-0.026,0.032l-0.074,0.094l-0.012,0.016   c-0.905,1.131-4.443,5.116-11.942,8.922c-0.656,0.332-1.323,0.651-2.001,0.961c-9.756,4.469-21.773,6.738-35.763,6.746   c-3.796,0-7.799-0.176-11.901-0.519c-0.171-0.016-0.341-0.022-0.509-0.022c-3.089,0-5.711,2.415-5.971,5.5   c-0.278,3.296,2.18,6.203,5.476,6.481c4.439,0.374,8.78,0.562,12.906,0.562h0.09c16.542,0,28.831-3.018,37.529-6.501   C137.423,83.819,140.192,82.451,142.47,81.149z"></path><polygon points="125.145,212.418 198.948,212.418 189.547,157.418 134.547,157.418  "></polygon></g></svg>